<?xml version="1.0" encoding="UTF-8"?>
<svg width="62px" height="37px" viewBox="0 0 62 37" version="1.1" xmlns="http://www.w3.org/2000/svg" xmlns:xlink="http://www.w3.org/1999/xlink">
    <defs></defs>
    <g id="Page-1" stroke="none" stroke-width="1" fill="none" fill-rule="evenodd">
        <g id="Landing-Copy-4" transform="translate(-928.000000, -701.000000)">
            <g id="Group-4" transform="translate(728.000000, 652.000000)">
                <g id="Aa-illustration" transform="translate(199.000000, 39.000000)">
                    <path d="M29.1431869,46.4166634 L26.690687,38.6766635 L15.2831872,38.6766635 L12.7856873,46.4166634 L5.96818739,46.4166634 L17.2406872,13.949164 L25.228187,13.949164 L36.5006868,46.4166634 L29.1431869,46.4166634 Z M20.8181871,20.6991639 L16.7456872,33.4341636 L25.250687,33.4341636 L21.2231871,20.6991639 L20.8181871,20.6991639 Z M50.3381865,41.8716634 C53.3756864,41.8716634 55.6706864,39.9366635 55.6706864,37.4166635 L55.6706864,35.5941636 L50.6531865,35.9091636 C47.8406866,36.1116636 46.4681866,37.1241635 46.4681866,38.9016635 C46.4681866,40.7466635 48.0656865,41.8716634 50.3381865,41.8716634 Z M48.1781865,46.7991633 C43.4081866,46.7991633 40.0556867,43.8741634 40.0556867,39.3291635 C40.0556867,34.8291636 43.4981866,32.2191636 49.6631865,31.8591636 L55.6706864,31.4991637 L55.6706864,29.4741637 C55.6706864,27.4041637 54.1856864,26.2341638 51.4856865,26.2341638 C49.1231865,26.2341638 47.5481866,27.0441637 47.0081866,28.5291637 L40.9781867,28.5291637 C41.4056867,23.9391638 45.6131866,21.0591639 51.8456865,21.0591639 C58.4156863,21.0591639 62.1281863,24.1641638 62.1281863,29.4741637 L62.1281863,46.4166634 L55.7831864,46.4166634 L55.7831864,43.1766634 L55.3781864,43.1766634 C54.0956864,45.4491634 51.3956865,46.7991633 48.1781865,46.7991633 Z" id="Aa-bg" fill-opacity="0.698426178" fill="#BFA9F2"></path>
                    <path d="M25.5168133,44 L23.0643133,36.2600002 L11.6568136,36.2600002 L9.15931362,44 L2.34181376,44 L13.6143135,11.5325006 L21.6018134,11.5325006 L32.8743132,44 L25.5168133,44 Z M17.1918135,18.2825005 L13.1193135,31.0175003 L21.6243134,31.0175003 L17.5968135,18.2825005 L17.1918135,18.2825005 Z M46.7118129,39.4550001 C49.7493128,39.4550001 52.0443128,37.5200001 52.0443128,35.0000002 L52.0443128,33.1775002 L47.0268129,33.4925002 C44.2143129,33.6950002 42.841813,34.7075002 42.841813,36.4850001 C42.841813,38.3300001 44.4393129,39.4550001 46.7118129,39.4550001 Z M44.5518129,44.3825 C39.781813,44.3825 36.4293131,41.4575001 36.4293131,36.9125001 C36.4293131,32.4125002 39.871813,29.8025003 46.0368129,29.4425003 L52.0443128,29.0825003 L52.0443128,27.0575003 C52.0443128,24.9875004 50.5593128,23.8175004 47.8593129,23.8175004 C45.4968129,23.8175004 43.9218129,24.6275004 43.3818129,26.1125004 L37.3518131,26.1125004 C37.7793131,21.5225004 41.986813,18.6425005 48.2193128,18.6425005 C54.7893127,18.6425005 58.5018126,21.7475004 58.5018126,27.0575003 L58.5018126,44 L52.1568128,44 L52.1568128,40.7600001 L51.7518128,40.7600001 C50.4693128,43.0325 47.7693129,44.3825 44.5518129,44.3825 Z" id="Aa-shape" stroke="#6032C3" stroke-width="1.20000005" fill-opacity="0" fill="#526173"></path>
                </g>
            </g>
        </g>
    </g>
</svg>