<?xml version="1.0" encoding="iso-8859-1"?>
<!-- Generator: Adobe Illustrator 17.0.0, SVG Export Plug-In . SVG Version: 6.00 Build 0)  -->
<!DOCTYPE svg PUBLIC "-//W3C//DTD SVG 1.1//EN" "http://www.w3.org/Graphics/SVG/1.1/DTD/svg11.dtd">
<svg version="1.1" id="alert_massage" xmlns="http://www.w3.org/2000/svg" xmlns:xlink="http://www.w3.org/1999/xlink" x="0px"
	 y="0px" width="122px" height="140px" viewBox="0 0 122 140" style="enable-background:new 0 0 122 140;" xml:space="preserve">
<g id="alert_massage_1_">
	<g>
		<g>
			<rect x="90.833" y="49" style="fill:#34C9A2;" width="25.083" height="2"/>
		</g>
		<g>
			<rect x="90.833" y="54" style="fill:#34C9A2;" width="25.083" height="2"/>
		</g>
		<g>
			<rect x="90.833" y="59" style="fill:#34C9A2;" width="25.083" height="2"/>
		</g>
	</g>
	<g>
		<circle style="fill:#E4E5E7;" cx="91" cy="100" r="20"/>
	</g>
	<g>
		<path style="fill:#27BA90;" d="M83.5,0C68.312,0,56,7.835,56,17.5c0,5.919,4.623,11.147,11.69,14.315L64.797,44.73l10.851-10.459
			C78.136,34.743,80.77,35,83.5,35c15.188,0,27.5-7.835,27.5-17.5S98.687,0,83.5,0z"/>
	</g>
	<g>
		<g>
			<rect x="11" y="49" style="fill:#E4E5E7;" width="29.834" height="2"/>
		</g>
		<g>
			<rect x="11" y="54" style="fill:#E4E5E7;" width="29.834" height="2"/>
		</g>
		<g>
			<rect x="11" y="59" style="fill:#E4E5E7;" width="29.834" height="2"/>
		</g>
		<g>
			<rect x="11" y="64" style="fill:#E4E5E7;" width="29.834" height="2"/>
		</g>
		<g>
			<rect x="11" y="69" style="fill:#E4E5E7;" width="29.834" height="2"/>
		</g>
		<g>
			<rect x="11" y="74" style="fill:#E4E5E7;" width="18.359" height="2"/>
		</g>
	</g>
	<g>
		<g>
			<rect x="81.437" y="124" style="fill:#E4E5E7;" width="29.834" height="2"/>
		</g>
		<g>
			<rect x="81.437" y="129" style="fill:#E4E5E7;" width="29.834" height="2"/>
		</g>
		<g>
			<rect x="81.437" y="134" style="fill:#E4E5E7;" width="18.359" height="2"/>
		</g>
	</g>
	<g>
		<g>
			<path style="fill:#C4C4C4;" d="M122,101H0V39h122V101z M2,99h118V41H2V99z"/>
		</g>
		<g>
			<polygon style="fill:#C4C4C4;" points="61,76.158 0.496,40.864 1.504,39.136 61,73.842 120.496,39.136 121.504,40.864 			"/>
		</g>
		<g>
			
				<rect x="25.857" y="55.315" transform="matrix(0.5037 0.8639 -0.8639 0.5037 86.9754 19.1091)" style="fill:#C4C4C4;" width="2.001" height="59.87"/>
		</g>
		<g>
			
				<rect x="65.209" y="84.25" transform="matrix(0.8638 0.5039 -0.5039 0.8638 55.9177 -36.3278)" style="fill:#C4C4C4;" width="59.869" height="2"/>
		</g>
	</g>
	<g>
		<polygon style="fill:#34C9A2;" points="11,140 41,90 71,140 		"/>
	</g>
	<g>
		<polygon style="fill:#FFFFFF;" points="23.333,132.723 41,103.277 58.667,132.723 		"/>
	</g>
	<g>
		<g>
			<rect x="40" y="113" width="2" height="10"/>
		</g>
		<g>
			<rect x="40" y="126" width="2" height="2"/>
		</g>
	</g>
	<g>
		<g>
			<rect x="22.5" y="27" width="2" height="7.333"/>
		</g>
		<g>
			<rect x="22.5" y="36.533" width="2" height="1.467"/>
		</g>
	</g>
	<g>
		<path d="M71,21c-1.93,0-3.5-1.57-3.5-3.5S69.07,14,71,14s3.5,1.57,3.5,3.5S72.93,21,71,21z M71,16c-0.827,0-1.5,0.673-1.5,1.5
			S70.173,19,71,19s1.5-0.673,1.5-1.5S71.827,16,71,16z"/>
	</g>
	<g>
		<path d="M83.5,21c-1.93,0-3.5-1.57-3.5-3.5s1.57-3.5,3.5-3.5s3.5,1.57,3.5,3.5S85.43,21,83.5,21z M83.5,16
			c-0.827,0-1.5,0.673-1.5,1.5s0.673,1.5,1.5,1.5s1.5-0.673,1.5-1.5S84.327,16,83.5,16z"/>
	</g>
	<g>
		<path d="M96,21c-1.93,0-3.5-1.57-3.5-3.5S94.07,14,96,14s3.5,1.57,3.5,3.5S97.93,21,96,21z M96,16c-0.827,0-1.5,0.673-1.5,1.5
			S95.173,19,96,19s1.5-0.673,1.5-1.5S96.827,16,96,16z"/>
	</g>
	<g>
		<path d="M23.5,46C16.056,46,10,39.944,10,32.5S16.056,19,23.5,19S37,25.056,37,32.5S30.944,46,23.5,46z M23.5,21
			C17.159,21,12,26.159,12,32.5S17.159,44,23.5,44S35,38.841,35,32.5S29.841,21,23.5,21z"/>
	</g>
	<g>
		<g>
			<path d="M85.683,111.876L67.317,85.619l4.781-3.345l0.573,0.82c0.006,0.008,0.946,1.298,2.29,1.298c0.53,0,1.088-0.202,1.657-0.6
				l12.467-8.72c0.152-0.104,3.545-2.385,7.798-2.385c3.361,0,6.264,1.385,8.638,4.12l0.059-0.038l0.57,0.771
				c0.057,0.082,0.108,0.163,0.16,0.244l0.108,0.154c0.058,0.074,0.114,0.149,0.171,0.229l0.602,0.856l-0.09,0.058
				c5.066,9.273-3.942,15.89-4.037,15.958l-12.475,8.726c-2.258,1.579-0.864,3.711-0.698,3.948l0.573,0.819L85.683,111.876z
				 M70.103,86.111l16.072,22.98l1.591-1.112c-0.69-1.58-0.902-4.049,1.678-5.854l12.465-8.719
				c0.323-0.233,8.116-6.001,2.996-14.117l-0.386-0.551c-2.077-2.688-4.646-4.051-7.635-4.051c-3.643,0-6.632,2.01-6.661,2.03
				L77.766,85.43c-0.912,0.638-1.855,0.961-2.804,0.961c-1.473,0-2.597-0.78-3.258-1.401L70.103,86.111z"/>
		</g>
		<g>
			<rect x="110.916" y="66.195" transform="matrix(0.5733 0.8194 -0.8194 0.5733 108.371 -60.1325)" width="2" height="15.561"/>
		</g>
		<g>
			<path d="M77.512,102.972c-0.265,0-0.532-0.023-0.799-0.07c-1.192-0.211-2.231-0.874-2.926-1.866s-0.961-2.196-0.75-3.389
				s0.874-2.231,1.867-2.926l1.146,1.639c-0.556,0.389-0.926,0.969-1.044,1.636c-0.118,0.666,0.031,1.339,0.419,1.894
				c0.389,0.555,0.969,0.925,1.636,1.043c0.662,0.116,1.338-0.03,1.894-0.419l1.146,1.639
				C79.331,102.691,78.433,102.972,77.512,102.972z"/>
		</g>
	</g>
	<g>
		<g>
			<rect x="25.917" y="4" style="fill:#E4E5E7;" width="25.083" height="2"/>
		</g>
		<g>
			<rect x="25.917" y="9" style="fill:#E4E5E7;" width="25.083" height="2"/>
		</g>
		<g>
			<rect x="25.917" y="14" style="fill:#E4E5E7;" width="25.083" height="2"/>
		</g>
	</g>
</g>
</svg>
