<?xml version="1.0" encoding="iso-8859-1"?>
<!-- Generator: Adobe Illustrator 17.0.0, SVG Export Plug-In . SVG Version: 6.00 Build 0)  -->
<!DOCTYPE svg PUBLIC "-//W3C//DTD SVG 1.1//EN" "http://www.w3.org/Graphics/SVG/1.1/DTD/svg11.dtd">
<svg version="1.1" id="brain_process" xmlns="http://www.w3.org/2000/svg" xmlns:xlink="http://www.w3.org/1999/xlink" x="0px"
	 y="0px" width="121.844px" height="141.526px" viewBox="0 0 121.844 141.526" style="enable-background:new 0 0 121.844 141.526;"
	 xml:space="preserve">
<g id="brain_process_1_">
	<g>
		<circle style="fill:#EFD32E;" cx="105.844" cy="26.056" r="15"/>
	</g>
	<g>
		<rect x="10.844" y="106.19" style="fill:#E2C120;" width="40" height="10"/>
	</g>
	<g>
		<path style="fill:#EFD32E;" d="M75.793,111.472l-0.096-1.998c0.646-0.031,1.289-0.087,1.912-0.167l0.254,1.984
			C77.188,111.377,76.492,111.438,75.793,111.472z M71.643,111.345c-0.683-0.075-1.375-0.179-2.056-0.309l0.375-1.965
			c0.629,0.12,1.268,0.216,1.898,0.285L71.643,111.345z M81.928,110.445l-0.563-1.92c0.605-0.177,1.217-0.384,1.82-0.613
			l0.712,1.869C83.245,110.029,82.583,110.252,81.928,110.445z M65.582,109.932c-0.65-0.235-1.298-0.501-1.925-0.788l0.832-1.818
			c0.579,0.265,1.176,0.509,1.775,0.728L65.582,109.932z M87.648,107.991l-1.003-1.73c0.548-0.317,1.095-0.663,1.624-1.028
			l1.135,1.646C88.832,107.273,88.241,107.647,87.648,107.991z M60.024,107.109c-0.477-0.325-0.942-0.666-1.4-1.018l-0.203-0.125
			l1.076-1.686l0.274,0.175c0.499,0.378,0.934,0.697,1.379,1.001L60.024,107.109z M92.625,104.257l-1.38-1.447
			c0.458-0.438,0.908-0.901,1.336-1.38l1.49,1.334C93.608,103.282,93.122,103.785,92.625,104.257z M55.049,103.816l-1.687-1.075
			l1.075-1.686l1.687,1.075L55.049,103.816z M49.99,100.589l-1.686-1.075l1.075-1.686l1.686,1.075L49.99,100.589z M96.588,99.46
			l-1.683-1.082c0.345-0.536,0.673-1.094,0.975-1.655l1.762,0.947C97.316,98.278,96.961,98.88,96.588,99.46z M44.931,97.364
			l-1.686-1.075l1.075-1.686l1.686,1.075L44.931,97.364z M39.872,94.138l-1.687-1.076l1.075-1.687l1.687,1.076L39.872,94.138z
			 M99.309,93.87l-1.89-0.655c0.208-0.6,0.395-1.218,0.555-1.837l1.937,0.502C99.736,92.55,99.534,93.219,99.309,93.87z
			 M34.813,90.912l-1.687-1.075l1.075-1.687l1.687,1.075L34.813,90.912z M100.628,87.79L98.637,87.6
			c0.06-0.633,0.096-1.278,0.106-1.917l2,0.032C100.731,86.406,100.693,87.104,100.628,87.79z M29.754,87.686l-1.686-1.075
			l1.075-1.687L30.829,86L29.754,87.686z M24.695,84.46l-1.687-1.075l1.075-1.687l1.687,1.075L24.695,84.46z M98.501,81.854
			c-0.091-0.631-0.208-1.267-0.348-1.889l1.951-0.44c0.152,0.673,0.279,1.361,0.376,2.045L98.501,81.854z M19.602,81.254
			c-0.564-0.383-1.12-0.779-1.665-1.188l1.198-1.602c0.521,0.39,1.051,0.768,1.59,1.134L19.602,81.254z M14.777,77.47
			c-0.506-0.457-1.002-0.925-1.487-1.404l1.406-1.422c0.463,0.458,0.937,0.905,1.421,1.342L14.777,77.47z M97.048,76.368
			l-0.519-1.932l1.932-0.519l0.519,1.932L97.048,76.368z M10.516,73.062c-0.439-0.521-0.866-1.053-1.281-1.595l1.587-1.217
			c0.396,0.517,0.805,1.025,1.225,1.523L10.516,73.062z M95.493,70.573l-0.518-1.932l1.932-0.519l0.518,1.932L95.493,70.573z
			 M6.897,68.11c-0.363-0.577-0.713-1.163-1.051-1.756l1.739-0.987c0.322,0.567,0.656,1.126,1.004,1.677L6.897,68.11z
			 M93.938,64.778l-0.519-1.932l1.932-0.519l0.519,1.932L93.938,64.778z M3.993,62.707c-0.28-0.622-0.546-1.25-0.798-1.886
			l1.859-0.736c0.24,0.607,0.495,1.207,0.762,1.8L3.993,62.707z M92.383,58.983l-0.519-1.932l1.932-0.519l0.519,1.932L92.383,58.983
			z M1.865,56.95c-0.191-0.654-0.368-1.314-0.529-1.979l1.943-0.472c0.154,0.635,0.322,1.265,0.505,1.889L1.865,56.95z
			 M90.828,53.188l-0.518-1.932l1.932-0.519l0.518,1.932L90.828,53.188z M0.555,50.951c-0.098-0.671-0.181-1.348-0.249-2.029
			l1.99-0.198c0.065,0.651,0.145,1.297,0.238,1.939L0.555,50.951z M89.273,47.393l-0.519-1.932l1.932-0.519l0.519,1.932
			L89.273,47.393z M0.086,44.838l-0.001-0.379c0-0.557,0.01-1.112,0.03-1.665l1.999,0.074c-0.02,0.527-0.03,1.057-0.029,1.589
			l0.001,0.365L0.086,44.838z M87.718,41.598L87.2,39.667l1.932-0.519l0.519,1.932L87.718,41.598z M2.436,38.974L0.452,38.72
			c0.087-0.679,0.19-1.354,0.308-2.022l1.97,0.347C2.617,37.683,2.519,38.326,2.436,38.974z M86.292,36.514l-0.352-1.52
			c-0.086-0.377-0.177-0.753-0.273-1.127l1.181-0.304l0.645-0.496l0.084,0.308l0.026-0.007c0.084,0.327,0.165,0.656,0.241,0.986
			l0.25,0.931l-0.644,0.172l0.08,0.103L86.292,36.514z M3.584,33.233l-1.93-0.526c0.18-0.66,0.375-1.313,0.584-1.96l1.903,0.615
			C3.942,31.98,3.755,32.604,3.584,33.233z M84.52,30.132c-0.22-0.615-0.455-1.224-0.703-1.826l1.85-0.762
			c0.26,0.63,0.505,1.268,0.736,1.913L84.52,30.132z M5.516,27.708L3.678,26.92c0.269-0.627,0.552-1.246,0.849-1.857l1.799,0.874
			C6.042,26.52,5.772,27.111,5.516,27.708z M82.166,24.767c-0.303-0.578-0.619-1.148-0.947-1.71l1.727-1.009
			c0.344,0.589,0.675,1.186,0.992,1.792L82.166,24.767z M8.192,22.506l-1.711-1.035c0.353-0.583,0.719-1.157,1.097-1.723
			l1.662,1.113C8.878,21.4,8.529,21.949,8.192,22.506z M79.093,19.778c-0.379-0.53-0.771-1.052-1.173-1.563l1.571-1.237
			c0.422,0.536,0.832,1.082,1.229,1.637L79.093,19.778z M11.56,17.718l-1.553-1.261c0.43-0.529,0.871-1.048,1.324-1.557l1.494,1.33
			C12.392,16.717,11.97,17.213,11.56,17.718z M75.366,15.259c-0.448-0.473-0.906-0.936-1.375-1.388l1.388-1.44
			c0.491,0.473,0.971,0.958,1.44,1.452L75.366,15.259z M15.553,13.435l-1.365-1.462c0.498-0.465,1.007-0.919,1.525-1.361
			l1.298,1.521C16.515,12.556,16.029,12.991,15.553,13.435z M71.056,11.291c-0.507-0.407-1.024-0.802-1.551-1.185l1.177-1.617
			c0.552,0.401,1.093,0.815,1.625,1.242L71.056,11.291z M20.096,9.737l-1.152-1.635c0.557-0.393,1.124-0.773,1.699-1.141
			l1.077,1.686C21.17,8.998,20.629,9.362,20.096,9.737z M66.247,7.954c-0.559-0.333-1.125-0.653-1.699-0.96l0.945-1.763
			c0.601,0.322,1.193,0.657,1.777,1.005L66.247,7.954z M25.104,6.698l-0.917-1.777c0.606-0.313,1.221-0.612,1.842-0.897l0.834,1.818
			C26.269,6.114,25.683,6.4,25.104,6.698z M61.025,5.312c-0.598-0.252-1.202-0.49-1.814-0.715l0.691-1.877
			c0.64,0.236,1.273,0.486,1.899,0.75L61.025,5.312z M30.485,4.378l-0.661-1.888c0.642-0.225,1.29-0.436,1.945-0.632l0.574,1.916
			C31.718,3.962,31.099,4.164,30.485,4.378z M55.487,3.418c-0.627-0.167-1.26-0.319-1.898-0.458l0.424-1.955
			c0.668,0.145,1.332,0.305,1.989,0.48L55.487,3.418z M36.131,2.829l-0.395-1.961c0.666-0.134,1.337-0.252,2.014-0.356l0.304,1.977
			C37.408,2.587,36.767,2.701,36.131,2.829z M49.739,2.309c-0.644-0.078-1.292-0.142-1.944-0.191l0.15-1.994
			c0.683,0.051,1.361,0.118,2.035,0.2L49.739,2.309z M41.937,2.073l-0.119-1.996C42.494,0.037,43.174,0.011,43.859,0l0.03,2
			C43.235,2.01,42.583,2.035,41.937,2.073z"/>
	</g>
	<g>
		<rect x="43.344" y="126.056" style="fill:#EFD32E;" width="65" height="10"/>
	</g>
	<g>
		<path d="M62.389,141.526l-1.766-0.939l14.25-26.75c0.018-0.054,0.575-1.294,2.305-1.951c2.232-0.844,5.306-0.335,9.139,1.521
			c3.621,1.754,10.533,2.995,14.094,0.764c1.494-0.937,2.22-2.364,2.22-4.363c0-9.78,2.28-13.345,3.26-14.423
			c0.561-0.617,0.88-1.503,0.813-2.258c-0.047-0.535-0.277-0.964-0.684-1.277l-1.163-0.895l1.258-0.755
			c0.291-0.176,1.138-0.777,1.542-1.422c0.503-0.805,0.62-0.992-0.101-3.154c-0.686-2.057-0.656-3.688,0.086-4.717
			c0.361-0.502,1.064-1.1,2.362-1.1c2.691,0,4.768-0.625,5.292-1.592c0.447-0.826-0.164-2.081-0.754-2.987
			c-3.798-5.824-8.468-14.918-8.871-16.259c-0.458-1.529,0.054-4.269,1.523-8.142c0.487-1.284,2.159-17.308-7.31-31.027
			C91.76,8.026,78.132,2.056,59.381,2.056c-18.566,0-32.664,5.3-41.902,15.752C6.591,30.129,5.794,46.255,6.373,50.933
			C7.657,61.298,11.41,69.935,18.54,78.935c7.671,9.683,8.198,20.327,4.798,25.426l-3,4.5l-1.664-1.109l3-4.5
			c4.28-6.42-0.173-17.358-4.702-23.074C9.601,70.872,5.72,61.929,4.389,51.179C3.736,45.915,4.548,29.42,15.981,16.484
			c9.634-10.901,24.236-16.428,43.4-16.428c19.448,0,33.629,6.261,42.151,18.607c9.393,13.609,8.445,30.468,7.534,32.872
			c-1.832,4.828-1.594,6.47-1.477,6.858c0.321,1.072,4.814,9.891,8.629,15.741c1.292,1.981,1.574,3.674,0.838,5.032
			c-1.244,2.296-4.952,2.639-7.051,2.639c-0.546,0-0.687,0.195-0.74,0.269c-0.259,0.359-0.345,1.313,0.188,2.915
			c0.935,2.806,0.731,3.515-0.089,4.828c-0.348,0.558-0.826,1.034-1.25,1.391c0.326,0.507,0.523,1.094,0.581,1.739
			c0.118,1.325-0.378,2.738-1.326,3.781c-0.643,0.707-2.74,3.739-2.74,13.077c0,2.668-1.092,4.763-3.158,6.058
			c-4.411,2.766-12.028,1.28-16.028-0.657c-4.061-1.967-6.306-1.893-7.476-1.48c-0.984,0.345-1.287,0.96-1.299,0.986L62.389,141.526
			z"/>
	</g>
	<g>
		<g>
			<path style="fill:#C4C4C4;" d="M73.573,95.991c-6.374,0-11.559-5.186-11.559-11.56s5.186-11.56,11.559-11.56
				c6.374,0,11.56,5.186,11.56,11.56S79.947,95.991,73.573,95.991z M73.573,74.872c-5.271,0-9.559,4.289-9.559,9.56
				s4.288,9.56,9.559,9.56s9.56-4.289,9.56-9.56S78.844,74.872,73.573,74.872z"/>
		</g>
		<g>
			<rect x="72.573" y="71.232" style="fill:#C4C4C4;" width="2" height="2.64"/>
		</g>
		<g>
			<rect x="72.573" y="94.991" style="fill:#C4C4C4;" width="2" height="2.64"/>
		</g>
		<g>
			<rect x="60.375" y="83.431" style="fill:#C4C4C4;" width="2.64" height="2"/>
		</g>
		<g>
			<rect x="84.133" y="83.431" style="fill:#C4C4C4;" width="2.64" height="2"/>
		</g>
		<g>
			
				<rect x="80.973" y="74.711" transform="matrix(0.7071 0.7071 -0.7071 0.7071 77.7717 -35.6949)" style="fill:#C4C4C4;" width="2" height="2.64"/>
		</g>
		<g>
			
				<rect x="64.174" y="91.511" transform="matrix(0.7071 0.7071 -0.7071 0.7071 84.7304 -18.8951)" style="fill:#C4C4C4;" width="2" height="2.64"/>
		</g>
		<g>
			
				<rect x="63.854" y="75.031" transform="matrix(0.7072 0.707 -0.707 0.7072 72.8381 -23.8166)" style="fill:#C4C4C4;" width="2.64" height="2"/>
		</g>
		<g>
			
				<rect x="80.654" y="91.831" transform="matrix(0.7072 0.707 -0.707 0.7072 89.6348 -30.7754)" style="fill:#C4C4C4;" width="2.64" height="2"/>
		</g>
	</g>
	<g>
		<path style="fill:#EFD32E;" d="M70.532,44.276v-4H66.81c-0.427-5.263-2.52-10.06-5.753-13.864l2.639-2.638l-2.828-2.828
			l-2.639,2.638c-3.804-3.233-8.601-5.325-13.864-5.752v-3.722h-4v3.722c-5.263,0.427-10.06,2.519-13.864,5.752l-2.639-2.639
			l-2.828,2.829l2.639,2.638c-3.233,3.804-5.326,8.602-5.753,13.864h-3.722v4h3.722c0.427,5.264,2.52,10.061,5.753,13.864
			l-2.639,2.639l2.828,2.828l2.639-2.639c3.804,3.232,8.601,5.325,13.864,5.752v3.722h4V66.72c5.263-0.427,10.061-2.52,13.864-5.752
			l2.639,2.639l2.828-2.828l-2.639-2.639c3.233-3.804,5.326-8.601,5.753-13.864H70.532z M42.365,62.809
			c-11.322,0-20.533-9.211-20.533-20.533c0-11.322,9.211-20.533,20.533-20.533s20.534,9.211,20.534,20.533
			C62.898,53.598,53.687,62.809,42.365,62.809z"/>
	</g>
	<g>
		<path d="M4,137.556c-2.206,0-4-1.794-4-4s1.794-4,4-4s4,1.794,4,4S6.206,137.556,4,137.556z M4,131.556c-1.103,0-2,0.897-2,2
			s0.897,2,2,2s2-0.897,2-2S5.103,131.556,4,131.556z"/>
	</g>
	<g>
		<path d="M4,125.056c-2.206,0-4-1.794-4-4s1.794-4,4-4s4,1.794,4,4S6.206,125.056,4,125.056z M4,119.056c-1.103,0-2,0.897-2,2
			s0.897,2,2,2s2-0.897,2-2S5.103,119.056,4,119.056z"/>
	</g>
	<g>
		<path d="M4,110.056c-2.206,0-4-1.794-4-4s1.794-4,4-4s4,1.794,4,4S6.206,110.056,4,110.056z M4,104.056c-1.103,0-2,0.897-2,2
			s0.897,2,2,2s2-0.897,2-2S5.103,104.056,4,104.056z"/>
	</g>
	<g>
		<path d="M117.844,12.056c-2.206,0-4-1.794-4-4s1.794-4,4-4s4,1.794,4,4S120.049,12.056,117.844,12.056z M117.844,6.056
			c-1.103,0-2,0.897-2,2s0.897,2,2,2s2-0.897,2-2S118.947,6.056,117.844,6.056z"/>
	</g>
	<g>
		<path d="M117.844,25.056c-2.206,0-4-1.794-4-4s1.794-4,4-4s4,1.794,4,4S120.049,25.056,117.844,25.056z M117.844,19.056
			c-1.103,0-2,0.897-2,2s0.897,2,2,2s2-0.897,2-2S118.947,19.056,117.844,19.056z"/>
	</g>
	<g>
		<path d="M117.844,40.056c-2.206,0-4-1.794-4-4s1.794-4,4-4s4,1.794,4,4S120.049,40.056,117.844,40.056z M117.844,34.056
			c-1.103,0-2,0.897-2,2s0.897,2,2,2s2-0.897,2-2S118.947,34.056,117.844,34.056z"/>
	</g>
	<g>
		<path d="M42.365,52.056c-5.393,0-9.78-4.387-9.78-9.78s4.387-9.78,9.78-9.78s9.781,4.387,9.781,9.78S47.758,52.056,42.365,52.056z
			 M42.365,34.496c-4.29,0-7.78,3.49-7.78,7.78s3.49,7.78,7.78,7.78c4.291,0,7.781-3.49,7.781-7.78S46.655,34.496,42.365,34.496z"/>
	</g>
	<g>
		<circle style="fill:#EFD32E;" cx="42.365" cy="42.276" r="4.614"/>
	</g>
</g>
</svg>
