<?xml version="1.0" encoding="UTF-8"?>
<svg width="77px" height="38px" viewBox="0 0 77 38" version="1.1" xmlns="http://www.w3.org/2000/svg" xmlns:xlink="http://www.w3.org/1999/xlink">
    <defs></defs>
    <g id="Page-1" stroke="none" stroke-width="1" fill="none" fill-rule="evenodd">
        <g id="Landing-Copy-4" transform="translate(-434.000000, -700.000000)">
            <g id="Group-5" transform="translate(240.000000, 652.000000)">
                <g id="btn-illustration" transform="translate(194.000000, 48.000000)">
                    <rect id="Rectangle" fill-opacity="0.7" fill="#BFA9F2" x="4.2" y="4.22222222" width="72.8" height="33.7777778" rx="1.69230766"></rect>
                    <rect id="Rectangle-Copy" stroke="#6032C3" stroke-width="1.39999998" x="0.699999988" y="0.699999988" width="73.0615385" height="32.639621" rx="1.69230766"></rect>
                    <path d="M21.5702527,22.5071726 L21.5702527,14.5446728 L24.3593151,14.5446728 C25.3254658,14.5446728 26.0582709,14.729697 26.5577526,15.0997509 C27.0572342,15.4698048 27.3069713,16.0121171 27.3069713,16.726704 C27.3069713,17.1168101 27.2067119,17.4604264 27.0061901,17.7575633 C26.8056683,18.0547002 26.5267648,18.2725366 26.1694713,18.4110789 C26.5778067,18.5131628 26.8995483,18.7191503 27.1347057,19.0290477 C27.3698631,19.3389451 27.4874401,19.7181079 27.4874401,20.1665477 C27.4874401,20.9321765 27.2431717,21.5118582 26.7546276,21.9056101 C26.2660835,22.2993621 25.5697363,22.4998809 24.6655651,22.5071726 L21.5702527,22.5071726 Z M23.2108776,19.0399852 L23.2108776,21.1892039 L24.6163464,21.1892039 C25.0028066,21.1892039 25.3044963,21.0971475 25.5214245,20.913032 C25.7383526,20.7289165 25.8468151,20.4746222 25.8468151,20.1501414 C25.8468151,19.4209711 25.4694751,19.0509227 24.7147839,19.0399852 L23.2108776,19.0399852 Z M23.2108776,17.8806102 L24.4249401,17.8806102 C25.2525484,17.8660268 25.6663464,17.5360822 25.6663464,16.8907665 C25.6663464,16.5298272 25.5615297,16.2700642 25.3518932,16.1114696 C25.1422568,15.9528751 24.8114007,15.873579 24.3593151,15.873579 L23.2108776,15.873579 L23.2108776,17.8806102 Z M32.1577525,21.9056101 C31.7676464,22.3795708 31.2280685,22.6165476 30.5390025,22.6165476 C29.9046244,22.6165476 29.4206448,22.4342578 29.0870494,22.0696726 C28.753454,21.7050875 28.583013,21.1709783 28.5757213,20.4673289 L28.5757213,16.5899852 L30.15619,16.5899852 L30.15619,20.4126414 C30.15619,21.0287903 30.4369164,21.3368601 30.9983775,21.3368601 C31.5343177,21.3368601 31.9025432,21.1509245 32.103065,20.7790477 L32.103065,16.5899852 L33.6890025,16.5899852 L33.6890025,22.5071726 L32.2015025,22.5071726 L32.1577525,21.9056101 Z M36.7733774,15.1352978 L36.7733774,16.5899852 L37.7850962,16.5899852 L37.7850962,17.7493602 L36.7733774,17.7493602 L36.7733774,20.7024852 C36.7733774,20.9212362 36.8153041,21.0780055 36.8991587,21.1727977 C36.9830133,21.2675898 37.1434283,21.3149851 37.3804087,21.3149851 C37.5554095,21.3149851 37.7103559,21.3022249 37.8452524,21.2767039 L37.8452524,22.4743601 C37.535355,22.5691523 37.2163478,22.6165476 36.8882212,22.6165476 C35.7798823,22.6165476 35.2147838,22.0569178 35.1929087,20.9376414 L35.1929087,17.7493602 L34.3288462,17.7493602 L34.3288462,16.5899852 L35.1929087,16.5899852 L35.1929087,15.1352978 L36.7733774,15.1352978 Z M40.5577524,15.1352978 L40.5577524,16.5899852 L41.5694711,16.5899852 L41.5694711,17.7493602 L40.5577524,17.7493602 L40.5577524,20.7024852 C40.5577524,20.9212362 40.599679,21.0780055 40.6835336,21.1727977 C40.7673882,21.2675898 40.9278032,21.3149851 41.1647836,21.3149851 C41.3397845,21.3149851 41.4947308,21.3022249 41.6296273,21.2767039 L41.6296273,22.4743601 C41.31973,22.5691523 41.0007227,22.6165476 40.6725961,22.6165476 C39.5642572,22.6165476 38.9991587,22.0569178 38.9772836,20.9376414 L38.9772836,17.7493602 L38.1132211,17.7493602 L38.1132211,16.5899852 L38.9772836,16.5899852 L38.9772836,15.1352978 L40.5577524,15.1352978 Z M42.2038461,19.4938914 C42.2038461,18.9069093 42.3168658,18.3837375 42.5429086,17.9243602 C42.7689514,17.4649829 43.0943387,17.1095177 43.5190804,16.857954 C43.9438221,16.6063902 44.4369161,16.4806102 44.9983773,16.4806102 C45.7968188,16.4806102 46.4485049,16.7248786 46.9534554,17.2134227 C47.4584058,17.7019668 47.7400436,18.3655018 47.7983772,19.2040477 L47.8093147,19.6087352 C47.8093147,20.5165522 47.5559319,21.2448001 47.0491585,21.7935008 C46.5423851,22.3422014 45.862444,22.6165476 45.0093148,22.6165476 C44.1561855,22.6165476 43.475333,22.3431129 42.9667367,21.7962351 C42.4581404,21.2493574 42.2038461,20.5056149 42.2038461,19.5649852 L42.2038461,19.4938914 Z M43.7843148,19.6087352 C43.7843148,20.1701963 43.8900429,20.5994889 44.1015023,20.8966258 C44.3129617,21.1937627 44.6155628,21.3423289 45.0093148,21.3423289 C45.3921292,21.3423289 45.6910845,21.1955856 45.9061898,20.9020945 C46.121295,20.6086035 46.228846,20.1392071 46.228846,19.4938914 C46.228846,18.9433679 46.121295,18.5168096 45.9061898,18.214204 C45.6910845,17.9115983 45.3884834,17.7602977 44.9983773,17.7602977 C44.611917,17.7602977 44.3129617,17.9106868 44.1015023,18.2114696 C43.8900429,18.5122523 43.7843148,18.9780029 43.7843148,19.6087352 Z M50.2374397,16.5899852 L50.2866584,17.273579 C50.7095772,16.7449305 51.2764986,16.4806102 51.9874397,16.4806102 C52.6145261,16.4806102 53.0811881,16.664723 53.3874396,17.032954 C53.6936912,17.401185 53.8504604,17.9517003 53.8577521,18.6845164 L53.8577521,22.5071726 L52.2772834,22.5071726 L52.2772834,18.7227977 C52.2772834,18.3873794 52.2043675,18.1440224 52.0585334,17.9927196 C51.9126993,17.8414167 51.6702539,17.7657665 51.3311897,17.7657665 C50.8863958,17.7657665 50.5528054,17.9553479 50.3304084,18.3345164 L50.3304084,22.5071726 L48.7499397,22.5071726 L48.7499397,16.5899852 L50.2374397,16.5899852 Z" id="Button" fill="#6032C3"></path>
                </g>
            </g>
        </g>
    </g>
</svg>