<?xml version="1.0" encoding="iso-8859-1"?>
<!-- Generator: Adobe Illustrator 17.0.0, SVG Export Plug-In . SVG Version: 6.00 Build 0)  -->
<!DOCTYPE svg PUBLIC "-//W3C//DTD SVG 1.1//EN" "http://www.w3.org/Graphics/SVG/1.1/DTD/svg11.dtd">
<svg version="1.1" id="clients" xmlns="http://www.w3.org/2000/svg" xmlns:xlink="http://www.w3.org/1999/xlink" x="0px" y="0px"
	 width="120px" height="141px" viewBox="0 0 120 141" style="enable-background:new 0 0 120 141;" xml:space="preserve">
<g id="clients_1_">
	<g>
		<g>
			<path style="fill:#C4C4C4;" d="M40,51c0-10-10-10-10-10H10c0,0-10,0-10-10s10-10,10-10h30h10c20,0,20,20,20,20v75c0,0,0,5-5,5
				s-25,0-25,0V51z"/>
		</g>
		<g>
			<path style="fill:#C4C4C4;" d="M50,71"/>
		</g>
		<g>
			<path d="M14.556,92.047c-1.019,0-1.614-0.048-1.647-0.051l-0.782-0.071l-3.046-20.31l-5.336-3.202L9,55.8V41h2v15.2L6.256,67.587
				l4.664,2.798l2.948,19.656c3.55,0.098,18.352-0.29,27.324-12.628l1.617,1.177C33.823,90.946,19.402,92.047,14.556,92.047z"/>
		</g>
		<g>
			<polygon points="11.996,139.296 10.321,138.204 28.924,109.694 24.03,90.118 25.97,89.632 31.076,110.056 			"/>
		</g>
		<g>
			<path d="M29.152,54.197C27.795,52.025,25.028,52,25,52h-9.211v-2H25c0.159,0,3.91,0.036,5.848,3.137L29.152,54.197z"/>
		</g>
		<g>
			<path d="M22.166,62.162c-1.364,0-2.271-0.164-2.35-0.179L19,61.83V57h2v3.112c1.304,0.104,3.972,0.123,6.6-1.028l0.802,1.832
				C26.093,61.926,23.801,62.162,22.166,62.162z"/>
		</g>
		<g>
			<path d="M11.648,79.739c-0.337,0-0.539-0.015-0.571-0.018l0.162-1.994c0.031,0.002,3.133,0.218,6.564-1.497l0.895,1.789
				C15.626,79.555,12.819,79.739,11.648,79.739z"/>
		</g>
		<g>
			<path style="fill:#4B8DC9;" d="M50,111c0,0-10,0-10,10s0,10,0,10s0,5-5,5s-15,0-15,0s-5,0-5-5l-8.875,10H60v-20L50,111z"/>
		</g>
	</g>
	<g>
		<rect x="59.667" y="39" style="fill:#FFFFFF;" width="13.333" height="25.667"/>
	</g>
	<g>
		<g>
			<g>
				<polygon style="fill:#2D71BB;" points="70,91 45,121 45,141 105,141 101.333,103.666 				"/>
			</g>
			<g>
				<path style="fill:#4B8DC9;" d="M80,11h30c0,0,10,0,10,10s-10,10-10,10H90c0,0-10,0-10,10s0,20,0,20h-5V46c0,0,0-5-5-5
					c-5.001,0-10,0-10,10s10,10,10,10v10c0,0-20,0.584-20-20s0-20,0-20s0-20,20-20H80z"/>
			</g>
			<g>
				<path d="M104.825,85.067c-5.88,0-21.71-1.207-30.633-13.477l1.617-1.177c9.056,12.453,26.37,12.734,30.309,12.625L109.122,60
					h4.491L109,46.162V31h2v14.838L116.387,62h-5.509l-2.991,22.934l-0.809,0.063C106.918,85.009,106.108,85.067,104.825,85.067z"/>
			</g>
			<g>
				<rect x="69" y="61" width="2" height="25.864"/>
			</g>
			<g>
				<rect x="99" y="84.5" width="2" height="16.5"/>
			</g>
			<g>
				<polygon style="fill:#E4E5E7;" points="102.422,100 68.588,85 62,97.103 102.422,117 				"/>
			</g>
			<g>
				<polygon style="fill:#4B8DC9;" points="102.422,104.5 105.999,111 105.499,121 103.036,121 102.422,117 				"/>
			</g>
			<g>
				<polygon style="fill:#4B8DC9;" points="103.036,121 103.036,141 110,141 105.499,121 				"/>
			</g>
		</g>
		<g>
			<path d="M107.322,71.807c-1.606,0-4.339-0.341-6.503-2.35l1.36-1.466c2.477,2.299,6.134,1.755,6.171,1.752l0.318,1.974
				C108.608,71.728,108.096,71.807,107.322,71.807z"/>
		</g>
		<g>
			<path d="M90.848,44.197l-1.696-1.061C91.091,40.036,94.841,40,95,40h9.211v2H95C94.977,42,92.191,42.049,90.848,44.197z"/>
		</g>
		<g>
			<path d="M97.834,52.162c-1.635,0-3.927-0.235-6.235-1.246l0.802-1.832c2.628,1.149,5.296,1.131,6.6,1.028V47h2v4.83l-0.816,0.153
				C100.105,51.998,99.197,52.162,97.834,52.162z"/>
		</g>
	</g>
	<g>
		<rect x="85" y="120" width="35" height="2"/>
	</g>
	<g>
		<rect x="85" y="125" width="35" height="2"/>
	</g>
	<g>
		<rect x="85" y="130" width="35" height="2"/>
	</g>
	<g>
		<rect x="85" y="135" width="20" height="2"/>
	</g>
	<g>
		<g>
			<path d="M55.07,32c-8.784,0-15.93-7.178-15.93-16S46.286,0,55.07,0S71,7.178,71,16S63.854,32,55.07,32z M55.07,2
				c-7.681,0-13.93,6.28-13.93,14s6.249,14,13.93,14S69,23.72,69,16S62.751,2,55.07,2z"/>
		</g>
		<g>
			<path d="M55.07,18.438c-3.002,0-5.444-3.014-5.444-6.719C49.626,8.014,52.068,5,55.07,5s5.444,3.014,5.444,6.719
				C60.514,15.424,58.072,18.438,55.07,18.438z M55.07,7c-1.899,0-3.444,2.117-3.444,4.719s1.545,4.719,3.444,4.719
				s3.444-2.117,3.444-4.719S56.969,7,55.07,7z"/>
		</g>
		<g>
			<polygon points="47.441,28.71 45.486,28.29 47.223,20.217 51.478,19.405 51.478,16.125 53.478,16.125 53.478,21.06 48.9,21.933 
							"/>
		</g>
		<g>
			<polygon points="62.699,28.71 61.241,21.933 56.662,21.06 56.662,16.125 58.662,16.125 58.662,19.405 62.918,20.217 
				64.654,28.29 			"/>
		</g>
	</g>
	<g>
		<g>
			<path d="M25,29c-4.411,0-8-3.589-8-8s3.589-8,8-8s8,3.589,8,8S29.411,29,25,29z M25,15c-3.309,0-6,2.691-6,6s2.691,6,6,6
				s6-2.691,6-6S28.308,15,25,15z"/>
		</g>
		<g>
			<path d="M85,19c-4.411,0-8-3.589-8-8s3.589-8,8-8s8,3.589,8,8S89.411,19,85,19z M85,5c-3.309,0-6,2.691-6,6s2.691,6,6,6
				s6-2.691,6-6S88.309,5,85,5z"/>
		</g>
		<g>
			<rect x="24" y="17.675" width="2" height="6.65"/>
		</g>
		<g>
			<rect x="21.674" y="20" width="6.65" height="2"/>
		</g>
		<g>
			<polygon points="84.333,14.716 81.043,11.426 82.457,10.012 84.167,11.722 87.469,7.594 89.031,8.843 			"/>
		</g>
	</g>
	<g>
		<g>
			<rect x="0" y="105" style="fill:#C4C4C4;" width="20" height="2"/>
		</g>
		<g>
			<rect x="0" y="110" style="fill:#C4C4C4;" width="20" height="2"/>
		</g>
		<g>
			<rect x="0" y="115" style="fill:#C4C4C4;" width="20" height="2"/>
		</g>
		<g>
			<rect x="0" y="120" style="fill:#C4C4C4;" width="6.125" height="2"/>
		</g>
	</g>
</g>
</svg>
