<?xml version="1.0" encoding="iso-8859-1"?>
<!-- Generator: Adobe Illustrator 17.0.0, SVG Export Plug-In . SVG Version: 6.00 Build 0)  -->
<!DOCTYPE svg PUBLIC "-//W3C//DTD SVG 1.1//EN" "http://www.w3.org/Graphics/SVG/1.1/DTD/svg11.dtd">
<svg version="1.1" id="company_structure" xmlns="http://www.w3.org/2000/svg" xmlns:xlink="http://www.w3.org/1999/xlink" x="0px"
	 y="0px" width="121.916px" height="141px" viewBox="0 0 121.916 141" style="enable-background:new 0 0 121.916 141;"
	 xml:space="preserve">
<g id="company_structure_1_">
	<g>
		<polygon style="fill:#E4E5E7;" points="1.014,110.736 18.486,100.648 35.959,110.736 35.959,130.912 18.486,141 1.014,130.912 		
			"/>
	</g>
	<g>
		<polygon style="fill:#E4E5E7;" points="43.485,110.736 60.958,100.648 78.431,110.736 78.431,130.912 60.958,141 43.485,130.912 
					"/>
	</g>
	<g>
		<polygon style="fill:#1FCCE8;" points="37.067,31.794 60.958,18 84.85,31.794 84.85,59.382 60.958,73.176 37.067,59.382 		"/>
	</g>
	<g>
		<polygon style="fill:#C4C4C4;" points="22.25,76.412 39.723,66.324 57.195,76.412 57.195,96.588 39.723,106.676 22.25,96.588 		
			"/>
	</g>
	<g>
		<polygon style="fill:#C4C4C4;" points="64.722,76.412 82.194,66.324 99.667,76.412 99.667,96.588 82.194,106.676 64.722,96.588 		
			"/>
	</g>
	<g>
		<polygon style="fill:#E4E5E7;" points="86.013,110.736 103.485,100.648 120.958,110.736 120.958,130.912 103.485,141 
			86.013,130.912 		"/>
	</g>
	<g>
		<g>
			<path d="M60.958,25.816c-7.117,0-12.908-5.791-12.908-12.908S53.841,0,60.958,0s12.908,5.791,12.908,12.908
				S68.075,25.816,60.958,25.816z M60.958,2C54.943,2,50.05,6.894,50.05,12.908s4.894,10.908,10.908,10.908
				s10.908-4.894,10.908-10.908S66.973,2,60.958,2z"/>
		</g>
		<g>
			<polygon points="86.908,51.287 82.786,37.547 60.958,31.804 39.13,37.547 35.008,51.287 33.092,50.713 37.536,35.898 
				60.958,29.735 84.38,35.898 88.824,50.713 			"/>
		</g>
	</g>
	<g>
		<g>
			<path d="M28.264,73.304c-5.24,0-9.503-4.264-9.503-9.504s4.263-9.503,9.503-9.503s9.504,4.263,9.504,9.503
				S33.504,73.304,28.264,73.304z M28.264,56.297c-4.137,0-7.503,3.366-7.503,7.503c0,4.138,3.366,7.504,7.503,7.504
				c4.138,0,7.504-3.366,7.504-7.504C35.768,59.663,32.401,56.297,28.264,56.297z"/>
		</g>
		<g>
			<polygon points="46.521,91.287 43.623,81.629 28.264,77.589 12.905,81.629 10.008,91.287 8.092,90.713 11.312,79.98 
				28.264,75.521 45.217,79.98 48.437,90.713 			"/>
		</g>
	</g>
	<g>
		<g>
			<path d="M15.897,104.224c-4.197,0-7.611-3.415-7.611-7.612S11.7,89,15.897,89s7.612,3.414,7.612,7.611
				S20.095,104.224,15.897,104.224z M15.897,91c-3.094,0-5.611,2.518-5.611,5.611c0,3.095,2.518,5.612,5.611,5.612
				c3.095,0,5.612-2.518,5.612-5.612C21.51,93.518,18.992,91,15.897,91z"/>
		</g>
		<g>
			<polygon points="29.881,118.048 27.663,110.658 15.897,107.563 4.133,110.658 1.916,118.048 0,117.474 2.539,109.01 
				15.897,105.495 29.257,109.01 31.797,117.474 			"/>
		</g>
	</g>
	<g>
		<g>
			<path d="M46.039,104.224c-4.197,0-7.611-3.415-7.611-7.612S41.842,89,46.039,89s7.612,3.414,7.612,7.611
				S50.236,104.224,46.039,104.224z M46.039,91c-3.094,0-5.611,2.518-5.611,5.611c0,3.095,2.518,5.612,5.611,5.612
				c3.095,0,5.612-2.518,5.612-5.612C51.651,93.518,49.134,91,46.039,91z"/>
		</g>
		<g>
			<polygon points="60.022,118.048 57.805,110.658 46.039,107.563 34.274,110.658 32.058,118.048 30.142,117.474 32.681,109.01 
				46.039,105.495 59.398,109.01 61.938,117.474 			"/>
		</g>
	</g>
	<g>
		<g>
			<path d="M76.137,104.224c-4.197,0-7.611-3.415-7.611-7.612S71.939,89,76.137,89s7.612,3.414,7.612,7.611
				S80.334,104.224,76.137,104.224z M76.137,91c-3.094,0-5.611,2.518-5.611,5.611c0,3.095,2.518,5.612,5.611,5.612
				c3.095,0,5.612-2.518,5.612-5.612C81.749,93.518,79.231,91,76.137,91z"/>
		</g>
		<g>
			<polygon points="90.119,118.048 87.902,110.658 76.137,107.563 64.372,110.658 62.155,118.048 60.239,117.474 62.778,109.01 
				76.137,105.495 89.496,109.01 92.035,117.474 			"/>
		</g>
	</g>
	<g>
		<g>
			<path d="M106.018,104.224c-4.197,0-7.611-3.415-7.611-7.612S101.82,89,106.018,89s7.612,3.414,7.612,7.611
				S110.215,104.224,106.018,104.224z M106.018,91c-3.094,0-5.611,2.518-5.611,5.611c0,3.095,2.518,5.612,5.611,5.612
				c3.095,0,5.612-2.518,5.612-5.612C111.63,93.518,109.112,91,106.018,91z"/>
		</g>
		<g>
			<polygon points="92.035,118.048 90.119,117.474 92.659,109.01 106.018,105.495 119.377,109.01 121.916,117.474 120,118.048 
				117.783,110.658 106.018,107.563 94.253,110.658 			"/>
		</g>
	</g>
	<g>
		<g>
			<path d="M92.08,73.304c-5.24,0-9.503-4.264-9.503-9.504s4.263-9.503,9.503-9.503s9.504,4.263,9.504,9.503
				S97.32,73.304,92.08,73.304z M92.08,56.297c-4.137,0-7.503,3.366-7.503,7.503c0,4.138,3.366,7.504,7.503,7.504
				c4.138,0,7.504-3.366,7.504-7.504C99.584,59.663,96.218,56.297,92.08,56.297z"/>
		</g>
		<g>
			<polygon points="110.337,91.287 107.439,81.629 92.08,77.589 76.722,81.629 73.824,91.287 71.908,90.713 75.128,79.98 
				92.08,75.521 109.033,79.98 112.253,90.713 			"/>
		</g>
	</g>
	<g>
		<g>
			<path d="M60.957,62.446c-5.24,0-9.503-4.264-9.503-9.504s4.263-9.503,9.503-9.503s9.504,4.263,9.504,9.503
				S66.197,62.446,60.957,62.446z M60.957,45.439c-4.137,0-7.503,3.366-7.503,7.503c0,4.138,3.366,7.504,7.503,7.504
				c4.138,0,7.504-3.366,7.504-7.504C68.461,48.806,65.095,45.439,60.957,45.439z"/>
		</g>
		<g>
			<polygon points="79.214,80.43 76.316,70.771 60.957,66.731 45.599,70.771 42.701,80.43 40.785,79.855 44.005,69.123 
				60.957,64.663 77.91,69.123 81.13,79.855 			"/>
		</g>
	</g>
	<g>
		<polygon points="107.019,132 14.897,132 14.897,121 16.897,121 16.897,130 105.019,130 105.019,121 107.019,121 		"/>
	</g>
	<g>
		<rect x="44.958" y="120.824" width="2" height="10.176"/>
	</g>
	<g>
		<rect x="75.138" y="120.824" width="2" height="10.176"/>
	</g>
	<g>
		<path d="M15.897,122c-1.861,0-3.375-1.514-3.375-3.375s1.514-3.375,3.375-3.375s3.375,1.514,3.375,3.375S17.759,122,15.897,122z
			 M15.897,117.25c-0.758,0-1.375,0.617-1.375,1.375S15.14,120,15.897,120s1.375-0.617,1.375-1.375S16.655,117.25,15.897,117.25z"/>
	</g>
	<g>
		<path d="M45.958,122c-1.861,0-3.375-1.514-3.375-3.375s1.514-3.375,3.375-3.375s3.375,1.514,3.375,3.375S47.819,122,45.958,122z
			 M45.958,117.25c-0.758,0-1.375,0.617-1.375,1.375S45.2,120,45.958,120s1.375-0.617,1.375-1.375S46.716,117.25,45.958,117.25z"/>
	</g>
	<g>
		<path d="M76.138,122c-1.861,0-3.375-1.514-3.375-3.375s1.514-3.375,3.375-3.375s3.375,1.514,3.375,3.375S77.999,122,76.138,122z
			 M76.138,117.25c-0.758,0-1.375,0.617-1.375,1.375S75.38,120,76.138,120s1.375-0.617,1.375-1.375S76.896,117.25,76.138,117.25z"/>
	</g>
	<g>
		<path d="M105.958,122c-1.861,0-3.375-1.514-3.375-3.375s1.514-3.375,3.375-3.375s3.375,1.514,3.375,3.375S107.819,122,105.958,122
			z M105.958,117.25c-0.758,0-1.375,0.617-1.375,1.375S105.2,120,105.958,120s1.375-0.617,1.375-1.375
			S106.716,117.25,105.958,117.25z"/>
	</g>
</g>
</svg>
