<?xml version="1.0" encoding="iso-8859-1"?>
<!-- Generator: Adobe Illustrator 17.0.0, SVG Export Plug-In . SVG Version: 6.00 Build 0)  -->
<!DOCTYPE svg PUBLIC "-//W3C//DTD SVG 1.1//EN" "http://www.w3.org/Graphics/SVG/1.1/DTD/svg11.dtd">
<svg version="1.1" id="conflicting" xmlns="http://www.w3.org/2000/svg" xmlns:xlink="http://www.w3.org/1999/xlink" x="0px"
	 y="0px" width="121.002px" height="140.93px" viewBox="0 0 121.002 140.93" style="enable-background:new 0 0 121.002 140.93;"
	 xml:space="preserve">
<g id="conflicting_1_">
	<g>
		<path style="fill:#E4E5E7;" d="M47.043,140.93l-12.2-22.902c0,0-1.453-3.495-8.669,0c-4.919,2.383-15.196,3.425-15.196-3.853
			c0-7.277-1.499-10.595-2.568-11.772c-1.07-1.177-1.391-3.21,0-4.281c0,0-1.07-0.642-1.605-1.498c-0.535-0.856-0.749-1.177,0-3.424
			c0.749-2.248,0.428-3.853-1.284-3.853c-1.712,0-7.812-0.321-4.602-5.244c3.21-4.923,7.17-12.628,7.491-13.698
			c0.321-1.07-0.107-3.317-1.284-6.421C5.949,60.881,4.022,21.07,48.863,21.07c44.84,0,47.084,35.925,46.231,42.807
			c-1.061,8.561-4.067,16.16-10.595,24.4c-6.528,8.24-7.231,15.815-4.663,19.667"/>
	</g>
	<g>
		<circle style="fill:#FFFFFF;" cx="60" cy="69.925" r="23.575"/>
	</g>
	<g>
		<polygon style="fill:#EFD32E;" points="66.521,52.462 53.48,52.462 50.219,72.024 58.37,72.024 58.37,89.14 69.781,65.503 
			61.63,65.503 		"/>
	</g>
	<g>
		<circle style="fill:#E2C120;" cx="85" cy="121" r="15"/>
	</g>
	<g>
		<circle style="fill:#E4E5E7;" cx="105" cy="16" r="15"/>
	</g>
	<g>
		<path style="fill:#EFD32E;" d="M58.51,116.976c-0.685-0.022-1.366-0.059-2.043-0.11l0.15-1.994
			c0.648,0.049,1.301,0.084,1.958,0.105L58.51,116.976z M62.605,116.927l-0.11-1.997c0.655-0.036,1.306-0.087,1.953-0.152l0.2,1.99
			C63.971,116.836,63.291,116.889,62.605,116.927z M52.4,116.375c-0.676-0.112-1.347-0.239-2.013-0.381l0.416-1.956
			c0.637,0.135,1.278,0.257,1.925,0.365L52.4,116.375z M68.702,116.178l-0.378-1.964c0.644-0.124,1.283-0.261,1.917-0.412
			l0.463,1.945C70.041,115.905,69.374,116.049,68.702,116.178z M46.423,114.963c-0.656-0.202-1.306-0.419-1.949-0.649l0.675-1.883
			c0.615,0.221,1.236,0.428,1.863,0.621L46.423,114.963z M74.643,114.62l-0.638-1.896c0.621-0.209,1.235-0.43,1.844-0.665
			l0.721,1.865C75.934,114.17,75.291,114.402,74.643,114.62z M40.682,112.759c-0.622-0.288-1.236-0.589-1.842-0.904l0.921-1.775
			c0.58,0.301,1.167,0.589,1.762,0.865L40.682,112.759z M80.321,112.28l-0.886-1.793c0.586-0.29,1.164-0.591,1.735-0.905
			l0.964,1.753C81.537,111.663,80.933,111.978,80.321,112.28z M35.291,109.807c-0.577-0.368-1.146-0.749-1.704-1.142l1.15-1.636
			c0.534,0.375,1.077,0.739,1.629,1.091L35.291,109.807z M85.631,109.204l-1.116-1.66c0.542-0.364,1.075-0.74,1.6-1.128l1.188,1.608
			C86.755,108.429,86.198,108.823,85.631,109.204z M30.343,106.165c-0.522-0.441-1.034-0.893-1.536-1.356l1.356-1.47
			c0.48,0.443,0.97,0.876,1.469,1.297L30.343,106.165z M90.488,105.447l-1.327-1.496c0.489-0.434,0.968-0.878,1.438-1.332
			l1.391,1.438C91.5,104.531,90.999,104.995,90.488,105.447z M25.923,101.899c-0.459-0.506-0.907-1.021-1.342-1.547l1.54-1.275
			c0.417,0.502,0.845,0.996,1.283,1.479L25.923,101.899z M94.805,101.079l-1.514-1.308c0.427-0.494,0.844-0.998,1.25-1.511
			l1.569,1.24C95.686,100.036,95.25,100.562,94.805,101.079z M22.107,97.088c-0.387-0.561-0.762-1.131-1.124-1.709l1.695-1.062
			c0.347,0.553,0.705,1.099,1.075,1.635L22.107,97.088z M98.504,96.176l-1.673-1.096c0.358-0.547,0.704-1.102,1.039-1.665
			l1.72,1.021C99.241,95.025,98.879,95.605,98.504,96.176z M18.967,91.813c-0.309-0.606-0.604-1.221-0.886-1.843l1.822-0.825
			c0.269,0.595,0.551,1.182,0.846,1.762L18.967,91.813z M101.522,90.823l-1.805-0.862c0.282-0.589,0.551-1.187,0.807-1.79
			l1.841,0.781C102.098,89.583,101.816,90.206,101.522,90.823z M16.56,86.168c-0.225-0.643-0.435-1.293-0.632-1.948l1.916-0.575
			c0.188,0.627,0.39,1.249,0.604,1.864L16.56,86.168z M103.795,85.11l-1.903-0.613c0.199-0.62,0.385-1.246,0.558-1.877l1.93,0.526
			C104.199,83.807,104.004,84.462,103.795,85.11z M14.93,80.247c-0.136-0.667-0.258-1.339-0.364-2.017l1.976-0.311
			c0.102,0.647,0.218,1.29,0.349,1.927L14.93,80.247z M105.28,79.151l-1.969-0.353c0.115-0.641,0.215-1.286,0.302-1.936l1.982,0.264
			C105.505,77.806,105.399,78.481,105.28,79.151z M14.107,74.161c-0.046-0.678-0.078-1.36-0.094-2.045l1.999-0.048
			c0.016,0.656,0.046,1.309,0.09,1.958L14.107,74.161z M105.956,73.047l-1.998-0.087C103.986,72.311,104,71.657,104,71l0-0.176
			l2-0.016L106,71C106,71.686,105.985,72.368,105.956,73.047z M16.091,68.149l-1.996-0.128c0.044-0.684,0.103-1.364,0.176-2.04
			l1.988,0.214C16.189,66.843,16.133,67.494,16.091,68.149z M103.812,66.905c-0.061-0.653-0.135-1.302-0.223-1.947l1.981-0.271
			c0.092,0.674,0.17,1.352,0.233,2.035L103.812,66.905z M16.854,62.325l-1.961-0.392c0.134-0.672,0.283-1.338,0.446-2l1.941,0.479
			C17.125,61.045,16.983,61.683,16.854,62.325z M102.883,61.105c-0.146-0.638-0.307-1.271-0.481-1.898l1.927-0.535
			c0.183,0.657,0.35,1.319,0.503,1.986L102.883,61.105z M18.391,56.655L16.5,56.004c0.224-0.649,0.461-1.291,0.713-1.927
			l1.859,0.736C18.832,55.421,18.604,56.035,18.391,56.655z M101.186,55.482c-0.23-0.61-0.474-1.215-0.73-1.812l1.838-0.788
			c0.268,0.625,0.523,1.257,0.763,1.896L101.186,55.482z M20.676,51.238l-1.786-0.899c0.308-0.612,0.629-1.216,0.963-1.812
			l1.744,0.979C21.278,50.075,20.971,50.653,20.676,51.238z M98.752,50.144c-0.31-0.575-0.632-1.142-0.966-1.701l1.716-1.027
			c0.35,0.584,0.687,1.178,1.011,1.779L98.752,50.144z M23.666,46.177l-1.65-1.13c0.386-0.564,0.785-1.12,1.195-1.666l1.599,1.202
			C24.417,45.105,24.036,45.637,23.666,46.177z M95.627,45.173c-0.384-0.528-0.779-1.048-1.186-1.558l1.564-1.246
			c0.425,0.534,0.838,1.077,1.239,1.629L95.627,45.173z M27.301,41.558l-1.486-1.339c0.458-0.507,0.926-1.005,1.405-1.491
			l1.425,1.404C28.186,40.597,27.738,41.072,27.301,41.558z M91.867,40.66c-0.451-0.473-0.912-0.936-1.383-1.389l1.386-1.442
			c0.492,0.473,0.974,0.957,1.445,1.451L91.867,40.66z M31.516,37.463l-1.296-1.523c0.52-0.442,1.049-0.873,1.589-1.292l1.227,1.58
			C32.519,36.628,32.012,37.041,31.516,37.463z M87.542,36.683c-0.51-0.409-1.028-0.808-1.556-1.194l1.183-1.613
			c0.551,0.404,1.093,0.82,1.625,1.248L87.542,36.683z M36.233,33.964l-1.081-1.683c0.573-0.368,1.154-0.725,1.744-1.068
			l1.007,1.729C37.339,33.271,36.782,33.612,36.233,33.964z M82.724,33.314c-0.559-0.338-1.126-0.664-1.701-0.977l0.957-1.756
			c0.601,0.327,1.194,0.668,1.779,1.021L82.724,33.314z M41.374,31.125l-0.849-1.812c0.617-0.289,1.24-0.563,1.872-0.825
			l0.765,1.848C42.558,30.586,41.962,30.85,41.374,31.125z M77.501,30.618c-0.599-0.26-1.205-0.508-1.818-0.742l0.713-1.868
			c0.641,0.245,1.275,0.503,1.902,0.775L77.501,30.618z M46.844,29l-0.598-1.908c0.65-0.204,1.306-0.393,1.968-0.568l0.512,1.934
			C48.093,28.625,47.465,28.805,46.844,29z M71.965,28.646c-0.627-0.176-1.26-0.34-1.898-0.489l0.456-1.947
			c0.667,0.156,1.328,0.327,1.983,0.511L71.965,28.646z M52.554,27.627l-0.336-1.972c0.671-0.114,1.347-0.214,2.026-0.299
			l0.248,1.984C53.842,27.422,53.196,27.518,52.554,27.627z M66.217,27.436c-0.644-0.091-1.293-0.168-1.946-0.231l0.192-1.991
			c0.682,0.066,1.36,0.147,2.033,0.242L66.217,27.436z M58.398,27.029l-0.072-1.999C58.882,25.01,59.439,25,60,25l0.374,0.001
			l-0.016,2L60,27C59.464,27,58.93,27.01,58.398,27.029z"/>
	</g>
	<g>
		<path d="M73.839,121.33l-1.766-0.94l12.2-22.902c0.011-0.039,0.512-1.153,2.05-1.737c1.949-0.742,4.62-0.3,7.938,1.307
			c3.536,1.712,9.172,2.386,11.927,0.661c1.234-0.773,1.833-1.956,1.833-3.614c0-8.423,1.978-11.509,2.828-12.444
			c0.455-0.5,0.714-1.216,0.66-1.824c-0.037-0.417-0.215-0.75-0.53-0.992l-1.163-0.895l1.258-0.755
			c0.241-0.146,0.942-0.643,1.272-1.171c0.412-0.658,0.495-0.791-0.101-2.578c-0.602-1.807-0.57-3.248,0.094-4.168
			c0.329-0.457,0.967-1.001,2.139-1.001c2.251,0,3.98-0.505,4.404-1.288c0.35-0.645-0.155-1.667-0.64-2.41
			c-3.091-4.74-7.222-12.661-7.612-13.957c-0.402-1.341,0.038-3.717,1.307-7.063c0.631-1.665,1.362-15.414-6.242-26.431
			C98.769,7.09,87.141,2,71.137,2C55.285,2,43.251,6.521,35.371,15.438c-9.287,10.509-9.967,24.258-9.473,28.246
			c1.096,8.846,4.299,16.218,10.386,23.902c6.61,8.343,7.054,17.529,4.115,21.937l-2.568,3.853l-1.664-1.109l2.568-3.853
			c2.182-3.272,2.377-11.513-4.019-19.585c-6.328-7.989-9.66-15.667-10.803-24.898c-0.561-4.524,0.136-18.701,9.959-29.816
			C42.149,4.749,54.687,0,71.137,0c16.7,0,28.881,5.381,36.206,15.993c8.204,11.887,7.283,26.122,6.466,28.275
			c-1.233,3.25-1.46,5.117-1.261,5.779c0.274,0.913,4.111,8.44,7.371,13.439c1.137,1.744,1.38,3.243,0.724,4.455
			c-1.101,2.032-4.333,2.335-6.163,2.335c-0.394,0-0.486,0.128-0.517,0.17c-0.192,0.266-0.259,1.045,0.181,2.367
			c0.816,2.449,0.624,3.112-0.091,4.255c-0.282,0.452-0.66,0.842-1.008,1.146c0.253,0.432,0.41,0.922,0.457,1.446
			c0.104,1.173-0.334,2.424-1.172,3.346c-0.385,0.424-2.308,2.953-2.308,11.099c0,2.336-0.958,4.172-2.771,5.308
			c-3.824,2.397-10.408,1.118-13.861-0.556c-4.832-2.34-6.901-1.343-7.321-0.49L73.839,121.33z"/>
	</g>
	<g>
		<circle style="fill:#C4C4C4;" cx="2.5" cy="13.5" r="2.5"/>
	</g>
	<g>
		<g>
			<g>
				<rect x="26.5" y="129.964" transform="matrix(0.7071 0.7071 -0.7071 0.7071 102.4533 19.6558)" width="2" height="7.071"/>
			</g>
			<g>
				<rect x="23.964" y="132.5" transform="matrix(0.7071 0.7071 -0.7071 0.7071 102.4533 19.6558)" width="7.071" height="2"/>
			</g>
		</g>
		<g>
			<g>
				<rect x="26.5" y="119.824" transform="matrix(0.7071 0.7071 -0.7071 0.7071 95.2828 16.6857)" width="2" height="7.071"/>
			</g>
			<g>
				<rect x="23.964" y="122.359" transform="matrix(0.7071 0.7071 -0.7071 0.7071 95.2828 16.6857)" width="7.071" height="2"/>
			</g>
		</g>
		<g>
			<g>
				<rect x="26.5" y="109.964" transform="matrix(0.7071 0.7071 -0.7071 0.7071 88.3112 13.798)" width="2" height="7.071"/>
			</g>
			<g>
				<rect x="23.964" y="112.5" transform="matrix(0.7071 0.7071 -0.7071 0.7071 88.3112 13.798)" width="7.071" height="2"/>
			</g>
		</g>
	</g>
	<g>
		<g>
			<g>
				
					<rect x="116.5" y="19.964" transform="matrix(0.7071 0.7071 -0.7071 0.7071 51.032 -76.202)" style="fill:#C4C4C4;" width="2" height="7.071"/>
			</g>
			<g>
				
					<rect x="113.964" y="22.5" transform="matrix(0.7071 0.7071 -0.7071 0.7071 51.032 -76.202)" style="fill:#C4C4C4;" width="7.071" height="2"/>
			</g>
		</g>
		<g>
			<g>
				
					<rect x="116.5" y="9.824" transform="matrix(0.7071 0.7071 -0.7071 0.7071 43.8615 -79.1722)" style="fill:#C4C4C4;" width="2" height="7.071"/>
			</g>
			<g>
				
					<rect x="113.964" y="12.359" transform="matrix(0.7071 0.7071 -0.7071 0.7071 43.8615 -79.1722)" style="fill:#C4C4C4;" width="7.071" height="2"/>
			</g>
		</g>
		<g>
			<g>
				
					<rect x="116.5" y="-0.036" transform="matrix(0.7071 0.7071 -0.7071 0.7071 36.8898 -82.0599)" style="fill:#C4C4C4;" width="2" height="7.071"/>
			</g>
			<g>
				
					<rect x="113.964" y="2.5" transform="matrix(0.7071 0.7071 -0.7071 0.7071 36.8898 -82.0599)" style="fill:#C4C4C4;" width="7.071" height="2"/>
			</g>
		</g>
	</g>
</g>
</svg>
