<?xml version="1.0" encoding="iso-8859-1"?>
<!-- Generator: Adobe Illustrator 17.0.0, SVG Export Plug-In . SVG Version: 6.00 Build 0)  -->
<!DOCTYPE svg PUBLIC "-//W3C//DTD SVG 1.1//EN" "http://www.w3.org/Graphics/SVG/1.1/DTD/svg11.dtd">
<svg version="1.1" id="consulting" xmlns="http://www.w3.org/2000/svg" xmlns:xlink="http://www.w3.org/1999/xlink" x="0px" y="0px"
	 width="121px" height="141px" viewBox="0 0 121 141" style="enable-background:new 0 0 121 141;" xml:space="preserve">
<g id="consulting_1_">
	<g>
		<path style="fill:#E4E5E7;" d="M56,1C25.625,1,1,17.417,1,37.667C1,50.66,11.146,62.066,26.437,68.579
			C19.556,78.865,10.167,83.5,10.167,83.5c19.569,0,31.298-7.046,35.2-9.857c3.441,0.449,6.994,0.69,10.633,0.69
			c30.375,0,55-16.415,55-36.666C111,17.417,86.375,1,56,1z"/>
	</g>
	<g>
		<g>
			<path d="M69.363,33.134c0,1.534-0.556,2.855-1.666,3.966L57.383,47.413c-0.265,0.318-0.395,0.688-0.395,1.11v4.682h-4.602v-4.734
				c0-1.525,0.544-2.812,1.635-3.865l10.393-10.392c0.231-0.318,0.348-0.691,0.348-1.118V24.08c0-0.423-0.153-0.823-0.461-1.195
				l-3.174-3.174c-0.265-0.254-0.637-0.381-1.112-0.381h-9.148c-0.423,0-0.795,0.154-1.113,0.461l-4.76,4.76l-3.158-3.238
				l4.84-4.839c1.057-1.058,2.326-1.587,3.808-1.587h9.996c1.48,0,2.749,0.529,3.808,1.587l3.411,3.411
				c1.11,1.11,1.666,2.433,1.666,3.966V33.134z"/>
		</g>
		<g>
			<rect x="52.386" y="56.976" width="4.588" height="4.588"/>
		</g>
	</g>
	<g>
		<g>
			<path style="fill:#EFD32E;" d="M75.631,72.947c25.057,0,45.369,13.541,45.369,30.245c0,10.719-8.37,20.128-20.984,25.499
				c5.676,8.485,13.422,12.309,13.422,12.309c-16.143,0-25.817-5.812-29.036-8.132c-2.839,0.371-5.77,0.57-8.771,0.57
				c-25.056,0-45.368-13.541-45.368-30.246C30.262,86.488,50.575,72.947,75.631,72.947z"/>
		</g>
		<g>
			<g>
				<path d="M63.131,107c-1.93,0-3.5-1.57-3.5-3.5s1.57-3.5,3.5-3.5s3.5,1.57,3.5,3.5S65.061,107,63.131,107z M63.131,102
					c-0.827,0-1.5,0.673-1.5,1.5s0.673,1.5,1.5,1.5s1.5-0.673,1.5-1.5S63.958,102,63.131,102z"/>
			</g>
			<g>
				<path d="M75.631,107c-1.93,0-3.5-1.57-3.5-3.5s1.57-3.5,3.5-3.5s3.5,1.57,3.5,3.5S77.561,107,75.631,107z M75.631,102
					c-0.827,0-1.5,0.673-1.5,1.5s0.673,1.5,1.5,1.5s1.5-0.673,1.5-1.5S76.458,102,75.631,102z"/>
			</g>
			<g>
				<path d="M88.131,107c-1.93,0-3.5-1.57-3.5-3.5s1.57-3.5,3.5-3.5s3.5,1.57,3.5,3.5S90.061,107,88.131,107z M88.131,102
					c-0.827,0-1.5,0.673-1.5,1.5s0.673,1.5,1.5,1.5s1.5-0.673,1.5-1.5S88.958,102,88.131,102z"/>
			</g>
		</g>
	</g>
	<g>
		<g>
			<rect x="11" y="100" width="30.835" height="2"/>
		</g>
		<g>
			<rect x="11" y="105" width="30.835" height="2"/>
		</g>
		<g>
			<rect x="11" y="110" width="30.835" height="2"/>
		</g>
		<g>
			<rect x="11" y="115" width="30.835" height="2"/>
		</g>
		<g>
			<rect x="11" y="120" width="30.835" height="2"/>
		</g>
		<g>
			<rect x="11" y="125" width="10" height="2"/>
		</g>
	</g>
	<g>
		<g>
			<path d="M111.835,22h-22V0h22V22z M91.835,20h18V2h-18V20z"/>
		</g>
		<g>
			<path d="M106.835,27h-22V5h22V27z M86.835,25h18V7h-18V25z"/>
		</g>
	</g>
	<g>
		<g>
			<path style="fill:#E2C120;" d="M121,49.27c0-8.283-6.717-15-15-15c-8.283,0-15,6.717-15,15c0,5.182,2.629,9.75,6.625,12.444
				v8.556h16.75v-8.556C118.371,59.02,121,54.451,121,49.27z"/>
		</g>
		<g>
			<rect x="97.625" y="70.27" style="fill:#C4C4C4;" width="16.75" height="10.125"/>
		</g>
		<g>
			<rect x="97.625" y="69.27" width="16.75" height="2"/>
		</g>
		<g>
			<rect x="97.625" y="76.395" width="16.75" height="2"/>
		</g>
		<g>
			<rect x="97.625" y="72.77" width="16.75" height="2"/>
		</g>
		<g>
			<polygon points="112,85.27 100,85.27 100,80.395 102,80.395 102,83.27 110,83.27 110,80.395 112,80.395 			"/>
		</g>
		<g>
			<polygon points="110.5,70.27 108.5,70.27 108.5,50.27 103.5,50.27 103.5,70.27 101.5,70.27 101.5,48.27 110.5,48.27 			"/>
		</g>
		<g>
			<rect x="99.25" y="48.27" width="13.5" height="2"/>
		</g>
	</g>
	<g>
		<g>
			<path d="M16,72C9.935,72,5,67.065,5,61s4.935-11,11-11s11,4.935,11,11S22.065,72,16,72z M16,52c-4.963,0-9,4.038-9,9s4.037,9,9,9
				s9-4.038,9-9S20.963,52,16,52z"/>
		</g>
		<g>
			<g>
				<rect x="1" y="60" width="5" height="2"/>
			</g>
			<g>
				<rect x="26" y="60" width="5" height="2"/>
			</g>
			<g>
				<rect x="15" y="46" width="2" height="5"/>
			</g>
			<g>
				<rect x="15" y="71" width="2" height="5"/>
			</g>
		</g>
		<g>
			<g>
				<rect x="4.661" y="51.161" transform="matrix(0.7071 0.7071 -0.7071 0.7071 38.9809 10.214)" width="4.999" height="2"/>
			</g>
			<g>
				<rect x="22.339" y="68.839" transform="matrix(0.7071 0.7071 -0.7071 0.7071 56.6587 2.8916)" width="4.999" height="2"/>
			</g>
			<g>
				<rect x="23.839" y="49.661" transform="matrix(0.7071 0.7071 -0.7071 0.7071 44.1586 -2.2861)" width="2" height="4.999"/>
			</g>
			<g>
				<rect x="6.161" y="67.339" transform="matrix(0.7071 0.7071 -0.7071 0.7071 51.481 15.3916)" width="2" height="4.999"/>
			</g>
		</g>
	</g>
	<g>
		<g>
			<path d="M3.5,17C1.57,17,0,15.43,0,13.5S1.57,10,3.5,10S7,11.57,7,13.5S5.43,17,3.5,17z M3.5,12C2.673,12,2,12.673,2,13.5
				S2.673,15,3.5,15S5,14.327,5,13.5S4.327,12,3.5,12z"/>
		</g>
		<g>
			<path d="M16,17c-1.93,0-3.5-1.57-3.5-3.5S14.07,10,16,10s3.5,1.57,3.5,3.5S17.93,17,16,17z M16,12c-0.827,0-1.5,0.673-1.5,1.5
				S15.173,15,16,15s1.5-0.673,1.5-1.5S16.827,12,16,12z"/>
		</g>
		<g>
			<path d="M28.5,17c-1.93,0-3.5-1.57-3.5-3.5s1.57-3.5,3.5-3.5s3.5,1.57,3.5,3.5S30.43,17,28.5,17z M28.5,12
				c-0.827,0-1.5,0.673-1.5,1.5s0.673,1.5,1.5,1.5s1.5-0.673,1.5-1.5S29.327,12,28.5,12z"/>
		</g>
	</g>
</g>
</svg>
