<?xml version="1.0" encoding="iso-8859-1"?>
<!-- Generator: Adobe Illustrator 17.0.0, SVG Export Plug-In . SVG Version: 6.00 Build 0)  -->
<!DOCTYPE svg PUBLIC "-//W3C//DTD SVG 1.1//EN" "http://www.w3.org/Graphics/SVG/1.1/DTD/svg11.dtd">
<svg version="1.1" id="content_design" xmlns="http://www.w3.org/2000/svg" xmlns:xlink="http://www.w3.org/1999/xlink" x="0px"
	 y="0px" width="121.917px" height="141px" viewBox="0 0 121.917 141" style="enable-background:new 0 0 121.917 141;"
	 xml:space="preserve">
<g id="content_design_1_">
	<g>
		<circle style="fill:#E4E5E7;" cx="74.167" cy="18.25" r="18.25"/>
	</g>
	<g>
		<circle style="fill:#EFD32E;" cx="117.197" cy="70.042" r="3.821"/>
	</g>
	<g>
		<g>
			<rect x="10.917" y="89" width="30" height="2"/>
		</g>
		<g>
			<rect x="10.917" y="94" width="30" height="2"/>
		</g>
		<g>
			<rect x="10.917" y="99" width="30" height="2"/>
		</g>
		<g>
			<rect x="10.917" y="109" width="30" height="2"/>
		</g>
		<g>
			<rect x="10.917" y="114" width="30" height="2"/>
		</g>
		<g>
			<rect x="10.917" y="119" width="10" height="2"/>
		</g>
		<g>
			<rect x="10.917" y="104" width="10" height="2"/>
		</g>
	</g>
	<g>
		<rect x="71" y="80.084" style="fill:#E4E5E7;" width="49.917" height="49.916"/>
	</g>
	<g>
		<path d="M121.917,56H70V4h51.917V56z M72,54h47.917V6H72V54z"/>
	</g>
	<g>
		<polygon points="77,14.917 75,14.917 75,9 80.917,9 80.917,11 77,11 		"/>
	</g>
	<g>
		<polygon points="80.917,50.917 75,50.917 75,45 77,45 77,48.917 80.917,48.917 		"/>
	</g>
	<g>
		<polygon points="116.834,50.917 110.917,50.917 110.917,48.917 114.834,48.917 114.834,45 116.834,45 		"/>
	</g>
	<g>
		<polygon points="116.834,14.917 114.834,14.917 114.834,11 110.917,11 110.917,9 116.834,9 		"/>
	</g>
	<g>
		<path style="fill:#C4C4C4;" d="M51.917,131H0V79.084h51.917V131z M2,129h47.917V81.084H2V129z"/>
	</g>
	<g>
		<g>
			<polygon points="109.417,22.416 107.417,22.416 107.417,18.416 84.417,18.416 84.417,22.416 82.417,22.416 82.417,16.416 
				109.417,16.416 			"/>
		</g>
		<g>
			<rect x="94.917" y="17.416" width="2" height="25"/>
		</g>
		<g>
			<rect x="92.417" y="41.416" width="7" height="2"/>
		</g>
	</g>
	<g>
		<g>
			<path d="M86.917,98.5h-7v-7h7V98.5z M81.917,96.5h3v-3h-3V96.5z"/>
		</g>
		<g>
			<rect x="90.917" y="94" width="20" height="2"/>
		</g>
	</g>
	<g>
		<g>
			<path d="M86.917,108.5h-7v-7h7V108.5z M81.917,106.5h3v-3h-3V106.5z"/>
		</g>
		<g>
			<rect x="90.917" y="104" width="20" height="2"/>
		</g>
	</g>
	<g>
		<g>
			<path d="M86.917,118.5h-7v-7h7V118.5z M81.917,116.5h3v-3h-3V116.5z"/>
		</g>
		<g>
			<rect x="90.917" y="114" width="20" height="2"/>
		</g>
	</g>
	<g>
		<g>
			<rect x="0.917" y="139" style="fill:#E4E5E7;" width="20.604" height="2"/>
		</g>
		<g>
			<rect x="0.917" y="134" style="fill:#E4E5E7;" width="40" height="2"/>
		</g>
	</g>
	<g>
		<g>
			<rect x="0.917" y="68.584" style="fill:#E4E5E7;" width="20.604" height="2"/>
		</g>
		<g>
			<rect x="0.917" y="63.584" style="fill:#E4E5E7;" width="40" height="2"/>
		</g>
	</g>
	<g>
		<g>
			<rect x="70.917" y="139" style="fill:#E4E5E7;" width="20.604" height="2"/>
		</g>
		<g>
			<rect x="70.917" y="134" style="fill:#E4E5E7;" width="40" height="2"/>
		</g>
	</g>
	<g>
		<g>
			<rect x="70.917" y="68.584" style="fill:#E4E5E7;" width="20.604" height="2"/>
		</g>
		<g>
			<rect x="70.917" y="63.584" style="fill:#E4E5E7;" width="40" height="2"/>
		</g>
	</g>
	<g>
		<g>
			<rect x="0.917" y="5" style="fill:#EFD32E;" width="50" height="50"/>
		</g>
		<g>
			<polygon points="30.117,45.6 15.919,26.669 1.802,45.598 0.198,44.402 15.915,23.331 31.717,44.4 			"/>
		</g>
		<g>
			<path d="M30.917,24.99c-3.309,0-6-2.691-6-6c0-3.308,2.691-6,6-6s6,2.691,6,6C36.917,22.299,34.226,24.99,30.917,24.99z
				 M30.917,14.991c-2.206,0-4,1.794-4,4s1.794,4,4,4s4-1.794,4-4S33.123,14.991,30.917,14.991z"/>
		</g>
		<g>
			<polygon points="20.848,60.592 19.236,59.408 42.159,28.239 54.28,44.4 52.681,45.6 42.175,31.593 			"/>
		</g>
	</g>
</g>
</svg>
