<?xml version="1.0" encoding="iso-8859-1"?>
<!-- Generator: Adobe Illustrator 17.0.0, SVG Export Plug-In . SVG Version: 6.00 Build 0)  -->
<!DOCTYPE svg PUBLIC "-//W3C//DTD SVG 1.1//EN" "http://www.w3.org/Graphics/SVG/1.1/DTD/svg11.dtd">
<svg version="1.1" id="copywriting" xmlns="http://www.w3.org/2000/svg" xmlns:xlink="http://www.w3.org/1999/xlink" x="0px"
	 y="0px" width="121px" height="143.198px" viewBox="0 0 121 143.198" style="enable-background:new 0 0 121 143.198;"
	 xml:space="preserve">
<g id="copywriting_1_">
	<g>
		<circle style="fill:#E4E5E7;" cx="25" cy="38.198" r="10"/>
	</g>
	<g>
		<circle style="fill:#E4E5E7;" cx="97.5" cy="34.698" r="2.5"/>
	</g>
	<g>
		<circle style="fill:#27BA90;" cx="115" cy="8.531" r="5"/>
	</g>
	<g>
		<circle style="fill:#34C9A2;" cx="30" cy="18.198" r="5"/>
	</g>
	<g>
		<g>
			<rect x="5" y="92.198" style="fill:#C4C4C4;" width="25" height="2"/>
		</g>
		<g>
			<rect x="5" y="97.198" style="fill:#C4C4C4;" width="25" height="2"/>
		</g>
		<g>
			<rect x="5" y="102.198" style="fill:#C4C4C4;" width="25" height="2"/>
		</g>
		<g>
			<rect x="5" y="107.2" style="fill:#C4C4C4;" width="25" height="2"/>
		</g>
		<g>
			<rect x="5" y="112.198" style="fill:#C4C4C4;" width="25" height="2"/>
		</g>
	</g>
	<g>
		<rect x="19.75" y="58.198" style="fill:#27BA90;" width="80.25" height="10"/>
	</g>
	<g>
		<rect x="10" y="133.198" style="fill:#C4C4C4;" width="100" height="10"/>
	</g>
	<g>
		<polygon style="fill:#E4E5E7;" points="110,133.198 10,133.198 30,83.201 90.249,83.201 		"/>
	</g>
	<g>
		<g>
			<path style="fill:#C4C4C4;" d="M75,63.198c0,8.284-6.716,15-15,15s-15-6.716-15-15H30v20.003h60V63.198H75z"/>
		</g>
	</g>
	<g>
		<polygon points="40.707,68.905 39.293,67.491 49,57.784 49,53.198 51,53.198 51,58.612 		"/>
	</g>
	<g>
		<polygon points="46.814,77.223 45.017,76.344 54,57.967 54,53.198 56,53.198 56,58.43 		"/>
	</g>
	<g>
		<polygon points="79.293,68.905 69,58.612 69,53.198 71,53.198 71,57.784 80.707,67.491 		"/>
	</g>
	<g>
		<polygon points="73.185,77.223 64,58.43 64,53.198 66,53.198 66,57.967 74.982,76.344 		"/>
	</g>
	<g>
		<rect x="59" y="53.198" width="2" height="27.418"/>
	</g>
	<g>
		<path d="M101,71.698h-7v-17h7V71.698z M96,69.698h3v-13h-3V69.698z"/>
	</g>
	<g>
		<path d="M25.75,71.698h-7v-17h7V71.698z M20.75,69.698h3v-13h-3V69.698z"/>
	</g>
	<g>
		<g>
			<path d="M43.5,99.2h-7v-7h7V99.2z M38.5,97.2h3v-3h-3V97.2z"/>
		</g>
		<g>
			<path d="M53.5,99.2h-7v-7h7V99.2z M48.5,97.2h3v-3h-3V97.2z"/>
		</g>
		<g>
			<path d="M63.5,99.2h-7v-7h7V99.2z M58.5,97.2h3v-3h-3V97.2z"/>
		</g>
		<g>
			<path d="M73.5,99.2h-7v-7h7V99.2z M68.5,97.2h3v-3h-3V97.2z"/>
		</g>
		<g>
			<path d="M83.5,99.2h-7v-7h7V99.2z M78.5,97.2h3v-3h-3V97.2z"/>
		</g>
	</g>
	<g>
		<g>
			<path d="M43.5,119.202h-7v-7h7V119.202z M38.5,117.202h3v-3h-3V117.202z"/>
		</g>
		<g>
			<path d="M33.5,119.202h-7v-7h7V119.202z M28.5,117.202h3v-3h-3V117.202z"/>
		</g>
		<g>
			<path d="M93.5,119.202h-7v-7h7V119.202z M88.5,117.202h3v-3h-3V117.202z"/>
		</g>
		<g>
			<path d="M53.5,119.202h-7v-7h7V119.202z M48.5,117.202h3v-3h-3V117.202z"/>
		</g>
		<g>
			<path d="M63.5,119.202h-7v-7h7V119.202z M58.5,117.202h3v-3h-3V117.202z"/>
		</g>
		<g>
			<path d="M73.5,119.202h-7v-7h7V119.202z M68.5,117.202h3v-3h-3V117.202z"/>
		</g>
		<g>
			<path d="M83.5,119.202h-7v-7h7V119.202z M78.5,117.202h3v-3h-3V117.202z"/>
		</g>
	</g>
	<g>
		<g>
			<path d="M38.375,109.2h-7v-7h7V109.2z M33.375,107.2h3v-3h-3V107.2z"/>
		</g>
		<g>
			<path d="M48.375,109.2h-7v-7h7V109.2z M43.375,107.2h3v-3h-3V107.2z"/>
		</g>
		<g>
			<path d="M58.375,109.2h-7v-7h7V109.2z M53.375,107.2h3v-3h-3V107.2z"/>
		</g>
		<g>
			<path d="M68.375,109.2h-7v-7h7V109.2z M63.375,107.2h3v-3h-3V107.2z"/>
		</g>
		<g>
			<path d="M78.375,109.2h-7v-7h7V109.2z M73.375,107.2h3v-3h-3V107.2z"/>
		</g>
		<g>
			<path d="M88.375,109.2h-7v-7h7V109.2z M83.375,107.2h3v-3h-3V107.2z"/>
		</g>
	</g>
	<g>
		<g>
			<path d="M38.375,129.2h-7v-7h7V129.2z M33.375,127.2h3v-3h-3V127.2z"/>
		</g>
		<g>
			<path d="M48.375,129.2h-7v-7h7V129.2z M43.375,127.2h3v-3h-3V127.2z"/>
		</g>
		<g>
			<path d="M68.375,129.2h-17v-7h17V129.2z M53.375,127.2h13v-3h-13V127.2z"/>
		</g>
		<g>
			<path d="M78.375,129.2h-7v-7h7V129.2z M73.375,127.2h3v-3h-3V127.2z"/>
		</g>
		<g>
			<path d="M88.375,129.2h-7v-7h7V129.2z M83.375,127.2h3v-3h-3V127.2z"/>
		</g>
	</g>
	<g>
		<path style="fill:#C4C4C4;" d="M91,58.198h-2v-35c0-4.769,2.093-7.47,4.454-9H40c-8.897,0-9,8.633-9,9v35h-2v-35
			c0-0.11,0.126-11,11-11h60v2c-0.365,0.002-9,0.141-9,9V58.198z"/>
	</g>
	<g>
		<path style="fill:#C4C4C4;" d="M115,49.198H90v-2h20.391c-1.039-1.279-1.391-2.899-1.391-4v-20c0-8.897-8.632-9-9-9v-2
			c0.11,0,11,0.126,11,11v20c0.003,0.405,0.147,4,4,4V49.198z"/>
	</g>
	<g>
		<path style="fill:#C4C4C4;" d="M115,49.198l-0.004-2c0.41-0.004,4.004-0.147,4.004-4v-9h-9v-2h11v11
			C121,47.944,117.075,49.198,115,49.198z"/>
	</g>
	<g>
		<rect x="50" y="22.198" width="20" height="2"/>
	</g>
	<g>
		<rect x="40" y="27.198" width="40" height="2"/>
	</g>
	<g>
		<rect x="40" y="32.198" width="40" height="2"/>
	</g>
	<g>
		<rect x="40" y="37.198" width="40" height="2"/>
	</g>
	<g>
		<rect x="40" y="42.198" width="40" height="2"/>
	</g>
	<g>
		<rect x="40" y="47.198" width="15.875" height="2"/>
	</g>
	<g>
		<g>
			<rect x="0" y="23.198" style="fill:#E4E5E7;" width="10" height="4.333"/>
		</g>
		<g>
			<polygon style="fill:#E4E5E7;" points="5,93.198 5,93.198 0,83.201 10,83.201 			"/>
		</g>
		<g>
			<polygon style="fill:#27BA90;" points="5,93.198 5,93.198 2.5,88.2 7.5,88.2 			"/>
		</g>
		<g>
			<rect x="0" y="27.531" style="fill:#34C9A2;" width="10" height="55.667"/>
		</g>
	</g>
	<g>
		<g>
			<rect x="110" y="118.865" style="fill:#C4C4C4;" width="10" height="4.333"/>
		</g>
		<g>
			<polygon style="fill:#C4C4C4;" points="115,53.198 115,53.198 120,63.195 110,63.195 			"/>
		</g>
		<g>
			<polygon style="fill:#27BA90;" points="115,53.198 115,53.198 117.5,58.196 112.5,58.196 			"/>
		</g>
		<g>
			<rect x="110" y="63.198" style="fill:#27BA90;" width="10" height="55.667"/>
		</g>
	</g>
	<g>
		<g>
			<polygon points="5.949,33.515 4.051,32.882 15.012,0 25.701,32.889 23.799,33.508 14.988,6.396 			"/>
		</g>
		<g>
			<rect x="10" y="17.198" width="10" height="2"/>
		</g>
	</g>
</g>
</svg>
