<?xml version="1.0" encoding="iso-8859-1"?>
<!-- Generator: Adobe Illustrator 17.0.0, SVG Export Plug-In . SVG Version: 6.00 Build 0)  -->
<!DOCTYPE svg PUBLIC "-//W3C//DTD SVG 1.1//EN" "http://www.w3.org/Graphics/SVG/1.1/DTD/svg11.dtd">
<svg version="1.1" id="dialog" xmlns="http://www.w3.org/2000/svg" xmlns:xlink="http://www.w3.org/1999/xlink" x="0px" y="0px"
	 width="126.645px" height="141px" viewBox="0 0 126.645 141" style="enable-background:new 0 0 126.645 141;" xml:space="preserve"
	>
<g id="dialog_1_">
	<g>
		<path style="fill:#EFD32E;" d="M116.29,22L116.29,22c-1.431,0-2.845-0.496-4.129-1.441c-1.654,0.944-3.521,1.44-5.438,1.44h-80
			c-6.065,0-11-4.935-11-11s4.935-11,11-11h80c6.065,0,11,4.935,11,11c0,1.862-0.479,3.695-1.389,5.331
			c0.583,1.59,1.815,2.395,3.666,2.395h3.234l-2.67,1.826C119.158,21.513,117.72,22,116.29,22z M112.32,18.084l0.574,0.5
			c0.74,0.646,1.931,1.416,3.396,1.416l0,0c0.184,0,0.368-0.012,0.554-0.036c-1.578-0.907-2.266-2.431-2.562-3.482l-0.118-0.42
			l0.229-0.373c0.87-1.42,1.33-3.042,1.33-4.689c0-4.962-4.037-9-9-9h-80c-4.963,0-9,4.038-9,9s4.037,9,9,9h80
			c1.771,0,3.486-0.517,4.962-1.495L112.32,18.084z"/>
	</g>
	<g>
		<path style="fill:#C4C4C4;" d="M0,49.727c3.195,0,4.341-2.042,4.755-3.514C3.824,44.693,3.277,42.912,3.277,41
			c0-5.522,4.478-10,10-10H110c5.522,0,10,4.478,10,10c0,5.523-4.478,10-10,10H13.277c-2.039,0-3.933-0.613-5.515-1.66
			C6.274,50.637,3.507,52.124,0,49.727z"/>
	</g>
	<g>
		<path d="M9.584,56.001c-0.461,0-0.929-0.051-1.39-0.153l0.361-1.65c-0.782,0.352-1.681,0.529-2.681,0.529v-2
			c0.927,0,1.703-0.201,2.308-0.596l1.096,1.673c-0.086,0.056-0.173,0.109-0.262,0.161c0.687,0.088,1.359,0.018,2.021-0.213
			l0.656,1.89C11.005,55.88,10.295,56.001,9.584,56.001z M115.88,56c-0.002,0-0.004,0-0.006,0h-0.227v-2h0.228
			c0.002,0,0.003,0,0.005,0c0.835,0,1.662-0.115,2.458-0.341l0.547,1.924C117.91,55.86,116.899,56,115.88,56z M109.647,56h-3v-2h3
			V56z M100.647,56h-3v-2h3V56z M91.647,56h-3v-2h3V56z M82.647,56h-3v-2h3V56z M73.647,56h-3v-2h3V56z M64.647,56h-3v-2h3V56z
			 M55.647,56h-3v-2h3V56z M46.647,56h-3v-2h3V56z M37.647,56h-3v-2h3V56z M28.647,56h-3v-2h3V56z M19.647,56h-0.495
			c-0.923,0-1.841-0.115-2.728-0.342l0.496-1.938c0.725,0.186,1.476,0.28,2.231,0.28h0.495V56z M124.333,52.035l-1.537-1.279
			c0.578-0.695,1.047-1.469,1.394-2.3l1.846,0.769C125.612,50.241,125.04,51.187,124.333,52.035z M8.618,48.155
			C8.309,47.134,8.152,46.072,8.152,45l2-0.093c0,0.969,0.128,1.835,0.38,2.669L8.618,48.155z M124.686,43.16
			c-0.183-0.883-0.498-1.73-0.936-2.52l1.75-0.97c0.534,0.965,0.92,2.002,1.145,3.082L124.686,43.16z M11.769,39.853l-1.639-1.146
			c0.631-0.902,1.391-1.704,2.261-2.383l1.23,1.576C12.909,38.456,12.285,39.113,11.769,39.853z M119.914,36.955
			c-0.806-0.405-1.665-0.686-2.555-0.833l0.326-1.974c1.089,0.181,2.142,0.523,3.127,1.02L119.914,36.955z M18.593,36.017
			l-0.123-1.996c0.226-0.014,0.445-0.019,0.685-0.021h2.377v2h-2.379C18.953,35.994,18.777,36.005,18.593,36.017z M111.531,36h-3v-2
			h3V36z M102.531,36h-3v-2h3V36z M93.531,36h-3v-2h3V36z M84.531,36h-3v-2h3V36z M75.531,36h-3v-2h3V36z M66.531,36h-3v-2h3V36z
			 M57.531,36h-3v-2h3V36z M48.531,36h-3v-2h3V36z M39.531,36h-3v-2h3V36z M30.531,36h-3v-2h3V36z"/>
	</g>
	<g>
		<path style="fill:#C4C4C4;" d="M0,139.726c3.195,0,4.341-2.042,4.755-3.514c-0.931-1.52-1.478-3.301-1.478-5.213
			c0-5.522,4.478-10,10-10H60c5.522,0,10,4.478,10,10c0,5.523-4.478,10-10,10H13.277c-2.039,0-3.933-0.613-5.515-1.66
			C6.274,140.636,3.507,142.123,0,139.726z"/>
	</g>
	<g>
		<path style="fill:#E2C120;" d="M116.723,78.632V71c0-5.523-4.478-10-10-10h-80c-5.522,0-10,4.477-10,10v30c0,5.523,4.478,10,10,10
			h80c2.039,0,3.934-0.613,5.515-1.661c1.488,1.298,4.256,2.784,7.763,0.388c-3.195,0-4.341-2.043-4.755-3.515
			c0.931-1.519,1.478-3.3,1.478-5.212V80.976V78.632z"/>
	</g>
	<g>
		<path d="M24,134.5c-1.93,0-3.5-1.57-3.5-3.5s1.57-3.5,3.5-3.5s3.5,1.57,3.5,3.5S25.93,134.5,24,134.5z M24,129.5
			c-0.827,0-1.5,0.673-1.5,1.5s0.673,1.5,1.5,1.5s1.5-0.673,1.5-1.5S24.827,129.5,24,129.5z"/>
	</g>
	<g>
		<path d="M36,134.5c-1.93,0-3.5-1.57-3.5-3.5s1.57-3.5,3.5-3.5s3.5,1.57,3.5,3.5S37.93,134.5,36,134.5z M36,129.5
			c-0.827,0-1.5,0.673-1.5,1.5s0.673,1.5,1.5,1.5s1.5-0.673,1.5-1.5S36.827,129.5,36,129.5z"/>
	</g>
	<g>
		<path d="M48,134.5c-1.93,0-3.5-1.57-3.5-3.5s1.57-3.5,3.5-3.5s3.5,1.57,3.5,3.5S49.93,134.5,48,134.5z M48,129.5
			c-0.827,0-1.5,0.673-1.5,1.5s0.673,1.5,1.5,1.5s1.5-0.673,1.5-1.5S48.827,129.5,48,129.5z"/>
	</g>
	<g>
		<rect x="30" y="70" width="20" height="2"/>
	</g>
	<g>
		<rect x="30" y="75" width="90" height="2"/>
	</g>
	<g>
		<rect x="30" y="80" width="90" height="2"/>
	</g>
	<g>
		<rect x="30" y="85" width="90" height="2"/>
	</g>
	<g>
		<rect x="15" y="5" width="90" height="2"/>
	</g>
	<g>
		<rect x="15" y="10" width="90" height="2"/>
	</g>
	<g>
		<rect x="77" y="15" width="28" height="2"/>
	</g>
	<g>
		<rect x="30" y="90" width="30" height="2"/>
	</g>
	<g>
		<rect x="30" y="95" width="90" height="2"/>
	</g>
	<g>
		<rect x="30" y="100" width="51.125" height="2"/>
	</g>
</g>
</svg>
