<?xml version="1.0" encoding="iso-8859-1"?>
<!-- Generator: Adobe Illustrator 17.0.0, SVG Export Plug-In . SVG Version: 6.00 Build 0)  -->
<!DOCTYPE svg PUBLIC "-//W3C//DTD SVG 1.1//EN" "http://www.w3.org/Graphics/SVG/1.1/DTD/svg11.dtd">
<svg version="1.1" id="feedback_form" xmlns="http://www.w3.org/2000/svg" xmlns:xlink="http://www.w3.org/1999/xlink" x="0px"
	 y="0px" width="122px" height="141px" viewBox="0 0 122 141" style="enable-background:new 0 0 122 141;" xml:space="preserve">
<g id="feedback_form_1_">
	<g>
		<circle style="fill:#E4E5E7;" cx="97.5" cy="58.5" r="17.5"/>
	</g>
	<g>
		<circle style="fill:#E4E5E7;" cx="11.083" cy="31.001" r="2.833"/>
	</g>
	<g>
		<circle style="fill:#E4E5E7;" cx="16" cy="91" r="10"/>
	</g>
	<g>
		<path style="fill:#2D71BB;" d="M99,86H53c-6.627,0-12,5.373-12,12v11c0,6.627,5.373,12,12,12h40.727l7.523,7.25v-7.468
			c5.551-1.055,9.75-5.925,9.75-11.782V98C111,91.373,105.627,86,99,86z"/>
	</g>
	<g>
		<path style="fill:#4B8DC9;" d="M23,108.75h26c6.627,0,12,5.373,12,12v1c0,6.627-5.373,12-12,12H28.274L20.75,141v-7.468
			c-5.551-1.055-9.75-5.925-9.75-11.782v-1C11,114.123,16.373,108.75,23,108.75z"/>
	</g>
	<g>
		<rect x="1" y="1" style="fill:#4B8DC9;" width="120" height="15"/>
	</g>
	<g>
		<path d="M122,92H0V0h122V92z M2,90h118V2H2V90z"/>
	</g>
	<g>
		<circle style="fill:#FFFFFF;" cx="108" cy="8.5" r="3"/>
		<path d="M108,12.5c-2.206,0-4-1.794-4-4s1.794-4,4-4s4,1.794,4,4S110.206,12.5,108,12.5z M108,6.5c-1.103,0-2,0.897-2,2
			s0.897,2,2,2s2-0.897,2-2S109.103,6.5,108,6.5z"/>
	</g>
	<g>
		<circle style="fill:#FFFFFF;" cx="96" cy="8.5" r="3"/>
		<path d="M96,12.5c-2.206,0-4-1.794-4-4s1.794-4,4-4s4,1.794,4,4S98.206,12.5,96,12.5z M96,6.5c-1.103,0-2,0.897-2,2s0.897,2,2,2
			s2-0.897,2-2S97.103,6.5,96,6.5z"/>
	</g>
	<g>
		<circle style="fill:#FFFFFF;" cx="84" cy="8.5" r="3"/>
		<path d="M84,12.5c-2.206,0-4-1.794-4-4s1.794-4,4-4s4,1.794,4,4S86.206,12.5,84,12.5z M84,6.5c-1.103,0-2,0.897-2,2s0.897,2,2,2
			s2-0.897,2-2S85.103,6.5,84,6.5z"/>
	</g>
	<g>
		<rect x="21" y="26" style="fill:#4B8DC9;" width="10" height="10"/>
		<path d="M32,37H20V25h12V37z M22,35h8v-8h-8V35z"/>
	</g>
	<g>
		<rect x="41" y="25" width="60" height="2"/>
	</g>
	<g>
		<rect x="41" y="30" width="60" height="2"/>
	</g>
	<g>
		<rect x="41" y="35" width="20" height="2"/>
	</g>
	<g>
		<rect x="21" y="46" style="fill:#FFFFFF;" width="10" height="10"/>
		<path d="M32,57H20V45h12V57z M22,55h8v-8h-8V55z"/>
	</g>
	<g>
		<rect x="41" y="45" width="60" height="2"/>
	</g>
	<g>
		<rect x="41" y="50" width="60" height="2"/>
	</g>
	<g>
		<rect x="41" y="55" width="20" height="2"/>
	</g>
	<g>
		<rect x="21" y="66" style="fill:#FFFFFF;" width="10" height="10"/>
		<path d="M32,77H20V65h12V77z M22,75h8v-8h-8V75z"/>
	</g>
	<g>
		<rect x="41" y="65" width="60" height="2"/>
	</g>
	<g>
		<rect x="41" y="70" width="60" height="2"/>
	</g>
	<g>
		<rect x="41" y="75" width="20" height="2"/>
	</g>
	<g>
		<g>
			<rect x="69" y="102.5" width="2" height="2"/>
		</g>
		<g>
			<rect x="75" y="102.5" width="2" height="2"/>
		</g>
		<g>
			<rect x="81" y="102.5" width="2" height="2"/>
		</g>
	</g>
	<g>
		<g>
			<rect x="28.583" y="120" width="2" height="2"/>
		</g>
		<g>
			<rect x="34.583" y="120" width="2" height="2"/>
		</g>
		<g>
			<rect x="40.583" y="120" width="2" height="2"/>
		</g>
	</g>
</g>
</svg>
