<?xml version="1.0" encoding="iso-8859-1"?>
<!-- Generator: Adobe Illustrator 17.0.0, SVG Export Plug-In . SVG Version: 6.00 Build 0)  -->
<!DOCTYPE svg PUBLIC "-//W3C//DTD SVG 1.1//EN" "http://www.w3.org/Graphics/SVG/1.1/DTD/svg11.dtd">
<svg version="1.1" id="feelings" xmlns="http://www.w3.org/2000/svg" xmlns:xlink="http://www.w3.org/1999/xlink" x="0px" y="0px"
	 width="122.051px" height="141.47px" viewBox="0 0 122.051 141.47" style="enable-background:new 0 0 122.051 141.47;"
	 xml:space="preserve">
<g id="feelings_1_">
	<g>
		<circle style="fill:#EFD32E;" cx="70.564" cy="121" r="10"/>
	</g>
	<g>
		<path style="fill:#C4C4C4;" d="M101.718,129.328c-2.323,0-4.565-0.429-6.308-1.521c-2.066-1.295-3.158-3.39-3.158-6.058
			c0-9.338-2.098-12.37-2.74-13.077c-0.947-1.043-1.443-2.456-1.325-3.78c0.057-0.646,0.254-1.231,0.58-1.739
			c-0.422-0.354-0.896-0.825-1.237-1.373c-0.832-1.331-1.036-2.041-0.101-4.847c0.783-2.35,0.207-2.738-0.967-3.273l-0.683-0.307
			c-2.546-1.133-6.032-2.685-6.679-5.528c-0.348-1.529,0.204-3.161,1.64-4.849c4.825-5.668,8.245-11.611,8.554-12.639
			c0.116-0.389,0.354-2.03-1.477-6.858c-0.736-1.939-1.826-15.51,4.821-28.35c5.555-10.729,14.781-17.826,27.425-21.093l0.5,1.936
			c-12.069,3.119-20.867,9.874-26.148,20.076c-6.242,12.058-5.381,24.999-4.729,26.722c1.47,3.873,1.982,6.612,1.523,8.142
			c-0.466,1.553-4.216,7.804-8.946,13.361c-1.006,1.181-1.413,2.227-1.213,3.108c0.424,1.867,3.504,3.238,5.541,4.145l0.7,0.313
			c2.431,1.109,3.02,2.769,2.033,5.727c-0.721,2.162-0.604,2.349-0.111,3.135c0.417,0.669,1.282,1.279,1.553,1.441l1.259,0.755
			l-1.164,0.896c-0.405,0.312-0.636,0.741-0.683,1.276c-0.067,0.754,0.252,1.641,0.813,2.258c0.979,1.078,3.26,4.643,3.26,14.423
			c0,1.999,0.727,3.427,2.221,4.363c3.562,2.232,10.472,0.99,14.094-0.764c3.83-1.856,6.906-2.37,9.138-1.521
			c1.73,0.657,2.288,1.897,2.347,2.037l-1.848,0.768l0.924-0.384l-0.914,0.406c-0.012-0.026-0.315-0.642-1.299-0.986
			c-1.171-0.412-3.416-0.487-7.477,1.48C109.019,128.322,105.274,129.328,101.718,129.328z"/>
	</g>
	<g>
		<path style="fill:#E2C120;" d="M55.564,79.5c0-8.284-6.716-15-15-15c-5.22,0-9.814,2.67-12.5,6.715
			c-2.687-4.045-7.28-6.715-12.5-6.715c-8.284,0-15,6.716-15,15c0,3.844,1.458,7.339,3.836,9.993L4.386,89.5l23.678,30l23.678-30
			l-0.014-0.007C54.106,86.839,55.564,83.344,55.564,79.5z"/>
	</g>
	<g>
		<path style="fill:#EFD32E;" d="M68.002,39.182c0-4.518-3.663-8.182-8.182-8.182c-2.848,0-5.354,1.456-6.818,3.663
			C51.537,32.456,49.031,31,46.184,31c-4.518,0-8.182,3.663-8.182,8.182c0,2.097,0.795,4.003,2.092,5.451l-0.007,0.004L53.002,61
			l12.915-16.363l-0.007-0.004C67.207,43.185,68.002,41.278,68.002,39.182z"/>
	</g>
	<g>
		<path style="fill:#C4C4C4;" d="M28.868,21.606c0-2.981-2.416-5.397-5.397-5.397c-1.879,0-3.531,0.961-4.498,2.416
			c-0.966-1.455-2.619-2.416-4.498-2.416c-2.981,0-5.397,2.416-5.397,5.397c0,1.383,0.524,2.641,1.38,3.596l-0.005,0.003L18.973,36
			l8.52-10.795l-0.005-0.003C28.344,24.247,28.868,22.989,28.868,21.606z"/>
	</g>
	<g>
		<path style="fill:#E4E5E7;" d="M21.128,121.198c0-3.183-2.579-5.762-5.762-5.762c-2.006,0-3.769,1.026-4.803,2.579
			c-1.03-1.553-2.796-2.579-4.802-2.579c-3.183,0-5.762,2.579-5.762,5.762c0,1.477,0.561,2.819,1.473,3.839l-0.005,0.003
			l9.096,11.524l9.097-11.524l-0.005-0.003C20.567,124.018,21.128,122.675,21.128,121.198z"/>
	</g>
	<g>
		<path style="fill:#E4E5E7;" d="M55.548,10.923c0-2.179-1.766-3.944-3.945-3.944c-1.373,0-2.58,0.702-3.287,1.766
			c-0.705-1.063-1.914-1.766-3.287-1.766c-2.179,0-3.943,1.766-3.943,3.944c0,1.011,0.383,1.93,1.008,2.628l-0.003,0.002
			l6.226,7.889l6.227-7.889l-0.004-0.002C55.164,12.852,55.548,11.934,55.548,10.923z"/>
	</g>
	<g>
		<path style="fill:#E4E5E7;" d="M120.026,29.355c0-1.089-0.883-1.972-1.973-1.972c-0.687,0-1.29,0.351-1.644,0.883
			c-0.353-0.532-0.957-0.883-1.644-0.883c-1.09,0-1.972,0.883-1.972,1.972c0,0.506,0.191,0.965,0.504,1.314l-0.001,0.001
			l3.112,3.944l3.114-3.944l-0.002-0.001C119.835,30.32,120.026,29.861,120.026,29.355z"/>
	</g>
	<g>
		<path d="M62.108,141.47l-1.766-0.939l14.25-26.75c0.018-0.054,0.575-1.294,2.306-1.951c2.229-0.845,5.308-0.335,9.138,1.521
			c3.62,1.755,10.533,2.997,14.094,0.764c1.494-0.937,2.221-2.364,2.221-4.363c0-9.78,2.28-13.345,3.26-14.423
			c0.562-0.617,0.881-1.504,0.813-2.258c-0.047-0.535-0.277-0.965-0.683-1.276l-1.164-0.896l1.259-0.755
			c0.291-0.176,1.139-0.777,1.542-1.423c0.503-0.805,0.62-0.991-0.101-3.153c-0.686-2.057-0.656-3.688,0.086-4.717
			c0.361-0.502,1.064-1.1,2.362-1.1c2.69,0,4.769-0.625,5.292-1.592c0.447-0.826-0.163-2.08-0.755-2.987
			c-3.798-5.823-8.468-14.918-8.87-16.259c-0.459-1.529,0.054-4.269,1.523-8.142c0.486-1.284,2.159-17.308-7.31-31.026
			C91.48,7.97,77.852,2,59.101,2C40.533,2,26.436,7.3,17.198,17.753C6.31,30.074,5.514,46.199,6.093,50.877
			c1.283,10.365,5.036,19.001,12.167,28.002c7.654,9.663,7.411,19.658,4.878,25.282c-1.644,3.646-3.169,4.789-3.338,4.907
			l-1.148-1.637c0-0.001,1.252-0.962,2.662-4.093c2.304-5.111,2.476-14.26-4.622-23.218C9.32,70.815,5.439,61.873,4.108,51.123
			c-0.652-5.264,0.158-21.758,11.591-34.694C25.333,5.527,39.936,0,59.101,0c19.447,0,33.629,6.261,42.151,18.607
			c9.393,13.608,8.445,30.469,7.533,32.872c-1.831,4.828-1.593,6.47-1.477,6.858c0.321,1.071,4.814,9.891,8.63,15.741
			c1.291,1.98,1.573,3.673,0.838,5.031c-1.244,2.297-4.951,2.64-7.051,2.64c-0.546,0-0.687,0.195-0.74,0.269
			c-0.259,0.359-0.345,1.313,0.188,2.915c0.936,2.806,0.731,3.516-0.089,4.828c-0.349,0.558-0.826,1.033-1.25,1.391
			c0.327,0.508,0.524,1.095,0.581,1.74c0.118,1.324-0.378,2.737-1.325,3.78c-0.643,0.707-2.74,3.739-2.74,13.077
			c0,2.668-1.092,4.763-3.158,6.058c-4.41,2.765-12.027,1.28-16.027-0.657c-4.06-1.966-6.306-1.894-7.477-1.48
			c-0.983,0.345-1.287,0.96-1.299,0.986L62.108,141.47z"/>
	</g>
	<g>
		<circle style="fill:#E2C120;" cx="105.564" cy="6" r="5"/>
	</g>
</g>
</svg>
