<?xml version="1.0" encoding="UTF-8"?>
<svg width="512px" height="106px" viewBox="0 0 512 106" version="1.1" xmlns="http://www.w3.org/2000/svg" xmlns:xlink="http://www.w3.org/1999/xlink">
    <!-- Generator: Sketch 44.1 (41455) - http://www.bohemiancoding.com/sketch -->
    <title>logo-fragments</title>
    <desc>Created with Sketch.</desc>
    <defs></defs>
    <g id="Page-1" stroke="none" stroke-width="1" fill="none" fill-rule="evenodd">
        <g id="logo-fragments" fill="#00101A">
            <path d="M24,44.5235546 L24,36.140257 L29.9899258,36.140257 L29.9899258,35.643469 C29.9899258,32.1452359 30.943087,29.330132 32.8494381,27.1980728 C34.7557892,25.0660136 37.5049069,24 41.0968736,24 C42.6018876,24 44.0968458,24.1862936 45.581793,24.5588865 L44.8593898,32.5695931 C43.8560472,32.4039963 43.0935182,32.3211991 42.57178,32.3211991 C40.1838244,32.3211991 38.9898646,33.5114085 38.9898646,35.891863 L38.9898646,36.140257 L44.9797904,36.140257 L44.9797904,44.5235546 L38.9898646,44.5235546 L38.9898646,70.5428266 L29.9899258,70.5428266 L29.9899258,44.5235546 L24,44.5235546 Z M47.5383014,70.5428266 L47.5383014,36.140257 L56.5382401,36.140257 L56.5382401,43.1884368 C57.4011148,40.6009863 58.6552744,38.6500779 60.3007563,37.3356531 C61.9462383,36.0212283 63.8525608,35.3640257 66.019781,35.3640257 C66.6217866,35.3640257 67.3241159,35.4364732 68.12679,35.5813704 L68.12679,45.4860814 C66.7221103,45.2376861 65.4880173,45.1134904 64.4244741,45.1134904 C62.518123,45.1134904 60.937882,45.5688748 59.6837037,46.4796574 C58.4295253,47.39044 57.5415804,48.6323976 57.0198422,50.2055675 C56.6987726,51.3233461 56.5382401,52.9482406 56.5382401,55.0802998 L56.5382401,70.5428266 L47.5383014,70.5428266 Z M67.7655885,61.6937901 C67.7655885,58.7130472 68.6986832,56.4361249 70.5649006,54.862955 C72.4311179,53.2897851 75.2705351,52.1202751 79.0832372,51.3543897 L85.3741643,50.0813704 C86.8591115,49.8122756 87.6015739,49.0257025 87.6015739,47.7216274 C87.6015739,46.54175 87.1500765,45.5688832 86.2470681,44.8029979 C85.3440597,44.0371125 84.1300333,43.6541756 82.6049524,43.6541756 C81.1802058,43.6541756 80.0464456,44.021588 79.2036378,44.756424 C78.3608299,45.4912599 77.8290663,46.4589519 77.6083309,47.6595289 L68.6083921,47.1937901 C68.8893281,43.7576559 70.3140533,40.9270275 72.8826105,38.7018201 C75.4511678,36.4766127 78.8323819,35.3640257 83.0263542,35.3640257 C86.0564491,35.3640257 88.5848347,35.9229066 90.6115869,37.0406852 C92.6383391,38.1584638 94.1433305,39.7005612 95.1266063,41.6670236 C95.6483445,42.6813041 96.0245924,43.7214436 96.2553612,44.7874732 C96.48613,45.8535028 96.6015127,47.2972785 96.6015127,49.1188437 L96.6015127,61.2591006 C96.6015127,62.5631757 97.1734094,63.2152034 98.3172201,63.2152034 C98.5379555,63.2152034 98.9292532,63.1324063 99.4911251,62.9668094 L99.4911251,70.7291221 C99.230256,70.8740193 98.7837752,71.0085647 98.1516694,71.1327623 C97.5195635,71.2569599 97.0028498,71.3190578 96.6015127,71.3190578 C92.447674,71.3190578 89.5881903,69.4457718 88.0229757,65.6991435 C85.6149533,69.4457718 82.334072,71.3190578 78.1802333,71.3190578 C75.2304059,71.3190578 72.7572033,70.4445127 70.7605514,68.6953961 C68.7638995,66.9462796 67.7655885,64.6124343 67.7655885,61.6937901 Z M76.6752269,61.0107066 C76.6752269,61.983588 77.0364248,62.775336 77.7588315,63.3859743 C78.4812383,63.9966126 79.4644993,64.3019272 80.7086442,64.3019272 C82.655129,64.3019272 84.290553,63.6188505 85.6149654,62.2526767 C86.9393777,60.8865028 87.6015739,58.9200699 87.6015739,56.3533191 L87.6015739,54.5214133 C87.1400363,54.9975042 86.1166421,55.4632383 84.5313607,55.9186296 L81.2504466,56.8190578 C79.5246972,57.2951487 78.3307373,57.8747289 77.6685311,58.5578158 C77.006325,59.2409028 76.6752269,60.0585249 76.6752269,61.0107066 Z M100.51453,51.5406852 C100.51453,49.1602308 100.905827,46.955756 101.688435,44.9271949 C102.471042,42.8986337 103.529553,41.190942 104.863998,39.8040685 C106.198444,38.4171951 107.753602,37.3304822 109.529518,36.5438972 C111.305435,35.7573123 113.186674,35.3640257 115.173293,35.3640257 C117.340513,35.3640257 119.136469,35.8142353 120.561216,36.7146681 C121.985962,37.6151009 123.270222,38.8829326 124.414032,40.5182013 L124.414032,36.140257 L133.413971,36.140257 L133.413971,64.891863 C133.413971,70.0667639 131.944096,74.2117974 129.004302,77.3270878 C126.064508,80.4423782 122.096347,82 117.099701,82 C115.133149,82 113.307093,81.7774826 111.621477,81.3324411 C109.935862,80.8873996 108.501103,80.2974698 107.317159,79.5626338 C106.133214,78.8277979 105.089754,77.9636024 104.186745,76.9700214 C103.283737,75.9764404 102.586424,74.9414758 102.094786,73.8650964 C101.603148,72.788717 101.257,71.6813048 101.056332,70.5428266 L109.93587,69.4561028 C110.357274,70.7187786 111.164953,71.7537433 112.358931,72.5610278 C113.552908,73.3683124 115.173282,73.7719486 117.220101,73.7719486 C119.628124,73.7719486 121.429097,73.0008999 122.623075,71.4587794 C123.817053,69.916659 124.414032,67.7691073 124.414032,65.01606 L124.414032,62.9047109 C122.166545,66.2166475 119.106396,67.872591 115.233493,67.872591 C112.544535,67.872591 110.081365,67.1895143 107.843911,65.8233405 C105.606457,64.4571666 103.82555,62.5217827 102.501138,60.0171306 C101.176726,57.5124786 100.51453,54.687025 100.51453,51.5406852 Z M109.81547,51.6648822 C109.81547,53.817641 110.507766,55.6702278 111.892379,57.2226981 C113.276991,58.7751684 115.093014,59.5513919 117.340502,59.5513919 C119.608056,59.5513919 121.419063,58.87349 122.773575,57.517666 C124.128088,56.1618419 124.805334,54.2109335 124.805334,51.6648822 C124.805334,49.3051274 124.118055,47.3800931 122.743475,45.8897216 C121.368896,44.3993501 119.567923,43.6541756 117.340502,43.6541756 C114.99268,43.6541756 113.151574,44.3683012 111.817128,45.7965739 C110.482682,47.2248465 109.81547,49.1809298 109.81547,51.6648822 Z M139.373797,70.5428266 L139.373797,36.140257 L148.373736,36.140257 L148.373736,41.7291221 C149.397145,39.9489561 150.711504,38.4430825 152.316853,37.2114561 C153.922201,35.9798297 155.647924,35.3640257 157.494075,35.3640257 C161.748248,35.3640257 164.708064,37.640948 166.373613,42.1948608 C167.176287,40.3111969 168.44048,38.7018268 170.16623,37.3667024 C171.891979,36.0315779 173.858501,35.3640257 176.065855,35.3640257 C178.534078,35.3640257 180.580866,36.0315779 182.206281,37.3667024 C183.831697,38.7018268 184.925324,40.4560919 185.487196,42.6295503 C185.808265,43.9336254 185.968798,45.9207575 185.968798,48.5910064 L185.968798,70.5428266 L176.968859,70.5428266 L176.968859,50.888651 C176.968859,49.4603783 176.908659,48.3633157 176.788258,47.5974304 C176.306654,45.1341775 174.891962,43.9025696 172.54414,43.9025696 C171.340129,43.9025696 170.281618,44.2958562 169.368576,45.0824411 C168.455534,45.8690261 167.848521,46.8522425 167.547518,48.0321199 C167.306716,48.9843017 167.186317,50.2780075 167.186317,51.9132762 L167.186317,70.5428266 L158.186378,70.5428266 L158.186378,50.888651 C158.186378,49.4603783 158.126178,48.3633157 158.005777,47.5974304 C157.524173,45.1341775 156.099447,43.9025696 153.731559,43.9025696 C152.527548,43.9025696 151.469037,44.2958562 150.555995,45.0824411 C149.642953,45.8690261 149.03594,46.8522425 148.734937,48.0321199 C148.494135,48.9843017 148.373736,50.2780075 148.373736,51.9132762 L148.373736,70.5428266 L139.373797,70.5428266 Z M189.911915,53.372591 C189.911915,50.7644409 190.353379,48.3219243 191.23632,46.0449679 C192.119262,43.7680115 193.303188,41.8585016 194.788136,40.3163812 C196.273083,38.7742607 198.003823,37.563352 199.980408,36.6836188 C201.956993,35.8038857 204.018831,35.3640257 206.165985,35.3640257 C211.082364,35.3640257 215.015408,37.0510181 217.965235,40.4250535 C220.915063,43.799089 222.389954,48.073493 222.389954,53.248394 C222.389954,54.345473 222.329755,55.3183398 222.209354,56.1670236 L198.911853,56.1670236 C199.152656,58.0506875 200.020534,59.6341834 201.515515,60.9175589 C203.010495,62.2009343 204.771335,62.8426124 206.798087,62.8426124 C209.426845,62.8426124 211.423467,61.828347 212.788013,59.7997859 L221.517051,60.7623126 C220.654176,64.03285 218.923436,66.6099121 216.324778,68.493576 C213.726121,70.37724 210.550589,71.3190578 206.798087,71.3190578 C201.721173,71.3190578 197.63763,69.6889885 194.547335,66.4288009 C191.457039,63.1686132 189.911915,58.8165868 189.911915,53.372591 Z M199.032254,50.267666 L213.209415,50.267666 C212.386674,45.982848 209.998754,43.8404711 206.045584,43.8404711 C204.380035,43.8404711 202.875044,44.4045268 201.530565,45.5326552 C200.186085,46.6607837 199.353324,48.2391048 199.032254,50.267666 Z M226.483572,70.5428266 L226.483572,36.140257 L235.483511,36.140257 L235.483511,41.6670236 C236.44672,39.7833596 237.730979,38.2619615 239.336327,37.1027837 C240.941676,35.9436059 242.847998,35.3640257 245.055352,35.3640257 C247.623909,35.3640257 249.760997,36.0626268 251.46668,37.4598501 C253.172362,38.8570734 254.316156,40.683786 254.898094,42.9400428 C255.239231,44.3683155 255.409797,46.4485945 255.409797,49.1809422 L255.409797,70.5428266 L246.409858,70.5428266 L246.409858,51.6027837 C246.409858,49.8847166 246.339625,48.6738079 246.199157,47.9700214 C245.978422,46.6659464 245.461708,45.6620306 244.649,44.9582441 C243.836293,44.2544576 242.757716,43.9025696 241.413236,43.9025696 C240.028623,43.9025696 238.859747,44.2751569 237.906571,45.0203426 C236.953396,45.7655284 236.286183,46.7901434 235.904913,48.0942184 C235.623977,49.005001 235.483511,50.3194061 235.483511,52.0374732 L235.483511,70.5428266 L226.483572,70.5428266 Z M257.577006,44.5235546 L257.577006,36.140257 L263.566932,36.140257 L263.566932,29.1541756 L272.566871,27.8811563 L272.566871,36.140257 L278.556796,36.140257 L278.556796,44.5235546 L272.566871,44.5235546 L272.566871,70.5428266 L263.566932,70.5428266 L263.566932,44.5235546 L257.577006,44.5235546 Z M278.767497,64.2398287 L284.998224,58.9614561 C287.004909,61.6731042 289.432962,63.0289079 292.282455,63.0289079 C293.125263,63.0289079 293.75736,62.8426143 294.178764,62.4700214 C294.600168,62.0974285 294.810866,61.6109951 294.810866,61.0107066 C294.810866,60.4311177 294.615217,59.9188102 294.223914,59.4737687 C293.83261,59.0287273 293.165397,58.568168 292.222255,58.0920771 L287.045033,55.5460385 C282.509924,53.3311809 280.242404,49.9985947 280.242404,45.5481799 C280.242404,42.6295357 281.280848,40.2025436 283.357767,38.2671306 C285.434686,36.3317177 287.998188,35.3640257 291.04835,35.3640257 C295.422924,35.3640257 298.954637,37.2373117 301.643596,40.98394 L295.864371,46.7591006 C294.198822,44.6891403 292.493165,43.6541756 290.747349,43.6541756 C290.045009,43.6541756 289.498195,43.8249448 289.106892,44.1664882 C288.715588,44.5080317 288.519939,44.9478917 288.519939,45.4860814 C288.519939,46.3347651 289.152036,47.0799397 290.416247,47.7216274 L295.533269,50.267666 C298.242295,51.6131402 300.193767,53.1034893 301.387745,54.738758 C302.581722,56.3740267 303.178702,58.506054 303.178702,61.1349036 C303.178702,64.1156466 302.145275,66.5581632 300.078389,68.4625268 C298.011503,70.3668903 295.372751,71.3190578 292.162055,71.3190578 C286.342667,71.3190578 281.87786,68.9593384 278.767497,64.2398287 Z M306.609395,68.2536274 C306.609395,69.1862644 306.876523,69.9281339 307.410781,70.4792377 C307.945038,71.0303415 308.66423,71.3058929 309.568358,71.3058929 C310.472486,71.3058929 311.191678,71.0303415 311.725935,70.4792377 C312.260193,69.9281339 312.527321,69.1862644 312.527321,68.2536274 C312.527321,67.3209904 312.260193,66.579121 311.725935,66.0280171 C311.191678,65.4769133 310.472486,65.2013619 309.568358,65.2013619 C308.66423,65.2013619 307.945038,65.4769133 307.410781,66.0280171 C306.876523,66.579121 306.609395,67.3209904 306.609395,68.2536274 Z M343.950893,70.5428266 L343.950893,64.3111178 C341.074123,68.9743009 336.985001,71.3058929 331.683525,71.3058929 C327.12179,71.3058929 323.320344,69.6101895 320.279188,66.2187837 C317.238032,62.8273779 315.717453,58.545727 315.717453,53.373833 C315.717453,48.0747612 317.268854,43.7507184 320.371656,40.4017045 C323.474457,37.0526906 327.24508,35.3781842 331.683525,35.3781842 C336.820614,35.3781842 340.909737,37.7521681 343.950893,42.500137 L343.950893,24.7588437 L348.142758,24.7588437 L348.142758,70.5428266 L343.950893,70.5428266 Z M320.155898,53.373833 C320.155898,57.4859132 321.234687,60.8243287 323.392264,63.3890792 C325.549841,65.9538298 328.416337,67.2362056 331.99175,67.2362056 C335.526067,67.2362056 338.423385,65.9644283 340.683705,63.4208737 C342.944024,60.8773191 344.074183,57.5283052 344.074183,53.373833 C344.074183,49.0073972 342.964572,45.5947955 340.74535,43.1360257 C338.526127,40.6772559 335.628809,39.4478715 332.053396,39.4478715 C328.560175,39.4478715 325.703954,40.7832377 323.484731,43.45397 C321.265509,46.1247024 320.155898,49.4313233 320.155898,53.373833 Z M357.620686,50.4487452 L380.737586,50.4487452 C380.367716,47.0573394 379.175911,44.3760086 377.162172,42.4047537 C375.148433,40.4334989 372.600437,39.4478715 369.518184,39.4478715 C366.312641,39.4478715 363.651628,40.5076863 361.535148,42.6273148 C359.418668,44.7469433 358.113847,47.3540868 357.620686,50.4487452 Z M384.80616,54.2640771 L357.435751,54.2640771 C357.600138,58.2065867 358.802217,61.3542355 361.041988,63.7070236 C363.281758,66.0598116 366.250996,67.2362056 369.9497,67.2362056 C372.497695,67.2362056 374.603902,66.5685225 376.268319,65.2331563 C377.932736,63.8977901 379.114266,62.1702923 379.81291,60.0506638 L384.004775,60.8773191 C383.100647,64.0143694 381.384859,66.5367281 378.857412,68.444394 C376.329964,70.35206 373.31963,71.3058929 369.826409,71.3058929 C364.935901,71.3058929 360.918697,69.6631809 357.774799,66.3777559 C354.630901,63.0923309 353.058952,58.7576905 353.058952,53.373833 C353.058952,48.1171531 354.661723,43.8037088 357.867267,40.4334989 C361.07281,37.0632891 364.956449,35.3781842 369.518184,35.3781842 C374.079919,35.3781842 377.799171,36.9891017 380.675941,40.2109379 C383.552711,43.4327741 384.991096,47.3116948 384.991096,51.8477002 C384.991096,52.5683737 384.92945,53.373833 384.80616,54.2640771 Z M399.89379,67.2362056 C395.825216,67.2362056 392.763511,65.137773 390.708675,60.9409079 L387.318197,63.1665182 C388.345615,65.5828951 389.917564,67.5435514 392.034044,69.0484882 C394.150525,70.553425 396.77044,71.3058929 399.89379,71.3058929 C403.140431,71.3058929 405.760346,70.4580417 407.753536,68.7623383 C409.746726,67.0666349 410.743322,64.8410247 410.743322,62.0855075 C410.743322,57.9310353 408.750132,54.9211617 404.76375,53.0558887 L396.811537,49.3041456 C394.263541,48.1171531 392.989543,46.4850396 392.989543,44.407803 C392.989543,43.008848 393.5238,41.832454 394.592315,40.878621 C395.660829,39.924788 397.078665,39.4478715 398.845824,39.4478715 C401.558207,39.4478715 404.003461,40.9104154 406.181587,43.8355032 L409.078905,41.0375931 C406.325425,37.2646541 402.914398,35.3781842 398.845824,35.3781842 C395.886861,35.3781842 393.472429,36.2790267 391.602529,38.0807109 C389.732629,39.8823951 388.797678,41.9914261 388.797678,44.407803 C388.797678,46.5274315 389.352484,48.3079197 390.462095,49.7492677 C391.571706,51.1906156 393.338865,52.5047848 395.763571,53.6917773 L402.606173,56.9348094 C405.236363,58.2065867 406.551457,59.9234861 406.551457,62.0855075 C406.551457,63.6540332 405.976104,64.9046135 404.825395,65.8372505 C403.674687,66.7698875 402.030819,67.2362056 399.89379,67.2362056 Z M419.111639,36.1412505 L414.919775,36.1412505 L414.919775,70.5428266 L419.111639,70.5428266 L419.111639,36.1412505 Z M414.303324,26.9208651 C414.303324,27.7687163 414.549904,28.4469979 415.043065,28.9557088 C415.536226,29.4644197 416.193773,29.7187752 417.015707,29.7187752 C417.837641,29.7187752 418.495189,29.4644197 418.988349,28.9557088 C419.48151,28.4469979 419.72809,27.7687163 419.72809,26.9208651 C419.72809,26.0730139 419.48151,25.3947323 418.988349,24.8860214 C418.495189,24.3773105 417.837641,24.122955 417.015707,24.122955 C416.193773,24.122955 415.536226,24.3773105 415.043065,24.8860214 C414.549904,25.3947323 414.303324,26.0730139 414.303324,26.9208651 Z M425.507315,72.0053704 L429.760824,71.3694818 C430.664952,73.5738961 431.908127,75.2166081 433.490351,76.2976188 C435.072574,77.3786296 437.30207,77.9191349 440.17884,77.9191349 C443.877544,77.9191349 446.692669,76.8911146 448.624214,74.8350749 C450.555759,72.7790353 451.521532,69.8221531 451.521532,65.9644283 L451.521532,63.4208737 C448.768053,67.8297013 444.822768,70.0341156 439.68568,70.0341156 C435.247235,70.0341156 431.569079,68.4020011 428.651213,65.137773 C425.733347,61.8735449 424.274414,57.7402687 424.274414,52.7379443 C424.274414,47.6084422 425.774443,43.4327741 428.774503,40.2109379 C431.774563,36.9891017 435.411622,35.3781842 439.68568,35.3781842 C444.740575,35.3781842 448.685859,37.6461873 451.521532,42.1821927 L451.521532,36.1412505 L455.713397,36.1412505 L455.713397,66.2187837 C455.713397,71.1363223 454.36748,74.9940471 451.675645,77.7919572 C448.98381,80.5898672 445.172091,81.9888223 440.240486,81.9888223 C436.089718,81.9888223 432.801981,81.0773822 430.377275,79.2545011 C427.952569,77.4316199 426.329249,75.0152431 425.507315,72.0053704 Z M428.774503,52.7379443 C428.774503,56.680454 429.812195,59.8810932 431.887579,62.339863 C433.962963,64.7986327 436.706169,66.0280171 440.117195,66.0280171 C443.487126,66.0280171 446.250879,64.8092302 448.408457,62.3716574 C450.566034,59.9340845 451.644823,56.7228469 451.644823,52.7379443 C451.644823,48.5834721 450.586582,45.3298415 448.470102,42.9770535 C446.353621,40.6242655 443.589867,39.4478715 440.17884,39.4478715 C436.850007,39.4478715 434.117076,40.7196488 431.980047,43.2632034 C429.843017,45.806758 428.774503,48.9650053 428.774503,52.7379443 Z M488,50.8302784 C488,47.5236574 487.835613,45.1284765 487.506839,43.6447366 C486.931486,41.1435749 485.719133,39.1405257 483.869781,37.6355889 C482.020429,36.1306521 479.698464,35.3781842 476.903888,35.3781842 C474.684666,35.3781842 472.681201,35.9186895 470.893494,36.9997002 C469.105787,38.0807109 467.677676,39.4902644 466.609162,41.2283597 L466.609162,36.1412505 L462.417298,36.1412505 L462.417298,70.5428266 L466.609162,70.5428266 L466.609162,52.0384668 C466.609162,49.4525193 466.835194,47.4176756 467.287258,45.9339358 C467.862612,43.941485 468.900304,42.3623608 470.400334,41.1965653 C471.900363,40.0307698 473.75999,39.4478715 475.979212,39.4478715 C480.212174,39.4478715 482.719072,41.5251081 483.49991,45.6795803 C483.705393,46.6970021 483.808136,48.6046681 483.808136,51.4025782 L483.808136,70.5428266 L488,70.5428266 L488,50.8302784 Z" id="fragments.design"></path>
        </g>
    </g>
</svg>