<?xml version="1.0" encoding="UTF-8"?>
<svg width="379px" height="106px" viewBox="0 0 379 106" version="1.1" xmlns="http://www.w3.org/2000/svg" xmlns:xlink="http://www.w3.org/1999/xlink">
    <!-- Generator: Sketch 44.1 (41455) - http://www.bohemiancoding.com/sketch -->
    <title>logo-inline-2</title>
    <desc>Created with Sketch.</desc>
    <defs></defs>
    <g id="Page-1" stroke="none" stroke-width="1" fill="none" fill-rule="evenodd">
        <g id="logo-inline-2" transform="translate(-9.000000, -5.000000)" fill-rule="nonzero">
            <g id="Group-18" fill="#6032C3">
                <g id="Group-17">
                    <g id="Group-16" transform="translate(27.368421, 5.152795)">
                        <polygon id="Polygon-4-Copy" points="18.2321138 0 18.2321138 20.9937888 1.16389847e-14 31.4906832 0 10.4968944"></polygon>
                        <polygon id="Polygon-4-Copy" fill-opacity="0.5" points="18.1052632 0 18.1052632 20.9937888 36.3373769 31.4906832 36.3373769 10.4968944"></polygon>
                    </g>
                    <g id="Group-16" transform="translate(86.703545, 24.091421) rotate(60.000000) translate(-86.703545, -24.091421) translate(68.203545, 8.091421)">
                        <polygon id="Polygon-4-Copy" points="18.2321138 0 18.2321138 20.9937888 1.16389847e-14 31.4906832 0 10.4968944"></polygon>
                        <polygon id="Polygon-4-Copy" fill-opacity="0.5" points="18.1052632 0 18.1052632 20.9937888 36.3373769 31.4906832 36.3373769 10.4968944"></polygon>
                    </g>
                    <g id="Group-16" transform="translate(104.624596, 60.785831) rotate(120.000000) translate(-104.624596, -60.785831) translate(86.124596, 44.785831)">
                        <polygon id="Polygon-4-Copy" points="18.2321138 0 18.2321138 20.9937888 1.16389847e-14 31.4906832 0 10.4968944"></polygon>
                        <polygon id="Polygon-4-Copy" fill-opacity="0.5" points="18.1052632 0 18.1052632 20.9937888 36.3373769 31.4906832 36.3373769 10.4968944"></polygon>
                    </g>
                    <g id="Group-16" transform="translate(81.710527, 94.541614) rotate(180.000000) translate(-81.710527, -94.541614) translate(63.210527, 78.541614)">
                        <polygon id="Polygon-4-Copy" points="18.2321138 0 18.2321138 20.9937888 1.16389847e-14 31.4906832 0 10.4968944"></polygon>
                        <polygon id="Polygon-4-Copy" fill-opacity="0.5" points="18.1052632 0 18.1052632 20.9937888 36.3373769 31.4906832 36.3373769 10.4968944"></polygon>
                    </g>
                    <g id="Group-16" transform="translate(41.065679, 91.957451) rotate(-120.000000) translate(-41.065679, -91.957451) translate(22.565679, 75.957451)">
                        <polygon id="Polygon-4-Copy" points="18.2321138 0 18.2321138 20.9937888 1.16389847e-14 31.4906832 0 10.4968944"></polygon>
                        <polygon id="Polygon-4-Copy" fill-opacity="0.5" points="18.1052632 0 18.1052632 20.9937888 36.3373769 31.4906832 36.3373769 10.4968944"></polygon>
                    </g>
                    <g id="Group-16" transform="translate(23.144626, 55.263042) rotate(-60.000000) translate(-23.144626, -55.263042) translate(4.644626, 39.263042)">
                        <polygon id="Polygon-4-Copy" points="18.2321138 0 18.2321138 20.9937888 1.16389847e-14 31.4906832 0 10.4968944"></polygon>
                        <polygon id="Polygon-4-Copy" fill-opacity="0.5" points="18.1052632 0 18.1052632 20.9937888 36.3373769 31.4906832 36.3373769 10.4968944"></polygon>
                    </g>
                    <g id="Group" transform="translate(45.634783, 36.885714)">
                        <polygon id="Polygon-5" fill-opacity="0.67" points="18.3673202 0.177639752 18.3673202 21.1714286 0.135206405 31.668323 0.135206405 10.6745342"></polygon>
                        <polygon id="Polygon-5" fill-opacity="0.5" points="18.3652174 0.177639752 36.5973312 10.6745342 36.5973312 31.668323 18.3652174 21.1714286"></polygon>
                        <polygon id="Polygon-5" points="18.365682 21.1714286 36.5977958 31.668323 18.365682 42.1652174 0.133568274 31.668323"></polygon>
                    </g>
                </g>
            </g>
            <g id="Group" transform="translate(144.000000, 33.000000)" fill="#000000">
                <path d="M0,17.9114658 L0,10.5951333 L5.21979248,10.5951333 L5.21979248,10.1615729 C5.21979248,7.10856951 6.05040442,4.65175157 7.71165321,2.79104536 C9.37290201,0.930339149 11.7685617,0 14.8987042,0 C16.2102164,0 17.5129656,0.162583541 18.806991,0.487755499 L18.1774683,7.47891766 C17.3031268,7.33439679 16.6386373,7.26213743 16.1839797,7.26213743 C14.103047,7.26213743 13.0625963,8.30086561 13.0625963,10.3783531 L13.0625963,10.5951333 L18.2823887,10.5951333 L18.2823887,17.9114658 L13.0625963,17.9114658 L13.0625963,40.6191941 L5.21979248,40.6191941 L5.21979248,17.9114658 L0,17.9114658 Z M20.5119483,40.6191941 L20.5119483,10.5951333 L28.3547521,10.5951333 L28.3547521,16.7462721 C29.1066858,14.4881335 30.1995962,12.7855226 31.6335162,11.6383882 C33.0674363,10.4912538 34.7286601,9.91769515 36.6172377,9.91769515 C37.1418426,9.91769515 37.7538724,9.98092209 38.4533456,10.1073778 L38.4533456,18.7514892 C37.2292676,18.5347079 36.1538437,18.4263189 35.2270417,18.4263189 C33.5657929,18.4263189 32.1887258,18.8237453 31.0957989,19.6186101 C30.0028721,20.4134749 29.2290915,21.4973651 28.7744339,22.8703134 C28.4946447,23.8458293 28.3547521,25.2639191 28.3547521,27.1246253 L28.3547521,40.6191941 L20.5119483,40.6191941 Z M38.1385843,32.8963987 C38.1385843,30.295023 38.9517096,28.3078908 40.5779848,26.9349426 C42.2042599,25.5619943 44.6786091,24.541331 48.0011067,23.8729219 L53.4832003,22.7619233 C54.7772257,22.5270769 55.4242287,21.840613 55.4242287,20.7025112 C55.4242287,19.6728 55.0307809,18.8237526 54.2438736,18.1553436 C53.4569663,17.4869346 52.399029,17.1527351 51.07003,17.1527351 C49.8284651,17.1527351 48.840474,17.4733859 48.1060272,18.1146973 C47.3715804,18.7560087 46.9081863,19.6005398 46.7158312,20.6483161 L38.8730274,20.2418532 C39.117843,17.2430452 40.3593893,14.7726786 42.5977035,12.8306794 C44.8360176,10.8886802 47.7825042,9.91769515 51.4372515,9.91769515 C54.0777628,9.91769515 56.2810702,10.4054458 58.04724,11.3809617 C59.8134098,12.3564775 61.1249023,13.7023079 61.9817569,15.4184933 C62.4364145,16.3036836 62.7642876,17.2114417 62.9653862,18.1417948 C63.1664847,19.0721479 63.2670325,20.3321704 63.2670325,21.9218999 L63.2670325,32.5170333 C63.2670325,33.6551351 63.7653996,34.2241775 64.7621489,34.2241775 C64.954504,34.2241775 65.2954921,34.1519182 65.7851233,34.0073973 L65.7851233,40.7817792 C65.5577945,40.908235 65.1687184,41.0256565 64.6178833,41.1340471 C64.0670482,41.2424378 63.6167691,41.2966323 63.2670325,41.2966323 C59.6472588,41.2966323 57.155423,39.6617645 55.7914503,36.3919798 C53.6930308,39.6617645 50.833977,41.2966323 47.2142033,41.2966323 C44.6436394,41.2966323 42.48842,40.5333929 40.7484805,39.0068912 C39.008541,37.4803895 38.1385843,35.443579 38.1385843,32.8963987 Z M45.9026977,32.3002531 C45.9026977,33.1493132 46.2174559,33.8402932 46.8469818,34.3732139 C47.4765076,34.9061346 48.3333494,35.172591 49.4175328,35.172591 C51.1137553,35.172591 52.5389105,34.5764514 53.6930413,33.3841542 C54.847172,32.191857 55.4242287,30.4756974 55.4242287,28.2356239 L55.4242287,26.6368698 C55.0220316,27.0523673 54.1302167,27.4588261 52.7487572,27.8562585 L49.8896749,28.6420868 C48.3858075,29.0575843 47.3453568,29.5633998 46.7682914,30.1595484 C46.1912261,30.755697 45.9026977,31.4692581 45.9026977,32.3002531 Z M66.6769472,24.0355071 C66.6769472,21.9580196 67.0179352,20.0341144 67.6999216,18.2637337 C68.3819079,16.493353 69.3043243,15.0030039 70.4671985,13.7926416 C71.6300727,12.5822793 72.9852816,11.6338753 74.532866,10.9474012 C76.0804504,10.2609271 77.7198161,9.91769515 79.4510122,9.91769515 C81.3395898,9.91769515 82.9046375,10.3106054 84.1462024,11.0964376 C85.3877673,11.8822698 86.5069076,12.9887412 87.5036569,14.4158848 L87.5036569,10.5951333 L95.3464606,10.5951333 L95.3464606,35.687444 C95.3464606,40.2037212 94.0655696,43.821205 91.5037491,46.5400039 C88.9419286,49.2588028 85.4839599,50.6181818 81.1297394,50.6181818 C79.4160301,50.6181818 77.8247525,50.4239848 76.3558589,50.035585 C74.8869652,49.6471851 73.6366756,49.1323373 72.6049527,48.4910259 C71.5732298,47.8497145 70.6639283,47.0955075 69.877021,46.2283823 C69.0901136,45.3612571 68.4824554,44.4580152 68.0540281,43.5186296 C67.6256008,42.5792439 67.3239575,41.6127751 67.1490892,40.6191941 L74.8869725,39.6707806 C75.2541959,40.7727522 75.9580303,41.6759941 76.9984966,42.3805334 C78.038963,43.0850726 79.4510033,43.437337 81.2346599,43.437337 C83.3330794,43.437337 84.9024988,42.7644218 85.9429651,41.4185712 C86.9834315,40.0727205 87.5036569,38.1984936 87.5036569,35.7958341 L87.5036569,33.9532023 C85.545132,36.8436197 82.8784305,38.2888067 79.5034724,38.2888067 C77.1602373,38.2888067 75.0137612,37.692667 73.0639797,36.5003699 C71.1141982,35.3080727 69.5622654,33.6190103 68.4081346,31.4331322 C67.2540039,29.247254 66.6769472,26.7814036 66.6769472,24.0355071 Z M74.7820521,24.1438972 C74.7820521,26.0226685 75.3853386,27.6394715 76.5919299,28.9943547 C77.7985211,30.3492378 79.3810554,31.0266693 81.3395803,31.0266693 C83.315592,31.0266693 84.8937547,30.4350458 86.0741157,29.2517812 C87.2544767,28.0685166 87.8446483,26.3659056 87.8446483,24.1438972 C87.8446483,22.0844748 87.2457334,20.4044449 86.0478856,19.1037571 C84.8500378,17.8030692 83.2806184,17.1527351 81.3395803,17.1527351 C79.2936213,17.1527351 77.6892287,17.775972 76.5263546,19.0224645 C75.3634804,20.268957 74.7820521,21.9760842 74.7820521,24.1438972 Z M100.540023,40.6191941 L100.540023,10.5951333 L108.382827,10.5951333 L108.382827,15.4726883 C109.274655,13.919089 110.420025,12.604872 111.818972,11.5299981 C113.217918,10.4551241 114.721763,9.91769515 116.330551,9.91769515 C120.037759,9.91769515 122.617028,11.9048273 124.068434,15.8791513 C124.767908,14.2352264 125.869561,12.8306852 127.373429,11.6654857 C128.877296,10.5002862 130.590979,9.91769515 132.514531,9.91769515 C134.665411,9.91769515 136.449041,10.5002862 137.865474,11.6654857 C139.281907,12.8306852 140.234925,14.3616802 140.724556,16.2585166 C141.004345,17.3966185 141.144238,19.1308429 141.144238,21.461242 L141.144238,40.6191941 L133.301434,40.6191941 L133.301434,23.466459 C133.301434,22.2199665 133.248974,21.2625301 133.144053,20.5941211 C132.72437,18.4443731 131.491567,17.3695153 129.445608,17.3695153 C128.396398,17.3695153 127.473981,17.7127472 126.678331,18.3992213 C125.88268,19.0856955 125.353711,19.9437753 125.091409,20.9734865 C124.881567,21.8044815 124.776647,22.9335338 124.776647,24.3606774 L124.776647,40.6191941 L116.933844,40.6191941 L116.933844,23.466459 C116.933844,22.2199665 116.881384,21.2625301 116.776463,20.5941211 C116.356779,18.4443731 115.115233,17.3695153 113.051787,17.3695153 C112.002577,17.3695153 111.080161,17.7127472 110.28451,18.3992213 C109.488859,19.0856955 108.959891,19.9437753 108.697588,20.9734865 C108.487746,21.8044815 108.382827,22.9335338 108.382827,24.3606774 L108.382827,40.6191941 L100.540023,40.6191941 Z M144.580383,25.6342612 C144.580383,23.3580575 144.965087,21.2264067 145.734508,19.2392447 C146.503928,17.2520827 147.535636,15.5856014 148.829661,14.2397508 C150.123686,12.8939002 151.631903,11.8371072 153.354355,11.0693401 C155.076808,10.301573 156.873553,9.91769515 158.744644,9.91769515 C163.028917,9.91769515 166.456284,11.3899794 169.026848,14.3345922 C171.597412,17.2792049 172.882675,21.0095939 172.882675,25.5258711 C172.882675,26.4833219 172.830215,27.3323693 172.725294,28.0730387 L152.423186,28.0730387 C152.633028,29.7169636 153.389322,31.0989237 154.692091,32.2189605 C155.99486,33.3389972 157.529306,33.8990072 159.295476,33.8990072 C161.586251,33.8990072 163.326164,33.0138301 164.515269,31.2434495 L172.122001,32.0834728 C171.370068,34.93776 169.861851,37.1868323 167.597307,38.8307573 C165.332762,40.4746822 162.565513,41.2966323 159.295476,41.2966323 C154.871308,41.2966323 151.312792,39.8740263 148.61982,37.0287717 C145.926848,34.183517 144.580383,30.3853849 144.580383,25.6342612 Z M152.528107,22.9245085 L164.88249,22.9245085 C164.16553,19.1850309 162.084629,17.3153202 158.639723,17.3153202 C157.188316,17.3153202 155.876824,17.8075871 154.705206,18.7921355 C153.533589,19.7766839 152.807896,21.1541278 152.528107,22.9245085 Z M176.44997,40.6191941 L176.44997,10.5951333 L184.292774,10.5951333 L184.292774,15.4184933 C185.132142,13.7745684 186.251282,12.4468028 187.650228,11.4351567 C189.049175,10.4235106 190.710398,9.91769515 192.63395,9.91769515 C194.872264,9.91769515 196.734583,10.5273834 198.220964,11.7467783 C199.707344,12.9661731 200.704079,14.5603951 201.211197,16.5294919 C201.508473,17.7759844 201.657109,19.5915006 201.657109,21.976095 L201.657109,40.6191941 L193.814305,40.6191941 L193.814305,24.0897022 C193.814305,22.5902981 193.753102,21.5335051 193.630694,20.9192914 C193.438339,19.7811896 192.98806,18.9050449 192.279843,18.2908312 C191.571627,17.6766175 190.631724,17.3695153 189.460106,17.3695153 C188.253515,17.3695153 187.234922,17.6946824 186.404298,18.3450263 C185.573673,18.9953702 184.992245,19.8895797 184.659995,21.0276815 C184.41518,21.8225463 184.292774,22.9696635 184.292774,24.4690675 L184.292774,40.6191941 L176.44997,40.6191941 Z M203.545677,17.9114658 L203.545677,10.5951333 L208.765469,10.5951333 L208.765469,4.4981896 L216.608273,3.38719097 L216.608273,10.5951333 L221.828065,10.5951333 L221.828065,17.9114658 L216.608273,17.9114658 L216.608273,40.6191941 L208.765469,40.6191941 L208.765469,17.9114658 L203.545677,17.9114658 Z M222.011676,35.118396 L227.44131,30.5118162 C229.189993,32.8783455 231.305867,34.0615924 233.788997,34.0615924 C234.523444,34.0615924 235.074271,33.8990088 235.441494,33.5738369 C235.808717,33.2486649 235.992326,32.8241412 235.992326,32.3002531 C235.992326,31.79443 235.821832,31.3473253 235.480839,30.9589254 C235.139846,30.5705256 234.558418,30.168583 233.736537,29.7530855 L229.224957,27.5310882 C225.272934,25.5981215 223.296952,22.6896826 223.296952,18.8056843 C223.296952,16.2585039 224.201882,14.1404017 226.011768,12.451314 C227.821655,10.7622263 230.055564,9.91769515 232.713562,9.91769515 C236.525691,9.91769515 239.603327,11.552563 241.946562,14.8223477 L236.91038,19.8624878 C235.458974,18.055977 233.972615,17.1527351 232.451261,17.1527351 C231.839222,17.1527351 231.362713,17.30177 231.02172,17.5998443 C230.680727,17.8979186 230.510233,18.2817964 230.510233,18.7514892 C230.510233,19.4921587 231.06106,20.1424928 232.16273,20.7025112 L236.621849,22.9245085 C238.982571,24.0987405 240.68314,25.3994089 241.723606,26.8265525 C242.764072,28.2536961 243.284298,30.1143744 243.284298,32.4086432 C243.284298,35.0100188 242.38374,37.1416697 240.582596,38.8036597 C238.781453,40.4656497 236.481969,41.2966323 233.684076,41.2966323 C228.612896,41.2966323 224.722135,39.2372408 222.011676,35.118396 Z" id="fragments.design"></path>
            </g>
        </g>
    </g>
</svg>