<?xml version="1.0" encoding="UTF-8"?>
<svg width="327px" height="106px" viewBox="0 0 327 106" version="1.1" xmlns="http://www.w3.org/2000/svg" xmlns:xlink="http://www.w3.org/1999/xlink">
    <!-- Generator: Sketch 44.1 (41455) - http://www.bohemiancoding.com/sketch -->
    <title>logo-fragments-min</title>
    <desc>Created with Sketch.</desc>
    <defs></defs>
    <g id="Page-1" stroke="none" stroke-width="1" fill="none" fill-rule="evenodd">
        <g id="logo-fragments-min" fill="#00101A">
            <path d="M24,44.5235546 L24,36.140257 L29.9860916,36.140257 L29.9860916,35.643469 C29.9860916,32.1452359 30.9386428,29.330132 32.8437736,27.1980728 C34.7489044,25.0660136 37.4962624,24 41.0859299,24 C42.5899806,24 44.0839818,24.1862936 45.5679784,24.5588865 L44.8460377,32.5695931 C43.8433373,32.4039963 43.0812964,32.3211991 42.5598922,32.3211991 C40.1734652,32.3211991 38.9802695,33.5114085 38.9802695,35.891863 L38.9802695,36.140257 L44.9663612,36.140257 L44.9663612,44.5235546 L38.9802695,44.5235546 L38.9802695,70.5428266 L29.9860916,70.5428266 L29.9860916,44.5235546 L24,44.5235546 Z M47.5232345,70.5428266 L47.5232345,36.140257 L56.5174124,36.140257 L56.5174124,43.1884368 C57.3797348,40.6009863 58.6330915,38.6500779 60.2775202,37.3356531 C61.9219489,36.0212283 63.8270512,35.3640257 65.9928841,35.3640257 C66.5945044,35.3640257 67.2963841,35.4364732 68.0985445,35.5813704 L68.0985445,45.4860814 C66.6947639,45.2376861 65.4614608,45.1134904 64.3985984,45.1134904 C62.4934676,45.1134904 60.9142381,45.5688748 59.6608625,46.4796574 C58.407487,47.39044 57.5201104,48.6323976 56.9987062,50.2055675 C56.6778421,51.3233461 56.5174124,52.9482406 56.5174124,55.0802998 L56.5174124,70.5428266 L47.5232345,70.5428266 Z M67.7375741,61.6937901 C67.7375741,58.7130472 68.6700715,56.4361249 70.5350943,54.862955 C72.4001171,53.2897851 75.2377168,52.1202751 79.0479784,51.3543897 L85.3348787,50.0813704 C86.8188753,49.8122756 87.5608625,49.0257025 87.5608625,47.7216274 C87.5608625,46.54175 87.1096541,45.5688832 86.2072237,44.8029979 C85.3047933,44.0371125 84.091544,43.6541756 82.5674394,43.6541756 C81.1436047,43.6541756 80.0105702,44.021588 79.1683019,44.756424 C78.3260335,45.4912599 77.7946103,46.4589519 77.5740162,47.6595289 L68.5798383,47.1937901 C68.8605944,43.7576559 70.2844077,40.9270275 72.8513208,38.7018201 C75.4182339,36.4766127 78.7972836,35.3640257 82.9885714,35.3640257 C86.0167267,35.3640257 88.5434939,35.9229066 90.5689488,37.0406852 C92.5944037,38.1584638 94.0984317,39.7005612 95.0810782,41.6670236 C95.6024824,42.6813041 95.9784894,43.7214436 96.2091105,44.7874732 C96.4397316,45.8535028 96.5550404,47.2972785 96.5550404,49.1188437 L96.5550404,61.2591006 C96.5550404,62.5631757 97.1265711,63.2152034 98.2696496,63.2152034 C98.4902437,63.2152034 98.881291,63.1324063 99.4428032,62.9668094 L99.4428032,70.7291221 C99.1821011,70.8740193 98.7359061,71.0085647 98.1042049,71.1327623 C97.4725036,71.2569599 96.9561206,71.3190578 96.5550404,71.3190578 C92.4038606,71.3190578 89.5462073,69.4457718 87.9819946,65.6991435 C85.5755136,69.4457718 82.2967323,71.3190578 78.1455526,71.3190578 C75.1976133,71.3190578 72.7259938,70.4445127 70.7306199,68.6953961 C68.7352461,66.9462796 67.7375741,64.6124343 67.7375741,61.6937901 Z M76.6415094,61.0107066 C76.6415094,61.983588 77.0024762,62.775336 77.7244205,63.3859743 C78.4463648,63.9966126 79.4289965,64.3019272 80.672345,64.3019272 C82.6175839,64.3019272 84.251961,63.6188505 85.5755256,62.2526767 C86.8990902,60.8865028 87.5608625,58.9200699 87.5608625,56.3533191 L87.5608625,54.5214133 C87.0996203,54.9975042 86.0768812,55.4632383 84.4926146,55.9186296 L81.2138005,56.8190578 C79.4891558,57.2951487 78.2959602,57.8747289 77.6341779,58.5578158 C76.9723956,59.2409028 76.6415094,60.0585249 76.6415094,61.0107066 Z M100.465553,51.5406852 C100.465553,49.1602308 100.8566,46.955756 101.638706,44.9271949 C102.420813,42.8986337 103.478646,41.190942 104.812237,39.8040685 C106.145829,38.4171951 107.699991,37.3304822 109.474771,36.5438972 C111.249551,35.7573123 113.129586,35.3640257 115.114933,35.3640257 C117.280766,35.3640257 119.075572,35.8142353 120.499407,36.7146681 C121.923242,37.6151009 123.206679,38.8829326 124.349757,40.5182013 L124.349757,36.140257 L133.343935,36.140257 L133.343935,64.891863 C133.343935,70.0667639 131.875001,74.2117974 128.937089,77.3270878 C125.999177,80.4423782 122.033556,82 117.040108,82 C115.074815,82 113.249928,81.7774826 111.565391,81.3324411 C109.880854,80.8873996 108.447014,80.2974698 107.263827,79.5626338 C106.080641,78.8277979 105.037848,77.9636024 104.135418,76.9700214 C103.232987,75.9764404 102.536121,74.9414758 102.044798,73.8650964 C101.553475,72.788717 101.207548,71.6813048 101.007008,70.5428266 L109.880863,69.4561028 C110.301997,70.7187786 111.109158,71.7537433 112.302372,72.5610278 C113.495585,73.3683124 115.114922,73.7719486 117.160431,73.7719486 C119.566912,73.7719486 121.366733,73.0008999 122.559946,71.4587794 C123.75316,69.916659 124.349757,67.7691073 124.349757,65.01606 L124.349757,62.9047109 C122.103708,66.2166475 119.045518,67.872591 115.175094,67.872591 C112.487857,67.872591 110.026265,67.1895143 107.790243,65.8233405 C105.554221,64.4571666 103.774454,62.5217827 102.450889,60.0171306 C101.127325,57.5124786 100.465553,54.687025 100.465553,51.5406852 Z M109.760539,51.6648822 C109.760539,53.817641 110.452392,55.6702278 111.836119,57.2226981 C113.219845,58.7751684 115.034706,59.5513919 117.280755,59.5513919 C119.546858,59.5513919 121.356705,58.87349 122.71035,57.517666 C124.063996,56.1618419 124.740809,54.2109335 124.740809,51.6648822 C124.740809,49.3051274 124.053969,47.3800931 122.68027,45.8897216 C121.30657,44.3993501 119.50675,43.6541756 117.280755,43.6541756 C114.934436,43.6541756 113.094508,44.3683012 111.760916,45.7965739 C110.427325,47.2248465 109.760539,49.1809298 109.760539,51.6648822 Z M139.299946,70.5428266 L139.299946,36.140257 L148.294124,36.140257 L148.294124,41.7291221 C149.316878,39.9489561 150.630396,38.4430825 152.234717,37.2114561 C153.839038,35.9798297 155.563657,35.3640257 157.408625,35.3640257 C161.660075,35.3640257 164.617997,37.640948 166.28248,42.1948608 C167.08464,40.3111969 168.348024,38.7018268 170.072668,37.3667024 C171.797313,36.0315779 173.762577,35.3640257 175.968518,35.3640257 C178.435161,35.3640257 180.480639,36.0315779 182.105013,37.3667024 C183.729388,38.7018268 184.822315,40.4560919 185.383827,42.6295503 C185.704692,43.9336254 185.865121,45.9207575 185.865121,48.5910064 L185.865121,70.5428266 L176.870943,70.5428266 L176.870943,50.888651 C176.870943,49.4603783 176.810782,48.3633157 176.690458,47.5974304 C176.209162,45.1341775 174.795376,43.9025696 172.449057,43.9025696 C171.245816,43.9025696 170.187983,44.2958562 169.275526,45.0824411 C168.363068,45.8690261 167.756444,46.8522425 167.455633,48.0321199 C167.214985,48.9843017 167.094663,50.2780075 167.094663,51.9132762 L167.094663,70.5428266 L158.100485,70.5428266 L158.100485,50.888651 C158.100485,49.4603783 158.040324,48.3633157 157.92,47.5974304 C157.438704,45.1341775 156.014891,43.9025696 153.648518,43.9025696 C152.445277,43.9025696 151.387444,44.2958562 150.474987,45.0824411 C149.562529,45.8690261 148.955904,46.8522425 148.655094,48.0321199 C148.414446,48.9843017 148.294124,50.2780075 148.294124,51.9132762 L148.294124,70.5428266 L139.299946,70.5428266 Z M189.805714,53.372591 C189.805714,50.7644409 190.246896,48.3219243 191.129272,46.0449679 C192.011649,43.7680115 193.194817,41.8585016 194.678814,40.3163812 C196.162811,38.7742607 197.892443,37.563352 199.867763,36.6836188 C201.843083,35.8038857 203.903601,35.3640257 206.04938,35.3640257 C210.962612,35.3640257 214.893139,37.0510181 217.841078,40.4250535 C220.789017,43.799089 222.262965,48.073493 222.262965,53.248394 C222.262965,54.345473 222.202804,55.3183398 222.08248,56.1670236 L198.799892,56.1670236 C199.04054,58.0506875 199.907863,59.6341834 201.401887,60.9175589 C202.89591,62.2009343 204.655623,62.8426124 206.681078,62.8426124 C209.308153,62.8426124 211.303497,61.828347 212.66717,59.7997859 L221.39062,60.7623126 C220.528298,64.03285 218.798665,66.6099121 216.201671,68.493576 C213.604677,70.37724 210.431178,71.3190578 206.681078,71.3190578 C201.607414,71.3190578 197.526484,69.6889885 194.438167,66.4288009 C191.34985,63.1686132 189.805714,58.8165868 189.805714,53.372591 Z M198.920216,50.267666 L213.088302,50.267666 C212.266088,45.982848 209.879696,43.8404711 205.929057,43.8404711 C204.264574,43.8404711 202.760546,44.4045268 201.416927,45.5326552 C200.073309,46.6607837 199.24108,48.2391048 198.920216,50.267666 Z M226.353962,70.5428266 L226.353962,36.140257 L235.34814,36.140257 L235.34814,41.6670236 C236.310733,39.7833596 237.59417,38.2619615 239.198491,37.1027837 C240.802811,35.9436059 242.707913,35.3640257 244.913854,35.3640257 C247.480768,35.3640257 249.616487,36.0626268 251.321078,37.4598501 C253.025669,38.8570734 254.16873,40.683786 254.750296,42.9400428 C255.091215,44.3683155 255.261671,46.4485945 255.261671,49.1809422 L255.261671,70.5428266 L246.267493,70.5428266 L246.267493,51.6027837 C246.267493,49.8847166 246.197305,48.6738079 246.056927,47.9700214 C245.836333,46.6659464 245.31995,45.6620306 244.507763,44.9582441 C243.695575,44.2544576 242.617689,43.9025696 241.27407,43.9025696 C239.890343,43.9025696 238.722215,44.2751569 237.76965,45.0203426 C236.817084,45.7655284 236.150298,46.7901434 235.769272,48.0942184 C235.488516,49.005001 235.34814,50.3194061 235.34814,52.0374732 L235.34814,70.5428266 L226.353962,70.5428266 Z M257.427493,44.5235546 L257.427493,36.140257 L263.413585,36.140257 L263.413585,29.1541756 L272.407763,27.8811563 L272.407763,36.140257 L278.393854,36.140257 L278.393854,44.5235546 L272.407763,44.5235546 L272.407763,70.5428266 L263.413585,70.5428266 L263.413585,44.5235546 L257.427493,44.5235546 Z M278.60442,64.2398287 L284.831159,58.9614561 C286.83656,61.6731042 289.263059,63.0289079 292.110728,63.0289079 C292.952996,63.0289079 293.584688,62.8426143 294.005822,62.4700214 C294.426956,62.0974285 294.63752,61.6109951 294.63752,61.0107066 C294.63752,60.4311177 294.441997,59.9188102 294.050943,59.4737687 C293.65989,59.0287273 292.993104,58.568168 292.050566,58.0920771 L286.876658,55.5460385 C282.344452,53.3311809 280.078383,49.9985947 280.078383,45.5481799 C280.078383,42.6295357 281.116162,40.2025436 283.191752,38.2671306 C285.267342,36.3317177 287.829203,35.3640257 290.877412,35.3640257 C295.249186,35.3640257 298.778639,37.2373117 301.465876,40.98394 L295.69035,46.7591006 C294.025868,44.6891403 292.321303,43.6541756 290.576604,43.6541756 C289.874713,43.6541756 289.32825,43.8249448 288.937197,44.1664882 C288.546144,44.5080317 288.35062,44.9478917 288.35062,45.4860814 C288.35062,46.3347651 288.982312,47.0799397 290.245714,47.7216274 L295.359461,50.267666 C298.066752,51.6131402 300.016975,53.1034893 301.210189,54.738758 C302.403402,56.3740267 303,58.506054 303,61.1349036 C303,64.1156466 301.967234,66.5581632 299.901671,68.4625268 C297.836108,70.3668903 295.199046,71.3190578 291.990404,71.3190578 C286.174742,71.3190578 281.712792,68.9593384 278.60442,64.2398287 Z" id="fragments.design"></path>
        </g>
    </g>
</svg>