<?xml version="1.0" encoding="iso-8859-1"?>
<!-- Generator: Adobe Illustrator 17.0.0, SVG Export Plug-In . SVG Version: 6.00 Build 0)  -->
<!DOCTYPE svg PUBLIC "-//W3C//DTD SVG 1.1//EN" "http://www.w3.org/Graphics/SVG/1.1/DTD/svg11.dtd">
<svg version="1.1" id="goals" xmlns="http://www.w3.org/2000/svg" xmlns:xlink="http://www.w3.org/1999/xlink" x="0px" y="0px"
	 width="122px" height="140px" viewBox="0 0 122 140" style="enable-background:new 0 0 122 140;" xml:space="preserve">
<g id="goals_1_">
	<g>
		<g>
			<rect x="1" y="104" style="fill:#C4C4C4;" width="75" height="10"/>
		</g>
		<g>
			<rect x="76" y="104" style="fill:#E4E5E7;" width="45" height="10"/>
		</g>
	</g>
	<g>
		<polygon style="fill:#27BA90;" points="36,20 21,20 21,10 36,10 32.5,15 		"/>
	</g>
	<g>
		<polygon style="fill:#34C9A2;" points="86,10 71,10 71,0 86,0 82.5,5 		"/>
	</g>
	<g>
		<polygon style="fill:#27BA90;" points="116,20 101,20 101,10 116,10 112.5,15 		"/>
	</g>
	<g>
		<rect x="20" y="10" width="2" height="29.996"/>
	</g>
	<g>
		<rect x="100" y="10" width="2" height="30.442"/>
	</g>
	<g>
		<rect x="70" width="2" height="21"/>
	</g>
	<g>
		<path style="fill:#34C9A2;" d="M61,121c-28.121,0-51-22.878-51-51s22.879-51,51-51s51,22.878,51,51S89.121,121,61,121z M61,21
			c-27.019,0-49,21.981-49,49s21.981,49,49,49s49-21.981,49-49S88.019,21,61,21z"/>
	</g>
	<g>
		<path style="fill:#34C9A2;" d="M61,40C44.43,40,31,53.432,31,70s13.431,30,30,30c16.568,0,30-13.432,30-30S77.568,40,61,40z
			 M61,90c-11.046,0-20-8.955-20-20s8.954-20,20-20c11.046,0,20,8.955,20,20S72.045,90,61,90z"/>
	</g>
	<g>
		<path style="fill:#34C9A2;" d="M61,81c-6.065,0-11-4.935-11-11s4.935-11,11-11s11,4.935,11,11S67.065,81,61,81z M61,61
			c-4.963,0-9,4.038-9,9s4.037,9,9,9s9-4.038,9-9S65.963,61,61,61z"/>
	</g>
	<g>
		<circle style="fill:#C4C4C4;" cx="60.999" cy="70" r="3.325"/>
	</g>
	<g>
		<path d="M61,111c-22.607,0-41-18.393-41-41s18.393-41,41-41s41,18.393,41,41S83.607,111,61,111z M61,31c-21.505,0-39,17.495-39,39
			s17.495,39,39,39s39-17.495,39-39S82.505,31,61,31z"/>
	</g>
	<g>
		<path d="M61,91c-11.579,0-21-9.42-21-21s9.421-21,21-21s21,9.42,21,21S72.579,91,61,91z M61,51c-10.477,0-19,8.523-19,19
			s8.523,19,19,19s19-8.523,19-19S71.477,51,61,51z"/>
	</g>
	<g>
		<path style="fill:#C4C4C4;" d="M40,121h-3v-2h3V121z M31,121h-3v-2h3V121z M22,121h-3v-2h3V121z M13,121h-3v-2h3V121z M4,121H1v-2
			h3V121z"/>
	</g>
	<g>
		<path style="fill:#C4C4C4;" d="M120,121h-3v-2h3V121z M111,121h-3v-2h3V121z M102,121h-3v-2h3V121z M93,121h-3v-2h3V121z M84,121
			h-3v-2h3V121z"/>
	</g>
	<g>
		<path style="fill:#34C9A2;" d="M3.5,96C1.57,96,0,94.43,0,92.5S1.57,89,3.5,89S7,90.57,7,92.5S5.43,96,3.5,96z M3.5,91
			C2.673,91,2,91.673,2,92.5S2.673,94,3.5,94S5,93.327,5,92.5S4.327,91,3.5,91z"/>
	</g>
	<g>
		<circle style="fill:#34C9A2;" cx="6" cy="39.996" r="5"/>
	</g>
	<g>
		<circle style="fill:#C4C4C4;" cx="118.5" cy="90" r="2.5"/>
	</g>
	<g>
		<rect y="135" style="fill:#34C9A2;" width="2" height="5"/>
	</g>
	<g>
		<rect x="5" y="133.25" style="fill:#34C9A2;" width="2" height="6.75"/>
	</g>
	<g>
		<rect x="10" y="130" style="fill:#34C9A2;" width="2" height="10"/>
	</g>
	<g>
		<rect x="15" y="133.25" style="fill:#34C9A2;" width="2" height="6.75"/>
	</g>
	<g>
		<rect x="20" y="135" style="fill:#34C9A2;" width="2" height="5"/>
	</g>
	<g>
		<rect x="25" y="136.625" style="fill:#34C9A2;" width="2" height="3.375"/>
	</g>
	<g>
		<rect x="30" y="136.625" style="fill:#34C9A2;" width="2" height="3.375"/>
	</g>
	<g>
		<rect x="35" y="135" style="fill:#34C9A2;" width="2" height="5"/>
	</g>
	<g>
		<rect x="40" y="133.25" style="fill:#34C9A2;" width="2" height="6.75"/>
	</g>
	<g>
		<rect x="45" y="130" style="fill:#34C9A2;" width="2" height="10"/>
	</g>
	<g>
		<rect x="50" y="133.25" style="fill:#34C9A2;" width="2" height="6.75"/>
	</g>
	<g>
		<rect x="55" y="135" style="fill:#34C9A2;" width="2" height="5"/>
	</g>
	<g>
		<rect x="60" y="136.625" style="fill:#34C9A2;" width="2" height="3.375"/>
	</g>
	<g>
		<rect x="65" y="136.625" style="fill:#34C9A2;" width="2" height="3.375"/>
	</g>
	<g>
		<rect x="70" y="133.25" style="fill:#34C9A2;" width="2" height="6.75"/>
	</g>
	<g>
		<rect x="75" y="135" style="fill:#34C9A2;" width="2" height="5"/>
	</g>
	<g>
		<rect x="80" y="136.625" style="fill:#34C9A2;" width="2" height="3.375"/>
	</g>
	<g>
		<rect x="85" y="136.625" style="fill:#34C9A2;" width="2" height="3.375"/>
	</g>
	<g>
		<rect x="100" y="136.625" style="fill:#34C9A2;" width="2" height="3.375"/>
	</g>
	<g>
		<rect x="105" y="134" style="fill:#34C9A2;" width="2" height="6"/>
	</g>
	<g>
		<rect x="110" y="136.625" style="fill:#34C9A2;" width="2" height="3.375"/>
	</g>
	<g>
		<rect x="115" y="136.625" style="fill:#34C9A2;" width="2" height="3.375"/>
	</g>
	<g>
		<rect x="120" y="138.312" style="fill:#34C9A2;" width="2" height="1.688"/>
	</g>
	<g>
		<rect x="90" y="134" style="fill:#34C9A2;" width="2" height="6"/>
	</g>
	<g>
		<rect x="95" y="130" style="fill:#34C9A2;" width="2" height="10"/>
	</g>
</g>
</svg>
