<?xml version="1.0" encoding="UTF-8"?>
<svg width="56px" height="52px" viewBox="0 0 56 52" version="1.1" xmlns="http://www.w3.org/2000/svg" xmlns:xlink="http://www.w3.org/1999/xlink">
    <defs></defs>
    <g id="Page-1" stroke="none" stroke-width="1" fill="none" fill-rule="evenodd">
        <g id="Landing-Copy-4" transform="translate(-932.000000, -5146.000000)">
            <g id="heart-illustration" transform="translate(925.000000, 5130.000000)">
                <path d="M13.3052348,27.7418805 L13.2758621,27.7418805 L13.2758621,58.1264132 L43.8505747,58.1264132 C52.2935485,58.1264132 59.137931,51.3246039 59.137931,42.9341468 C59.137931,34.5436898 52.2935485,27.7418805 43.8505747,27.7418805 L43.821202,27.7418805 C43.8406878,27.4278606 43.8505747,27.1112596 43.8505747,26.7923638 C43.8505747,18.4019068 37.0061922,11.6000974 28.5632184,11.6000974 C20.1202446,11.6000974 13.2758621,18.4019068 13.2758621,26.7923638 C13.2758621,27.1112596 13.285749,27.4278606 13.3052348,27.7418805 Z" id="Combined-Shape-Copy" fill-opacity="0.7" fill="#BFA9F2" transform="translate(36.206897, 34.863255) rotate(-45.000000) translate(-36.206897, -34.863255) "></path>
                <path d="M11.4620689,55.1404483 L10.862069,55.1404483 L11.4620689,55.7404483 L11.4620689,55.1404483 Z M11.4620689,25.9559155 L11.4620689,25.3559155 L10.862069,25.3559155 L10.862069,25.9559155 L11.4620689,25.9559155 Z M11.4620689,55.1404483 L11.4620689,25.9559155 L11.5298274,25.9559155 L11.4902898,25.3187553 C11.4715018,25.0159812 11.4620689,24.7117715 11.4620689,24.4063989 C11.4620689,16.3481536 18.0369872,9.81413248 26.1494253,9.81413248 C34.2618634,9.81413248 40.8367816,16.3481536 40.8367816,24.4063989 C40.8367816,24.7117715 40.8273487,25.0159812 40.8085608,25.3187553 L40.7690232,25.9559155 L41.4367816,25.9559155 C49.5492197,25.9559155 56.124138,32.4899367 56.124138,40.5481819 C56.124138,48.6064272 49.5492197,55.1404483 41.4367816,55.1404483 L11.4620689,55.1404483 Z" id="Combined-Shape" stroke="#4300B3" stroke-width="1.19999993" transform="translate(33.793103, 32.477290) rotate(-45.000000) translate(-33.793103, -32.477290) "></path>
            </g>
        </g>
    </g>
</svg>