<?xml version="1.0" encoding="UTF-8"?>
<svg width="56px" height="52px" viewBox="0 0 56 52" version="1.1" xmlns="http://www.w3.org/2000/svg" xmlns:xlink="http://www.w3.org/1999/xlink">
    <!-- Generator: Sketch 42 (36781) - http://www.bohemiancoding.com/sketch -->
    <title>heart-illustration</title>
    <desc>Created with Sketch.</desc>
    <defs></defs>
    <g id="Page-1" stroke="none" stroke-width="1" fill="none" fill-rule="evenodd">
        <g id="heart-illustration" transform="translate(1.000000, 1.000000)">
            <path d="M6.97740416,29.0216034 L6.95663452,29.0423731 L28.4417436,50.5274822 L50.0613302,28.9078956 C56.0314143,22.9378116 56.0615181,13.2884968 50.128569,7.35554768 C44.1956199,1.42259864 34.5463052,1.45270244 28.5762211,7.42278646 L28.5554515,7.4435561 C28.3471844,7.20773196 28.1303048,6.97687015 27.9048114,6.75137677 C21.9718624,0.818427725 12.3225476,0.848531453 6.35246354,6.81861548 C0.382379511,12.7886995 0.352275783,22.4380143 6.28522482,28.3709634 C6.51071821,28.5964568 6.74158002,28.8133364 6.97740416,29.0216034 Z" id="Combined-Shape-Copy" fill-opacity="0.7" fill="#BFA9F2" fill-rule="nonzero"></path>
            <path d="M26.0279503,47.2929886 L5.39136923,26.6564075 L5.43928172,26.608495 L4.96078412,26.185912 C4.73340538,25.9851035 4.51162657,25.7766649 4.29569553,25.5607338 C-1.40234437,19.8626939 -1.37342569,10.593274 4.3629343,4.85691397 C10.0992943,-0.879446023 19.3687142,-0.908364626 25.0667541,4.78967527 C25.2826851,5.00560631 25.4911238,5.22738512 25.6919324,5.45476379 L26.1145153,5.93326139 L26.5866918,5.4610849 C32.3230518,-0.275275095 41.5924718,-0.304193712 47.2905117,5.39384611 C52.9885516,11.091886 52.9596329,20.361306 47.2232729,26.0976659 L26.0279503,47.2929886 Z" id="Combined-Shape" stroke="#4300B3" stroke-width="1.19999993"></path>
        </g>
    </g>
</svg>