<?xml version="1.0" encoding="iso-8859-1"?>
<!-- Generator: Adobe Illustrator 17.0.0, SVG Export Plug-In . SVG Version: 6.00 Build 0)  -->
<!DOCTYPE svg PUBLIC "-//W3C//DTD SVG 1.1//EN" "http://www.w3.org/Graphics/SVG/1.1/DTD/svg11.dtd">
<svg version="1.1" id="investment" xmlns="http://www.w3.org/2000/svg" xmlns:xlink="http://www.w3.org/1999/xlink" x="0px" y="0px"
	 width="122px" height="141.414px" viewBox="0 0 122 141.414" style="enable-background:new 0 0 122 141.414;" xml:space="preserve"
	>
<g id="investment_1_">
	<g>
		<path style="fill:#2D71BB;" d="M76.92,2.736l0.035-0.122c-1.6,1.601-4.191,1.601-5.791,0c-1.6-1.601-4.191-1.601-5.791,0
			c-1.6,1.601-4.191,1.601-5.791,0c-1.6-1.601-4.191-1.601-5.791,0c-1.6,1.601-4.191,1.601-5.791,0l0.115,0.385
			c0.261,1.727,1.054,3.556,1.556,5.229c0.443,1.477,0.886,2.954,1.329,4.431l3,10h17l3-10l3-10
			C76.974,2.688,76.946,2.709,76.92,2.736z"/>
	</g>
	<g>
		<rect x="71" y="51.414" style="fill:#E4E5E7;" width="10" height="80"/>
	</g>
	<g>
		<rect x="6" y="111.414" style="fill:#E4E5E7;" width="10" height="20"/>
	</g>
	<g>
		<rect x="21" y="81.414" style="fill:#E4E5E7;" width="10" height="50"/>
	</g>
	<g>
		<rect x="106" y="61.414" style="fill:#E4E5E7;" width="10" height="70"/>
	</g>
	<g>
		<rect x="91" y="41.414" style="fill:#E4E5E7;" width="10" height="90"/>
	</g>
	<g>
		<polygon style="fill:#C4C4C4;" points="122,132.414 0,132.414 0,91.669 2,91.669 2,130.414 120,130.414 120,31.414 122,31.414 		
			"/>
	</g>
	<g>
		<path style="fill:#2D71BB;" d="M61,62.659h11.335C111,111.414,111,133.858,111,133.858c0,7.557-7.556,7.557-7.556,7.557H61H18.556
			c0,0-7.556,0-7.556-7.557c0,0,0-22.443,38.666-71.198H61z"/>
	</g>
	<g>
		<circle style="fill:#4B8DC9;" cx="61" cy="104.789" r="18.375"/>
	</g>
	<g>
		<g>
			<path d="M61,116.723c-3.566,0-6.467-2.901-6.467-6.467h2c0,2.463,2.004,4.467,4.467,4.467c2.462,0,4.466-2.004,4.466-4.467
				s-2.003-4.467-4.466-4.467c-3.566,0-6.467-2.901-6.467-6.467s2.901-6.467,6.467-6.467c3.565,0,6.466,2.901,6.466,6.467h-2
				c0-2.463-2.003-4.467-4.466-4.467c-2.463,0-4.467,2.004-4.467,4.467s2.004,4.467,4.467,4.467c3.565,0,6.466,2.901,6.466,6.467
				S64.566,116.723,61,116.723z"/>
		</g>
		<g>
			<rect x="60" y="89.482" width="2" height="4.373"/>
		</g>
		<g>
			<rect x="60" y="115.723" width="2" height="4.373"/>
		</g>
	</g>
	<g>
		<path style="fill:#FFFFFF;" d="M1,32.659h20l20-20h10l3,10h17c0,0,5,0,5,5s-5,5-5,5s5,0,5,5s-5,5-5,5s5,0,5,5s-5,5-5,5s5,0,5,5
			s-5,5-5,5H4"/>
		<path d="M71,63.659H4v-2h67c0.405-0.004,4-0.147,4-4s-3.595-3.996-4.004-4l0.004-2c0.405-0.004,4-0.147,4-4s-3.595-3.996-4.004-4
			l0.004-2c0.405-0.004,4-0.147,4-4s-3.595-3.996-4.004-4l0.004-2c0.405-0.004,4-0.147,4-4s-3.595-3.996-4.004-4h-17.74l-3-10
			h-8.842l-20,20H1v-2h19.586l20-20h11.158l3,10H71c2.075,0,6,1.254,6,6c0,2.576-1.157,4.124-2.546,5
			c1.389,0.876,2.546,2.424,2.546,5s-1.157,4.124-2.546,5c1.389,0.876,2.546,2.424,2.546,5s-1.157,4.124-2.546,5
			c1.389,0.876,2.546,2.424,2.546,5C77,62.405,73.075,63.659,71,63.659z"/>
	</g>
	<g>
		<g>
			<polygon style="fill:#C4C4C4;" points="115.293,37.121 111,32.828 106.707,37.121 105.293,35.707 111,30 116.707,35.707 			"/>
		</g>
		<g>
			<polygon style="fill:#C4C4C4;" points="115.293,32.121 111,27.828 106.707,32.121 105.293,30.707 111,25 116.707,30.707 			"/>
		</g>
		<g>
			<polygon style="fill:#C4C4C4;" points="115.293,27.121 111,22.828 106.707,27.121 105.293,25.707 111,20 116.707,25.707 			"/>
		</g>
		<g>
			<polygon style="fill:#C4C4C4;" points="115.293,22.121 111,17.828 106.707,22.121 105.293,20.707 111,15 116.707,20.707 			"/>
		</g>
		<g>
			<polygon style="fill:#C4C4C4;" points="115.293,17.121 111,12.828 106.707,17.121 105.293,15.707 111,10 116.707,15.707 			"/>
		</g>
	</g>
	<g>
		<g>
			<polygon style="fill:#2D71BB;" points="100.293,27.121 96,22.828 91.707,27.121 90.293,25.707 96,20 101.707,25.707 			"/>
		</g>
		<g>
			<polygon style="fill:#2D71BB;" points="100.293,22.121 96,17.828 91.707,22.121 90.293,20.707 96,15 101.707,20.707 			"/>
		</g>
		<g>
			<polygon style="fill:#2D71BB;" points="100.293,17.121 96,12.828 91.707,17.121 90.293,15.707 96,10 101.707,15.707 			"/>
		</g>
		<g>
			<polygon style="fill:#2D71BB;" points="100.293,12.121 96,7.828 91.707,12.121 90.293,10.707 96,5 101.707,10.707 			"/>
		</g>
		<g>
			<polygon style="fill:#2D71BB;" points="100.293,7.121 96,2.828 91.707,7.121 90.293,5.707 96,0 101.707,5.707 			"/>
		</g>
	</g>
	<g>
		<circle style="fill:#2D71BB;" cx="16" cy="61.414" r="15"/>
	</g>
	<g>
		<g>
			<rect x="15" y="56.414" style="fill:#FFFFFF;" width="2" height="10"/>
		</g>
		<g>
			<rect x="11" y="60.414" style="fill:#FFFFFF;" width="10" height="2"/>
		</g>
	</g>
</g>
</svg>
