<?xml version="1.0" encoding="iso-8859-1"?>
<!-- Generator: Adobe Illustrator 17.0.0, SVG Export Plug-In . SVG Version: 6.00 Build 0)  -->
<!DOCTYPE svg PUBLIC "-//W3C//DTD SVG 1.1//EN" "http://www.w3.org/Graphics/SVG/1.1/DTD/svg11.dtd">
<svg version="1.1" id="launch" xmlns="http://www.w3.org/2000/svg" xmlns:xlink="http://www.w3.org/1999/xlink" x="0px" y="0px"
	 width="121.046px" height="141.323px" viewBox="0 0 121.046 141.323" style="enable-background:new 0 0 121.046 141.323;"
	 xml:space="preserve">
<g id="launch_1_">
	<g>
		<path style="fill:#C4C4C4;" d="M46,51.323H6c-3.309,0-6-2.691-6-6s2.691-6,6-6h40c3.309,0,6,2.691,6,6S49.309,51.323,46,51.323z
			 M6,41.323c-2.206,0-4,1.794-4,4s1.794,4,4,4h40c2.206,0,4-1.794,4-4s-1.794-4-4-4H6z"/>
	</g>
	<g>
		<path style="fill:#C4C4C4;" d="M32,67.323h-6c-3.309,0-6-2.691-6-6s2.691-6,6-6h6c3.309,0,6,2.691,6,6S35.309,67.323,32,67.323z
			 M26,57.323c-2.206,0-4,1.794-4,4s1.794,4,4,4h6c2.206,0,4-1.794,4-4s-1.794-4-4-4H26z"/>
	</g>
	<g>
		<path style="fill:#C4C4C4;" d="M110.022,57.323h-12c-3.309,0-6-2.691-6-6s2.691-6,6-6h12c3.309,0,6,2.691,6,6
			S113.331,57.323,110.022,57.323z M98.022,47.323c-2.206,0-4,1.794-4,4s1.794,4,4,4h12c2.206,0,4-1.794,4-4s-1.794-4-4-4H98.022z"
			/>
	</g>
	<g>
		<path style="fill:#C4C4C4;" d="M61,1.323c-12.418,10.749-17.169,22.135-18.955,30h37.91C78.168,23.458,73.417,12.072,61,1.323z"/>
	</g>
	<g>
		<rect x="41" y="100.618" style="fill:#11BACC;" width="40" height="2"/>
	</g>
	<g>
		<rect x="41" y="105.323" style="fill:#11BACC;" width="40" height="2"/>
	</g>
	<g>
		<rect x="41" y="110.323" style="fill:#11BACC;" width="40" height="2"/>
	</g>
	<g>
		<path style="fill:#C4C4C4;" d="M41,116.323H1v-8c0,0,0.5-15.75,20-20s20.047-32,20.047-42"/>
	</g>
	<g>
		<path style="fill:#C4C4C4;" d="M81.046,116.323h40v-8c0,0-0.5-15.75-20-20S81,56.323,81,46.323"/>
	</g>
	<g>
		<rect x="46" y="121.323" style="fill:#11BACC;" width="30" height="10"/>
	</g>
	<g>
		<rect x="4.75" y="112.823" width="21.144" height="2"/>
	</g>
	<g>
		<rect x="4.75" y="117.823" width="21.144" height="2"/>
	</g>
	<g>
		<rect x="4.75" y="122.823" width="21.144" height="2"/>
	</g>
	<g>
		<rect x="4.75" y="127.823" width="21.144" height="2"/>
	</g>
	<g>
		<rect x="101.128" y="0.323" width="19.872" height="2"/>
	</g>
	<g>
		<rect x="101.128" y="5.323" width="19.872" height="2"/>
	</g>
	<g>
		<rect x="101.128" y="10.181" width="19.872" height="2"/>
	</g>
	<g>
		<path d="M81.951,122.323H40.046v-81c-0.079-0.784-1.786-21.639,20.3-40.756L61,0l0.654,0.567
			C83.737,19.685,82.03,40.539,81.946,41.417L81.951,122.323z M42.046,120.323h37.905v-79C79.975,41.027,81.575,20.911,61,2.652
			C50.352,12.102,45.759,21.963,43.78,28.63c-2.188,7.376-1.743,12.548-1.738,12.6L42.046,120.323z"/>
	</g>
	<g>
		<path d="M24.937,97.385c-0.719-0.719-1.425-1.468-2.098-2.226l1.496-1.328c0.646,0.729,1.325,1.448,2.016,2.139L24.937,97.385z
			 M19.057,90.352c-0.578-0.833-1.14-1.696-1.669-2.566l1.709-1.039c0.509,0.836,1.048,1.666,1.603,2.465L19.057,90.352z
			 M14.532,82.374c-0.419-0.926-0.815-1.876-1.178-2.825l1.869-0.713c0.347,0.911,0.728,1.824,1.131,2.713L14.532,82.374z
			 M11.52,73.713c-0.246-0.99-0.465-1.996-0.65-2.99l1.967-0.365c0.178,0.954,0.388,1.92,0.625,2.872L11.52,73.713z M10.108,64.657
			c-0.066-1.014-0.103-2.042-0.107-3.058l2-0.01c0.005,0.976,0.039,1.964,0.104,2.937L10.108,64.657z M12.319,55.72l-1.986-0.227
			c0.114-1.003,0.262-2.022,0.438-3.028l1.971,0.346C12.571,53.777,12.43,54.756,12.319,55.72z M14.101,47.095l-1.914-0.579
			c0.293-0.968,0.62-1.944,0.973-2.899l1.877,0.692C14.697,45.228,14.382,46.165,14.101,47.095z M17.398,38.933l-1.779-0.914
			c0.464-0.902,0.961-1.803,1.479-2.677l1.721,1.02C18.321,37.201,17.844,38.066,17.398,38.933z M22.114,31.499l-1.586-1.22
			c0.62-0.806,1.271-1.602,1.937-2.367l1.51,1.312C23.336,29.959,22.71,30.725,22.114,31.499z"/>
	</g>
	<g>
		<path d="M99.536,94.732l-1.51-1.312c0.639-0.735,1.265-1.501,1.86-2.275l1.586,1.22C100.853,93.171,100.201,93.967,99.536,94.732z
			 M104.901,87.304l-1.721-1.02c0.498-0.84,0.976-1.705,1.421-2.571l1.779,0.914C105.917,85.529,105.42,86.43,104.901,87.304z
			 M108.841,79.028l-1.877-0.692c0.339-0.918,0.654-1.856,0.936-2.786l1.914,0.579C109.521,77.097,109.193,78.073,108.841,79.028z
			 M111.229,70.18l-1.971-0.346c0.17-0.966,0.312-1.945,0.422-2.909l1.986,0.227C111.553,68.156,111.405,69.174,111.229,70.18z
			 M109.999,61.057c-0.005-0.976-0.039-1.964-0.104-2.937l1.996-0.131c0.066,1.014,0.103,2.042,0.107,3.058L109.999,61.057z
			 M109.164,52.288c-0.179-0.959-0.39-1.926-0.626-2.873l1.941-0.483c0.245,0.985,0.464,1.99,0.651,2.989L109.164,52.288z
			 M106.776,43.809c-0.347-0.911-0.728-1.824-1.131-2.713l1.822-0.825c0.419,0.926,0.815,1.876,1.178,2.825L106.776,43.809z
			 M102.902,35.899c-0.509-0.836-1.048-1.666-1.603-2.465l1.643-1.141c0.578,0.833,1.14,1.696,1.669,2.566L102.902,35.899z
			 M97.664,28.813c-0.646-0.729-1.325-1.448-2.016-2.139l1.414-1.414c0.719,0.719,1.425,1.468,2.098,2.226L97.664,28.813z"/>
	</g>
	<g>
		<circle style="fill:#11BACC;" cx="31" cy="21.323" r="5"/>
	</g>
	<g>
		<circle style="fill:#C4C4C4;" cx="91" cy="21.323" r="2"/>
	</g>
	<g>
		<path d="M31,104.323c-1.654,0-3-1.346-3-3s1.346-3,3-3s3,1.346,3,3S32.654,104.323,31,104.323z M31,100.323c-0.552,0-1,0.449-1,1
			s0.448,1,1,1s1-0.449,1-1S31.552,100.323,31,100.323z"/>
	</g>
	<g>
		<circle style="fill:#11BACC;" cx="91" cy="101.618" r="4"/>
	</g>
	<g>
		<g>
			<circle style="fill:#1FCCE8;" cx="61" cy="46.323" r="5"/>
		</g>
		<g>
			<circle style="fill:#1FCCE8;" cx="61" cy="61.323" r="5"/>
		</g>
		<g>
			<circle style="fill:#1FCCE8;" cx="61" cy="76.323" r="5"/>
		</g>
	</g>
	<g>
		<g>
			<rect x="50" y="135.323" width="2" height="6"/>
		</g>
		<g>
			<rect x="55" y="135.323" width="2" height="6"/>
		</g>
		<g>
			<rect x="59.999" y="135.323" width="2" height="6"/>
		</g>
		<g>
			<rect x="65" y="135.323" width="2" height="6"/>
		</g>
		<g>
			<rect x="70" y="135.323" width="2" height="6"/>
		</g>
	</g>
	<g>
		<path style="fill:#C4C4C4;" d="M93.5,67.323c-1.93,0-3.5-1.57-3.5-3.5s1.57-3.5,3.5-3.5s3.5,1.57,3.5,3.5
			S95.43,67.323,93.5,67.323z M93.5,62.323c-0.827,0-1.5,0.673-1.5,1.5s0.673,1.5,1.5,1.5s1.5-0.673,1.5-1.5
			S94.327,62.323,93.5,62.323z"/>
	</g>
	<g>
		<path style="fill:#C4C4C4;" d="M111,27.162c-1.93,0-3.5-1.57-3.5-3.5s1.57-3.5,3.5-3.5s3.5,1.57,3.5,3.5S112.93,27.162,111,27.162
			z M111,22.162c-0.827,0-1.5,0.673-1.5,1.5s0.673,1.5,1.5,1.5s1.5-0.673,1.5-1.5S111.827,22.162,111,22.162z"/>
	</g>
	<g>
		<rect x="1" y="1.323" style="fill:#C4C4C4;" width="5" height="5"/>
	</g>
	<g>
		<rect x="1" y="11.323" style="fill:#11BACC;" width="5" height="5"/>
	</g>
	<g>
		<rect x="1" y="21.162" style="fill:#1FCCE8;" width="5" height="5"/>
	</g>
</g>
</svg>
