<?xml version="1.0" encoding="iso-8859-1"?>
<!-- Generator: Adobe Illustrator 17.0.0, SVG Export Plug-In . SVG Version: 6.00 Build 0)  -->
<!DOCTYPE svg PUBLIC "-//W3C//DTD SVG 1.1//EN" "http://www.w3.org/Graphics/SVG/1.1/DTD/svg11.dtd">
<svg version="1.1" id="molecular_structure" xmlns="http://www.w3.org/2000/svg" xmlns:xlink="http://www.w3.org/1999/xlink"
	 x="0px" y="0px" width="122.13px" height="140px" viewBox="0 0 122.13 140" style="enable-background:new 0 0 122.13 140;"
	 xml:space="preserve">
<g id="molecular_structure_1_">
	<g>
		<g>
			<polygon style="fill:#E4E5E7;" points="91.209,26.414 91.377,55.568 116.709,70 121.19,67.166 121.19,8.167 			"/>
		</g>
	</g>
	<g>
		<polygon style="fill:#E2C120;" points="5.941,77.846 31.19,63.269 56.439,77.846 56.439,107 31.19,121.577 5.941,107 		"/>
	</g>
	<g>
		<polygon style="fill:#E2C120;" points="65.941,77.846 91.19,63.269 116.439,77.846 116.439,107 91.19,121.577 65.941,107 		"/>
	</g>
	<g>
		<polygon style="fill:#E2C120;" points="35.941,28.691 61.19,14.114 86.439,28.691 86.439,57.846 61.19,72.423 35.941,57.846 		"/>
	</g>
	<g>
		<path d="M31.189,118.731L4.94,103.577V73.269l26.249-15.155l26.249,15.155v30.309L31.189,118.731z M6.94,102.423l24.249,14
			l24.249-14v-28l-24.249-14l-24.249,14V102.423z"/>
	</g>
	<g>
		<path d="M91.189,118.731L64.94,103.577V73.269l26.249-15.155l26.249,15.155v30.309L91.189,118.731z M66.94,102.423l24.249,14
			l24.249-14v-28l-24.249-14l-24.249,14V102.423z"/>
	</g>
	<g>
		<path d="M61.189,69.578L34.94,54.423V24.114L61.189,8.959l26.249,15.155v30.309L61.189,69.578z M36.94,53.269l24.249,14l24.249-14
			v-28l-24.249-14l-24.249,14V53.269z"/>
	</g>
	<g>
		
			<rect x="48.565" y="17.02" transform="matrix(0.4999 0.8661 -0.8661 0.4999 47.653 -29.7234)" style="fill:#FFFFFF;" width="2" height="18.765"/>
	</g>
	<g>
		
			<rect x="20.19" y="65.617" transform="matrix(0.4999 0.8661 -0.8661 0.4999 75.5521 19.154)" style="fill:#FFFFFF;" width="2" height="18.765"/>
	</g>
	<g>
		
			<rect x="80.189" y="65.617" transform="matrix(0.4999 0.8661 -0.8661 0.4999 105.5564 -32.8094)" style="fill:#FFFFFF;" width="2" height="18.765"/>
	</g>
	<g>
		<rect x="30.189" y="117.577" width="2" height="22.423"/>
	</g>
	<g>
		<rect x="90.189" y="117.577" width="2" height="22.423"/>
	</g>
	<g>
		<rect x="60.189" width="2" height="10"/>
	</g>
	<g>
		<rect x="8.738" y="16.403" transform="matrix(0.866 0.5 -0.5 0.866 11.8249 -9.3263)" width="29.155" height="2"/>
	</g>
	<g>
		<rect x="0.079" y="71.275" transform="matrix(0.866 0.5 -0.5 0.866 36.5704 8.0739)" width="6.281" height="2"/>
	</g>
	<g>
		<rect x="2.22" y="101.859" transform="matrix(0.4999 0.8661 -0.8661 0.4999 92.5477 49.7199)" width="2" height="6.281"/>
	</g>
	<g>
		<rect x="115.77" y="104" transform="matrix(0.866 0.5 -0.5 0.866 68.4342 -45.3888)" width="6.281" height="2"/>
	</g>
	<g>
		<rect x="97.814" y="2.825" transform="matrix(0.4999 0.8661 -0.8661 0.4999 64.487 -76.8772)" width="2" height="29.155"/>
	</g>
	<g>
		<rect x="117.91" y="69.135" transform="matrix(0.4999 0.8661 -0.8661 0.4999 122.0603 -66.8412)" width="2" height="6.281"/>
	</g>
	<g>
		<g>
			<polygon style="fill:#E4E5E7;" points="86.439,125.423 61.19,110.846 35.941,125.423 35.941,140 86.439,140 			"/>
		</g>
	</g>
	<g>
		<circle style="fill:#EFD32E;" cx="8.69" cy="132.5" r="2.5"/>
	</g>
	<g>
		<circle style="fill:#EFD32E;" cx="91.209" cy="5" r="5"/>
	</g>
	<g>
		<circle style="fill:#C4C4C4;" cx="35.941" cy="10.114" r="2.53"/>
	</g>
	<g>
		<circle style="fill:#C4C4C4;" cx="111.19" cy="130" r="5.001"/>
	</g>
</g>
</svg>
