<?xml version="1.0" encoding="iso-8859-1"?>
<!-- Generator: Adobe Illustrator 17.0.0, SVG Export Plug-In . SVG Version: 6.00 Build 0)  -->
<!DOCTYPE svg PUBLIC "-//W3C//DTD SVG 1.1//EN" "http://www.w3.org/Graphics/SVG/1.1/DTD/svg11.dtd">
<svg version="1.1" id="patterns_system" xmlns="http://www.w3.org/2000/svg" xmlns:xlink="http://www.w3.org/1999/xlink" x="0px"
	 y="0px" width="122px" height="142px" viewBox="0 0 122 142" style="enable-background:new 0 0 122 142;" xml:space="preserve">
<g id="patterns_system_1_">
	<g>
		<rect x="46" y="59" style="fill:#E4E5E7;" width="30" height="30"/>
	</g>
	<g>
		<rect x="46" y="14" style="fill:#27BA90;" width="30" height="30"/>
	</g>
	<g>
		<rect x="91" y="104" style="fill:#27BA90;" width="30" height="30"/>
	</g>
	<g>
		<rect x="1" y="104" style="fill:#34C9A2;" width="30" height="30"/>
	</g>
	<g>
		<rect x="1" y="14" style="fill:#34C9A2;" width="30" height="30"/>
	</g>
	<g>
		<circle style="fill:#34C9A2;" cx="106" cy="29" r="15"/>
	</g>
	<g>
		<path d="M32,132H0v-32h32V132z M2,130h28v-28H2V130z"/>
	</g>
	<g>
		<path d="M77,87H45V55h32V87z M47,85h28V57H47V85z"/>
	</g>
	<g>
		<path d="M77,42H45V10h32V42z M47,40h28V12H47V40z"/>
	</g>
	<g>
		<path d="M32,42H0V10h32V42z M2,40h28V12H2V40z"/>
	</g>
	<g>
		<path d="M122,87H90V55h32V87z M92,85h28V57H92V85z"/>
	</g>
	<g>
		<path d="M122,132H90v-32h32V132z M92,130h28v-28H92V130z"/>
	</g>
	<g>
		<path d="M61,132c-8.822,0-16-7.178-16-16s7.178-16,16-16s16,7.178,16,16S69.822,132,61,132z M61,102c-7.72,0-14,6.28-14,14
			s6.28,14,14,14s14-6.28,14-14S68.72,102,61,102z"/>
	</g>
	<g>
		<path d="M16,87C7.178,87,0,79.822,0,71s7.178-16,16-16s16,7.178,16,16S24.822,87,16,87z M16,57C8.28,57,2,63.28,2,71
			s6.28,14,14,14s14-6.28,14-14S23.72,57,16,57z"/>
	</g>
	<g>
		<path d="M106,42c-8.822,0-16-7.178-16-16s7.178-16,16-16s16,7.178,16,16S114.822,42,106,42z M106,12c-7.72,0-14,6.28-14,14
			s6.28,14,14,14s14-6.28,14-14S113.72,12,106,12z"/>
	</g>
	<g>
		<rect x="25" y="106" style="fill:#FFFFFF;" width="2" height="20"/>
	</g>
	<g>
		<rect x="70" y="61" style="fill:#FFFFFF;" width="2" height="20"/>
	</g>
	<g>
		<rect x="96" y="125" style="fill:#FFFFFF;" width="20" height="2"/>
	</g>
	<g>
		<rect x="96" y="60" style="fill:#C4C4C4;" width="20" height="2"/>
	</g>
	<g>
		<rect x="51" y="16" style="fill:#FFFFFF;" width="20" height="2"/>
	</g>
	<g>
		<rect x="6" y="35" style="fill:#FFFFFF;" width="20" height="2"/>
	</g>
	<g>
		<path style="fill:#C4C4C4;" d="M49,2h-2V0h2V2z M43,2h-2V0h2V2z M37,2h-2V0h2V2z M31,2h-2V0h2V2z M25,2h-2V0h2V2z M19,2h-2V0h2V2z
			 M13,2h-2V0h2V2z"/>
	</g>
	<g>
		<path style="fill:#C4C4C4;" d="M109,142h-2v-2h2V142z M103,142h-2v-2h2V142z M97,142h-2v-2h2V142z M91,142h-2v-2h2V142z M85,142
			h-2v-2h2V142z M79,142h-2v-2h2V142z M73,142h-2v-2h2V142z"/>
	</g>
	<g>
		<circle style="fill:#C4C4C4;" cx="83.5" cy="3.5" r="2.5"/>
	</g>
	<g>
		<circle style="fill:#C4C4C4;" cx="43.5" cy="138" r="2.5"/>
	</g>
</g>
</svg>
