<?xml version="1.0" encoding="iso-8859-1"?>
<!-- Generator: Adobe Illustrator 17.0.0, SVG Export Plug-In . SVG Version: 6.00 Build 0)  -->
<!DOCTYPE svg PUBLIC "-//W3C//DTD SVG 1.1//EN" "http://www.w3.org/Graphics/SVG/1.1/DTD/svg11.dtd">
<svg version="1.1" id="production" xmlns="http://www.w3.org/2000/svg" xmlns:xlink="http://www.w3.org/1999/xlink" x="0px" y="0px"
	 width="122.5px" height="140px" viewBox="0 0 122.5 140" style="enable-background:new 0 0 122.5 140;" xml:space="preserve">
<g id="production_1_">
	<g>
		<rect x="35" y="90" style="fill:#1FCCE8;" width="45" height="10"/>
	</g>
	<g>
		<polygon style="fill:#C4C4C4;" points="20,60 15,65 5,65 0,60 10,60 10,55 10,50 0,50 5,45 15,45 20,50 40,50 40,60 		"/>
	</g>
	<g>
		<polygon style="fill:#C4C4C4;" points="99.998,50.001 104.998,45.001 114.998,45.001 119.998,50.001 109.998,50.001 
			109.998,55.001 109.998,60.001 119.998,60.001 114.998,65.002 104.998,65.002 99.998,60.001 79.998,60.001 79.998,50.001 		"/>
	</g>
	<g>
		<path d="M76,90h-2V69h1c3.954,0,4-3.837,4-4V40c-0.004-0.405-0.147-4-4-4c-3.954,0-4,3.837-4,4h-2c-0.004-0.405-0.147-4-4-4
			c-3.954,0-4,3.837-4,4h-2c-0.004-0.405-0.147-4-4-4c-3.954,0-4,3.837-4,4h-2c-0.004-0.405-0.147-4-4-4c-3.954,0-4,3.837-4,4v21
			h-9.962c0.622,7.906,8.608,8,8.962,8h1v21h-2V70.923C36.289,70.599,29,68.896,29,60v-1h10V40c0-2.075,1.254-6,6-6
			c2.576,0,4.124,1.157,5,2.546C50.876,35.157,52.424,34,55,34s4.124,1.157,5,2.546C60.876,35.157,62.424,34,65,34
			c2.576,0,4.124,1.157,5,2.546C70.876,35.157,72.424,34,75,34c4.746,0,6,3.925,6,6v25c0,1.921-1.075,5.428-5,5.938V90z"/>
	</g>
	<g>
		<rect x="32.5" y="100" style="fill:#11BACC;" width="50" height="40"/>
	</g>
	<g>
		<path d="M42.5,111c-1.93,0-3.5-1.57-3.5-3.5s1.57-3.5,3.5-3.5s3.5,1.57,3.5,3.5S44.43,111,42.5,111z M42.5,106
			c-0.827,0-1.5,0.673-1.5,1.5s0.673,1.5,1.5,1.5s1.5-0.673,1.5-1.5S43.328,106,42.5,106z"/>
	</g>
	<g>
		<path d="M42.5,121c-1.93,0-3.5-1.57-3.5-3.5s1.57-3.5,3.5-3.5s3.5,1.57,3.5,3.5S44.43,121,42.5,121z M42.5,116
			c-0.827,0-1.5,0.673-1.5,1.5s0.673,1.5,1.5,1.5s1.5-0.673,1.5-1.5S43.328,116,42.5,116z"/>
	</g>
	<g>
		<g>
			<path style="fill:#C4C4C4;" d="M22.5,31C15.056,31,9,24.944,9,17.5S15.056,4,22.5,4S36,10.056,36,17.5S29.945,31,22.5,31z
				 M22.5,6C16.16,6,11,11.159,11,17.5S16.16,29,22.5,29S34,23.841,34,17.5S28.841,6,22.5,6z"/>
		</g>
		<g>
			<rect x="21.5" style="fill:#C4C4C4;" width="2" height="5"/>
		</g>
		<g>
			<rect x="21.5" y="30" style="fill:#C4C4C4;" width="2" height="5"/>
		</g>
		<g>
			<rect x="5" y="16.5" style="fill:#C4C4C4;" width="5" height="2"/>
		</g>
		<g>
			<rect x="35" y="16.5" style="fill:#C4C4C4;" width="5" height="2"/>
		</g>
		<g>
			
				<rect x="32.107" y="4.393" transform="matrix(0.7071 0.7071 -0.7071 0.7071 14.5711 -21.3911)" style="fill:#C4C4C4;" width="2" height="5"/>
		</g>
		<g>
			
				<rect x="10.894" y="25.607" transform="matrix(0.7071 0.7071 -0.7071 0.7071 23.358 -0.1777)" style="fill:#C4C4C4;" width="2" height="4.999"/>
		</g>
		<g>
			
				<rect x="9.394" y="5.893" transform="matrix(0.707 0.7073 -0.7073 0.707 8.3606 -6.3917)" style="fill:#C4C4C4;" width="4.999" height="2"/>
		</g>
		<g>
			
				<rect x="30.607" y="27.107" transform="matrix(0.7071 0.7072 -0.7072 0.7071 29.5742 -15.1781)" style="fill:#C4C4C4;" width="5" height="2"/>
		</g>
	</g>
	<g>
		<g>
			<path style="fill:#11BACC;" d="M107.636,102.662c-5.528,0-10.025-4.498-10.025-10.026s4.497-10.026,10.025-10.026
				s10.025,4.498,10.025,10.026S113.164,102.662,107.636,102.662z M107.636,84.61c-4.425,0-8.025,3.601-8.025,8.026
				s3.601,8.026,8.025,8.026s8.025-3.601,8.025-8.026S112.061,84.61,107.636,84.61z"/>
		</g>
		<g>
			<rect x="106.636" y="80" style="fill:#11BACC;" width="2" height="3.61"/>
		</g>
		<g>
			<rect x="106.636" y="101.662" style="fill:#11BACC;" width="2" height="3.61"/>
		</g>
		<g>
			<rect x="95" y="91.636" style="fill:#11BACC;" width="3.61" height="2"/>
		</g>
		<g>
			<rect x="116.662" y="91.636" style="fill:#11BACC;" width="3.611" height="2"/>
		</g>
		<g>
			
				<rect x="114.295" y="83.172" transform="matrix(0.7071 0.7071 -0.7071 0.7071 93.8571 -56.6365)" style="fill:#11BACC;" width="2" height="3.61"/>
		</g>
		<g>
			
				<rect x="98.977" y="98.49" transform="matrix(0.7071 0.7071 -0.7071 0.7071 100.202 -41.3186)" style="fill:#11BACC;" width="2" height="3.61"/>
		</g>
		<g>
			
				<rect x="98.172" y="83.977" transform="matrix(0.707 0.7072 -0.7072 0.707 89.3831 -45.8061)" style="fill:#11BACC;" width="3.61" height="2"/>
		</g>
		<g>
			
				<rect x="113.49" y="99.295" transform="matrix(0.7069 0.7073 -0.7073 0.7069 104.7322 -52.153)" style="fill:#11BACC;" width="3.61" height="2"/>
		</g>
	</g>
	<g>
		<g>
			<path style="fill:#11BACC;" d="M102.5,36c-8.822,0-16-7.178-16-16s7.178-16,16-16s16,7.178,16,16S111.323,36,102.5,36z M102.5,6
				c-7.72,0-14,6.28-14,14s6.28,14,14,14s14-6.28,14-14S110.22,6,102.5,6z"/>
		</g>
		<g>
			<rect x="101.5" style="fill:#11BACC;" width="2" height="5"/>
		</g>
		<g>
			<rect x="101.5" y="35" style="fill:#11BACC;" width="2" height="5"/>
		</g>
		<g>
			<rect x="82.5" y="19" style="fill:#11BACC;" width="5" height="2"/>
		</g>
		<g>
			<rect x="117.5" y="19" style="fill:#11BACC;" width="5" height="2"/>
		</g>
		<g>
			
				<rect x="113.874" y="5.125" transform="matrix(0.7071 0.7071 -0.7071 0.7071 39.038 -78.9946)" style="fill:#11BACC;" width="2" height="5.001"/>
		</g>
		<g>
			
				<rect x="89.126" y="29.874" transform="matrix(0.7071 0.7071 -0.7071 0.7071 49.2892 -54.2461)" style="fill:#11BACC;" width="2" height="5.001"/>
		</g>
		<g>
			
				<rect x="87.625" y="6.626" transform="matrix(0.7073 0.707 -0.707 0.7073 31.775 -61.4827)" style="fill:#11BACC;" width="5.001" height="2"/>
		</g>
		<g>
			
				<rect x="112.374" y="31.374" transform="matrix(0.7072 0.7071 -0.7071 0.7072 56.5307 -71.7419)" style="fill:#11BACC;" width="5.001" height="2"/>
		</g>
	</g>
	<g>
		<circle style="fill:#11BACC;" cx="2.5" cy="55" r="2.5"/>
	</g>
	<g>
		<circle style="fill:#11BACC;" cx="117.5" cy="55" r="2.5"/>
	</g>
	<g>
		<rect x="77.5" y="109" width="32.5" height="2"/>
	</g>
	<g>
		<rect x="77.5" y="114" width="32.5" height="2"/>
	</g>
	<g>
		<rect x="77.5" y="119" width="32.5" height="2"/>
	</g>
	<g>
		<rect x="0" y="94" width="20" height="2"/>
	</g>
	<g>
		<rect x="0" y="99" width="20" height="2"/>
	</g>
	<g>
		<rect x="0" y="104" width="10" height="2"/>
	</g>
	<g>
		<rect x="77.5" y="124" width="32.5" height="2"/>
	</g>
	<g>
		<rect x="0" y="80" style="fill:#C4C4C4;" width="20" height="10"/>
	</g>
	<g>
		<path d="M11.675,128.279c-1.032-0.472-1.973-1.177-2.721-2.039l1.51-1.311c0.562,0.647,1.269,1.177,2.043,1.53L11.675,128.279z
			 M18.325,128.278l-0.832-1.818c0.775-0.355,1.482-0.884,2.042-1.531l1.512,1.31C20.3,127.1,19.359,127.805,18.325,128.278z
			 M23,121h-2c0-0.87-0.182-1.709-0.54-2.493l1.818-0.832C22.757,118.722,23,119.841,23,121z M9.061,120.145l-1.98-0.281
			c0.163-1.143,0.562-2.216,1.189-3.189l1.682,1.083C9.482,118.486,9.182,119.289,9.061,120.145z M16.691,115.241
			c-0.818-0.239-1.703-0.3-2.546-0.181l-0.283-1.979c1.126-0.162,2.3-0.078,3.392,0.241L16.691,115.241z"/>
	</g>
	<g>
		<polygon style="fill:#11BACC;" points="47,11.272 44.293,8.564 45.707,7.15 47,8.444 50.293,5.151 51.707,6.565 		"/>
	</g>
	<g>
		<rect x="55" y="7.333" style="fill:#C4C4C4;" width="20" height="2"/>
	</g>
	<g>
		<polygon style="fill:#11BACC;" points="47,19.414 44.293,16.707 45.707,15.292 47,16.586 50.293,13.293 51.707,14.707 		"/>
	</g>
	<g>
		<rect x="55" y="15.475" style="fill:#C4C4C4;" width="20" height="2"/>
	</g>
	<g>
		<polygon style="fill:#11BACC;" points="47,27.753 44.293,25.045 45.707,23.631 47,24.925 50.293,21.632 51.707,23.046 		"/>
	</g>
	<g>
		<rect x="55" y="23.814" style="fill:#C4C4C4;" width="10" height="2"/>
	</g>
</g>
</svg>
