<?xml version="1.0" encoding="iso-8859-1"?>
<!-- Generator: Adobe Illustrator 17.0.0, SVG Export Plug-In . SVG Version: 6.00 Build 0)  -->
<!DOCTYPE svg PUBLIC "-//W3C//DTD SVG 1.1//EN" "http://www.w3.org/Graphics/SVG/1.1/DTD/svg11.dtd">
<svg version="1.1" id="sandclock" xmlns="http://www.w3.org/2000/svg" xmlns:xlink="http://www.w3.org/1999/xlink" x="0px" y="0px"
	 width="120px" height="142.042px" viewBox="0 0 120 142.042" style="enable-background:new 0 0 120 142.042;" xml:space="preserve"
	>
<g id="sandclock_1_">
	<g>
		<g>
			<g>
				<rect x="0" y="70" style="fill:#C4C4C4;" width="15" height="2"/>
			</g>
			<g>
				<rect x="105" y="70" style="fill:#C4C4C4;" width="15" height="2"/>
			</g>
		</g>
		<g>
			<g>
				<rect x="59" y="11" style="fill:#C4C4C4;" width="2" height="15"/>
			</g>
			<g>
				<rect x="59" y="116" style="fill:#C4C4C4;" width="2" height="15"/>
			</g>
		</g>
		<g>
			<g>
				
					<rect x="15.377" y="32.877" transform="matrix(0.7071 0.7071 -0.7071 0.7071 30.655 -6.2539)" style="fill:#C4C4C4;" width="15" height="2"/>
			</g>
			<g>
				
					<rect x="89.624" y="107.123" transform="matrix(0.7071 0.7071 -0.7071 0.7071 104.9014 -37.0084)" style="fill:#C4C4C4;" width="15" height="2"/>
			</g>
		</g>
		<g>
			<g>
				
					<rect x="96.124" y="26.377" transform="matrix(0.7071 0.7071 -0.7071 0.7071 52.4015 -58.7545)" style="fill:#C4C4C4;" width="2" height="15"/>
			</g>
			<g>
				
					<rect x="21.877" y="100.623" transform="matrix(0.7071 0.7071 -0.7071 0.7071 83.155 15.4923)" style="fill:#C4C4C4;" width="2" height="15"/>
			</g>
		</g>
		<g>
			<g>
				
					<rect x="4.229" y="49.356" transform="matrix(0.9195 0.3932 -0.3932 0.9195 20.7444 -0.556)" style="fill:#C4C4C4;" width="15" height="2"/>
			</g>
			<g>
				
					<rect x="100.771" y="90.644" transform="matrix(0.9195 0.3932 -0.3932 0.9195 44.7542 -35.1901)" style="fill:#C4C4C4;" width="15" height="2"/>
			</g>
		</g>
		<g>
			<g>
				
					<rect x="79.643" y="15.229" transform="matrix(0.9196 0.3929 -0.3929 0.9196 15.4165 -29.8583)" style="fill:#C4C4C4;" width="2.001" height="15"/>
			</g>
			<g>
				
					<rect x="38.356" y="111.771" transform="matrix(0.9196 0.3929 -0.3929 0.9196 50.029 -5.8714)" style="fill:#C4C4C4;" width="2.001" height="15"/>
			</g>
		</g>
		<g>
			<g>
				
					<rect x="32.965" y="21.27" transform="matrix(0.3721 0.9282 -0.9282 0.3721 46.079 -23.5756)" style="fill:#C4C4C4;" width="14.999" height="1.999"/>
			</g>
			<g>
				
					<rect x="72.036" y="118.731" transform="matrix(0.3721 0.9282 -0.9282 0.3721 161.075 1.3552)" style="fill:#C4C4C4;" width="14.999" height="1.999"/>
			</g>
		</g>
		<g>
			<g>
				
					<rect x="107.731" y="43.966" transform="matrix(0.3721 0.9282 -0.9282 0.3721 116.0462 -68.6078)" style="fill:#C4C4C4;" width="2" height="14.999"/>
			</g>
			<g>
				
					<rect x="10.27" y="83.035" transform="matrix(0.3721 0.9282 -0.9282 0.3721 91.1118 46.3895)" style="fill:#C4C4C4;" width="2" height="14.999"/>
			</g>
		</g>
		<g>
			<g>
				
					<rect x="0.926" y="60.18" transform="matrix(0.9824 0.187 -0.187 0.9824 11.5921 -0.4964)" style="fill:#C4C4C4;" width="15" height="2"/>
			</g>
			<g>
				
					<rect x="104.074" y="79.82" transform="matrix(0.9824 0.187 -0.187 0.9824 17.0859 -19.4428)" style="fill:#C4C4C4;" width="15" height="2"/>
			</g>
		</g>
		<g>
			<g>
				
					<rect x="68.82" y="11.927" transform="matrix(0.9824 0.187 -0.187 0.9824 4.8644 -12.7137)" style="fill:#C4C4C4;" width="2" height="15"/>
			</g>
			<g>
				
					<rect x="49.18" y="115.073" transform="matrix(0.9824 0.187 -0.187 0.9824 23.8064 -7.2215)" style="fill:#C4C4C4;" width="2" height="15"/>
			</g>
		</g>
		<g>
			<g>
				
					<rect x="22.976" y="26.588" transform="matrix(0.5624 0.8269 -0.8269 0.5624 36.1496 -13.1265)" style="fill:#C4C4C4;" width="15" height="2.001"/>
			</g>
			<g>
				
					<rect x="82.025" y="113.411" transform="matrix(0.5623 0.8269 -0.8269 0.5623 133.7919 -23.9546)" style="fill:#C4C4C4;" width="14.999" height="2.001"/>
			</g>
		</g>
		<g>
			<g>
				
					<rect x="102.412" y="33.975" transform="matrix(0.5625 0.8268 -0.8268 0.5625 79.5413 -67.3569)" style="fill:#C4C4C4;" width="2" height="15.001"/>
			</g>
			<g>
				
					<rect x="15.588" y="93.024" transform="matrix(0.5625 0.8268 -0.8268 0.5625 90.3748 30.2689)" style="fill:#C4C4C4;" width="2" height="15.001"/>
			</g>
		</g>
		<g>
			<g>
				
					<rect x="8.943" y="40.692" transform="matrix(0.8297 0.5582 -0.5582 0.8297 26.0731 -2.0783)" style="fill:#C4C4C4;" width="15" height="2"/>
			</g>
			<g>
				
					<rect x="96.058" y="99.308" transform="matrix(0.8297 0.5582 -0.5582 0.8297 73.633 -40.7253)" style="fill:#C4C4C4;" width="15" height="2"/>
			</g>
		</g>
		<g>
			<g>
				
					<rect x="88.308" y="19.942" transform="matrix(0.8299 0.558 -0.558 0.8299 30.5062 -45.1618)" style="fill:#C4C4C4;" width="2.001" height="15"/>
			</g>
			<g>
				
					<rect x="29.692" y="107.057" transform="matrix(0.8299 0.558 -0.558 0.8299 69.1407 2.3651)" style="fill:#C4C4C4;" width="2.001" height="15"/>
			</g>
		</g>
		<g>
			<g>
				
					<rect x="42.425" y="18.476" transform="matrix(0.1919 0.9814 -0.9814 0.1919 59.4598 -33.2579)" style="fill:#C4C4C4;" width="15" height="2"/>
			</g>
			<g>
				
					<rect x="62.576" y="121.524" transform="matrix(0.1919 0.9814 -0.9814 0.1919 176.8787 30.2422)" style="fill:#C4C4C4;" width="15" height="2"/>
			</g>
		</g>
		<g>
			<g>
				
					<rect x="110.525" y="53.425" transform="matrix(0.1924 0.9813 -0.9813 0.1924 149.8586 -60.2367)" style="fill:#C4C4C4;" width="2" height="15"/>
			</g>
			<g>
				
					<rect x="7.476" y="73.576" transform="matrix(0.1924 0.9813 -0.9813 0.1924 86.4067 57.1623)" style="fill:#C4C4C4;" width="2" height="15"/>
			</g>
		</g>
	</g>
	<g>
		<g>
			<path style="fill:#E2C120;" d="M75.083,51.719c6.142-7.848,9.676-16.449,11.688-24.062c-17.562,4.45-36.013,4.447-53.575-0.008
				c2.009,7.595,5.529,16.175,11.645,24.01C53.746,58.475,66.158,58.495,75.083,51.719z"/>
		</g>
		<g>
			<path style="fill:#E4E5E7;" d="M86.771,27.658c3.202-12.107,2.587-21.699,2.587-21.699H30.611c0,0-0.615,9.587,2.585,21.69
				C50.759,32.104,69.209,32.107,86.771,27.658z"/>
		</g>
		<g>
			<path style="fill:#E4E5E7;" d="M72.567,87.261c0,0-8.396-8.13-8.396-16.26s8.396-16.26,8.396-16.26
				c0.889-0.99,1.717-2.001,2.516-3.021c-8.925,6.776-21.337,6.755-30.241-0.06c0.813,1.04,1.656,2.071,2.563,3.081
				c0,0,8.394,8.13,8.394,16.26s-8.394,16.26-8.394,16.26c-17.123,19.073-16.953,44.321-16.816,48.242
				c16.005-14.78,29.586-40.017,58.803-0.288C89.517,130.463,89.307,105.908,72.567,87.261z"/>
		</g>
		<g>
			<path style="fill:#E2C120;" d="M30.588,135.503c0.012,0.341,0.023,0.539,0.023,0.539h58.747c0,0,0.019-0.295,0.032-0.827
				C60.174,95.486,46.593,120.723,30.588,135.503z"/>
		</g>
	</g>
	<g>
		<path d="M96,7H24V0h72V7z M26,5h68V2H26V5z"/>
	</g>
	<g>
		<path d="M96,142.042H24v-7h72V142.042z M26,140.042h68v-3H26V140.042z"/>
	</g>
	<g>
		<rect x="27" y="5.959" width="2" height="130.083"/>
	</g>
	<g>
		<rect x="91" y="5.959" width="2" height="130.083"/>
	</g>
	<g>
		<rect x="59" y="5.959" width="2" height="130.083"/>
	</g>
	<g>
		<circle style="fill:#E2C120;" cx="2.642" cy="13.642" r="2.642"/>
	</g>
	<g>
		<circle style="fill:#EFD32E;" cx="113.04" cy="124.04" r="6.96"/>
	</g>
	<g>
		<g>
			<rect x="9" y="21" width="2" height="20"/>
		</g>
		<g>
			<rect x="5" y="20" width="10" height="2"/>
		</g>
		<g>
			<rect x="5" y="40" width="10" height="2"/>
		</g>
	</g>
	<g>
		<g>
			<rect x="111.114" y="81" width="2" height="20"/>
		</g>
		<g>
			<rect x="106.114" y="81" width="2" height="20"/>
		</g>
		<g>
			<rect x="104.78" y="80" width="10" height="2"/>
		</g>
		<g>
			<rect x="104.78" y="100" width="10" height="2"/>
		</g>
	</g>
	<g>
		<g>
			<rect x="5" y="110" width="10" height="2"/>
		</g>
		<g>
			<rect x="5" y="130" width="10" height="2"/>
		</g>
		<g>
			<rect x="10.073" y="110.921" transform="matrix(0.9922 0.125 -0.125 0.9922 15.2114 -0.4352)" width="2" height="20.158"/>
		</g>
		<g>
			<rect x="-1.503" y="120" transform="matrix(0.123 0.9924 -0.9924 0.123 127.6005 97.6104)" width="20.153" height="2"/>
		</g>
	</g>
</g>
</svg>
