<?xml version="1.0" encoding="iso-8859-1"?>
<!-- Generator: Adobe Illustrator 17.0.0, SVG Export Plug-In . SVG Version: 6.00 Build 0)  -->
<!DOCTYPE svg PUBLIC "-//W3C//DTD SVG 1.1//EN" "http://www.w3.org/Graphics/SVG/1.1/DTD/svg11.dtd">
<svg version="1.1" id="seo" xmlns="http://www.w3.org/2000/svg" xmlns:xlink="http://www.w3.org/1999/xlink" x="0px" y="0px"
	 width="122px" height="142px" viewBox="0 0 122 142" style="enable-background:new 0 0 122 142;" xml:space="preserve">
<g id="seo_1_">
	<g>
		<circle style="fill:#E4E5E7;" cx="98.5" cy="36" r="10"/>
	</g>
	<g>
		<g>
			<rect x="11" y="25" width="10" height="2"/>
		</g>
		<g>
			<rect x="26" y="25" width="5" height="2"/>
		</g>
		<g>
			<rect x="11" y="30" width="25" height="2"/>
		</g>
		<g>
			<rect x="41" y="30" width="5" height="2"/>
		</g>
		<g>
			<rect x="51" y="30" width="15" height="2"/>
		</g>
		<g>
			<rect x="11" y="35" width="5" height="2"/>
		</g>
		<g>
			<rect x="66" y="35" width="15" height="2"/>
		</g>
		<g>
			<rect x="21" y="35" width="10" height="2"/>
		</g>
		<g>
			<rect x="36" y="35" width="10" height="2"/>
		</g>
		<g>
			<rect x="51.861" y="35" width="10" height="2"/>
		</g>
		<g>
			<rect x="11" y="65" width="10" height="2"/>
		</g>
		<g>
			<rect x="26" y="65" width="5" height="2"/>
		</g>
		<g>
			<rect x="11" y="70" width="25" height="2"/>
		</g>
		<g>
			<rect x="41" y="70" width="5" height="2"/>
		</g>
		<g>
			<rect x="101" y="70" width="5" height="2"/>
		</g>
		<g>
			<rect x="51" y="70" width="45" height="2"/>
		</g>
		<g>
			<rect x="11" y="75" width="5" height="2"/>
		</g>
		<g>
			<rect x="91" y="75" width="10" height="2"/>
		</g>
		<g>
			<rect x="21" y="75" width="10" height="2"/>
		</g>
		<g>
			<rect x="36" y="75" width="10" height="2"/>
		</g>
		<g>
			<rect x="16" y="45" width="10" height="2"/>
		</g>
		<g>
			<rect x="31" y="45" width="15" height="2"/>
		</g>
		<g>
			<rect x="21" y="50" width="20" height="2"/>
		</g>
		<g>
			<rect x="46" y="50" width="10" height="2"/>
		</g>
		<g>
			<rect x="61" y="50" width="10" height="2"/>
		</g>
		<g>
			<rect x="21" y="55" width="5" height="2"/>
		</g>
		<g>
			<rect x="31" y="55" width="5" height="2"/>
		</g>
		<g>
			<rect x="41" y="55" width="10" height="2"/>
		</g>
		<g>
			<rect x="11" y="90" width="10" height="2"/>
		</g>
		<g>
			<rect x="26" y="90" width="15" height="2"/>
		</g>
		<g>
			<rect x="16" y="95" width="20" height="2"/>
		</g>
		<g>
			<rect x="41" y="95" width="10" height="2"/>
		</g>
		<g>
			<rect x="56" y="95" width="10" height="2"/>
		</g>
		<g>
			<rect x="21" y="100" width="7" height="2"/>
		</g>
		<g>
			<rect x="33" y="100" width="3" height="2"/>
		</g>
		<g>
			<rect x="41" y="100" width="10" height="2"/>
		</g>
		<g>
			<rect x="11" y="110" width="13" height="2"/>
		</g>
		<g>
			<rect x="29" y="110" width="12" height="2"/>
		</g>
		<g>
			<rect x="16" y="115" width="23" height="2"/>
		</g>
		<g>
			<rect x="45" y="115" width="8" height="2"/>
		</g>
		<g>
			<rect x="87" y="115" width="8" height="2"/>
		</g>
		<g>
			<rect x="56" y="115" width="25" height="2"/>
		</g>
		<g>
			<rect x="21" y="120" width="7" height="2"/>
		</g>
		<g>
			<rect x="33" y="120" width="7" height="2"/>
		</g>
		<g>
			<rect x="45" y="120" width="10" height="2"/>
		</g>
	</g>
	<g>
		<rect x="1" y="1" style="fill:#34C9A2;" width="120" height="15"/>
	</g>
	<g>
		<path style="fill:#C4C4C4;" d="M122,142H0V0h122V142z M2,140h118V2H2V140z"/>
	</g>
	<g>
		<path d="M108.5,12c-1.93,0-3.5-1.57-3.5-3.5s1.57-3.5,3.5-3.5s3.5,1.57,3.5,3.5S110.43,12,108.5,12z M108.5,7
			c-0.827,0-1.5,0.673-1.5,1.5s0.673,1.5,1.5,1.5s1.5-0.673,1.5-1.5S109.327,7,108.5,7z"/>
	</g>
	<g>
		<path d="M98.5,12c-1.93,0-3.5-1.57-3.5-3.5S96.57,5,98.5,5s3.5,1.57,3.5,3.5S100.43,12,98.5,12z M98.5,7C97.673,7,97,7.673,97,8.5
			s0.673,1.5,1.5,1.5s1.5-0.673,1.5-1.5S99.327,7,98.5,7z"/>
	</g>
	<g>
		<path d="M88.5,12c-1.93,0-3.5-1.57-3.5-3.5S86.57,5,88.5,5S92,6.57,92,8.5S90.43,12,88.5,12z M88.5,7C87.673,7,87,7.673,87,8.5
			s0.673,1.5,1.5,1.5S90,9.327,90,8.5S89.327,7,88.5,7z"/>
	</g>
	<g>
		<circle style="fill:#27BA90;" cx="61" cy="76" r="30"/>
	</g>
	<g>
		<g>
			<polygon points="50.553,81.895 38.764,76 50.553,70.105 51.447,71.895 43.236,76 51.447,80.105 			"/>
		</g>
		<g>
			<polygon points="71.447,81.895 70.553,80.105 78.764,76 70.553,71.895 71.447,70.105 83.236,76 			"/>
		</g>
		<g>
			<rect x="60" y="66" transform="matrix(0.9102 0.4141 -0.4141 0.9102 36.9472 -18.4376)" width="2" height="20"/>
		</g>
	</g>
</g>
</svg>
