<?xml version="1.0" encoding="iso-8859-1"?>
<!-- Generator: Adobe Illustrator 17.0.0, SVG Export Plug-In . SVG Version: 6.00 Build 0)  -->
<!DOCTYPE svg PUBLIC "-//W3C//DTD SVG 1.1//EN" "http://www.w3.org/Graphics/SVG/1.1/DTD/svg11.dtd">
<svg version="1.1" id="solution" xmlns="http://www.w3.org/2000/svg" xmlns:xlink="http://www.w3.org/1999/xlink" x="0px" y="0px"
	 width="120px" height="141.576px" viewBox="0 0 120 141.576" style="enable-background:new 0 0 120 141.576;" xml:space="preserve"
	>
<g id="solution_1_">
	<g>
		<path style="fill:#E2C120;" d="M60,0v20.002c0,0,0,5,5,5c0,0,1.351-0.158,1.89-0.842v0.016c1.813-2.523,4.766-4.173,8.11-4.173
			c5.517,0,9.99,4.473,9.99,9.99c0,5.517-4.473,9.989-9.99,9.989c-3.344,0-6.297-1.649-8.11-4.173v0.031
			C66.351,35.154,65,34.996,65,34.996c-5,0-5,5-5,5V60h20.28c0.965,0.07,4.784,0.622,4.784,4.994c0,0-0.159,1.352-0.843,1.892h0.031
			c-2.526,1.814-4.177,4.77-4.177,8.117c0,5.521,4.477,9.998,9.998,9.998c5.521,0,9.998-4.477,9.998-9.998
			c0-3.347-1.651-6.302-4.177-8.117h0.016c-0.685-0.54-0.843-1.892-0.843-1.892c0-4.372,3.819-4.924,4.784-4.994H120V0H60z"/>
	</g>
	<g>
		<path style="fill:#E4E5E7;" d="M25,55c0,0-0.158-1.351-0.842-1.89h0.016C21.65,51.297,20,48.344,20,45
			c0-5.517,4.473-9.99,9.99-9.99c5.517,0,9.989,4.473,9.989,9.99c0,3.344-1.649,6.297-4.173,8.11h0.031
			C35.152,53.649,34.994,55,34.994,55c0,5,5,5,5,5H60V39.996c0,0,0-5,5-5c0,0,1.351,0.158,1.89,0.842v-0.031
			c1.813,2.524,4.766,4.173,8.11,4.173c5.517,0,9.99-4.473,9.99-9.989c0-5.517-4.473-9.99-9.99-9.99c-3.344,0-6.297,1.65-8.11,4.173
			V24.16C66.351,24.844,65,25.002,65,25.002c-5,0-5-5-5-5V0H0v60h20C20,60,25,60,25,55z"/>
	</g>
	<g>
		<path style="fill:#EFD32E;" d="M45.302,80.021c3.344,0,6.297,1.649,8.11,4.173v-0.031c0.539,0.684,1.89,0.842,1.89,0.842
			c3.047,0,4.233-1.855,4.698-3.306V60H39.994c0,0-5,0-5-5c0,0,0.158-1.351,0.842-1.89h-0.031c2.524-1.813,4.173-4.766,4.173-8.11
			c0-5.517-4.473-9.99-9.989-9.99C24.473,35.01,20,39.483,20,45c0,3.344,1.65,6.297,4.173,8.11h-0.016C24.842,53.649,25,55,25,55
			c0,5-5,5-5,5H0v60h60V98.306C59.535,96.855,58.35,95,55.302,95c0,0-1.351,0.158-1.89,0.842v-0.016
			C51.6,98.35,48.647,100,45.302,100c-5.517,0-9.99-4.473-9.99-9.99C35.313,84.494,39.785,80.021,45.302,80.021z"/>
	</g>
	<g>
		<path style="fill:#C4C4C4;" d="M94.504,80.532c0,0-0.181,1.35,0.349,2.041l-0.015-0.004c1.997,2.383,2.865,5.656,2.037,8.898
			c-1.368,5.35-6.813,8.578-12.163,7.21c-5.349-1.367-8.578-6.813-7.21-12.162c0.829-3.243,3.16-5.697,6.057-6.83l-0.03-0.008
			c0.797-0.353,1.286-1.623,1.286-1.623c1.082-4.236-2.481-5.716-3.399-6.023L61.767,67.01l-5.374,21.024
			c-0.81,1.29-2.417,2.794-5.37,2.039c0,0-1.27-0.488-1.622-1.284l-0.008,0.03c-1.131-2.895-3.584-5.224-6.824-6.052
			c-5.345-1.366-10.786,1.86-12.152,7.205c-1.366,5.345,1.859,10.786,7.205,12.152c3.24,0.828,6.51-0.039,8.891-2.035l-0.003,0.015
			c0.691-0.529,2.039-0.348,2.039-0.348c2.953,0.754,3.642,2.845,3.733,4.366l-5.373,21.019L105.039,140l14.858-58.131l-19.522-4.99
			C99.423,76.707,95.586,76.297,94.504,80.532z"/>
	</g>
	<g>
		<path d="M23.28,141.576c-1.112-0.119-2.212-0.355-3.27-0.702l0.624-1.9c0.924,0.303,1.886,0.51,2.858,0.614L23.28,141.576z
			 M29.895,140.904L29.284,139c0.929-0.298,1.829-0.696,2.674-1.182l0.996,1.734C31.987,140.108,30.958,140.563,29.895,140.904z
			 M14.262,137.53c-0.827-0.75-1.578-1.587-2.23-2.489l1.62-1.173c0.572,0.79,1.229,1.523,1.953,2.179L14.262,137.53z
			 M37.91,135.121l-1.612-1.184c0.578-0.788,1.074-1.638,1.474-2.525l1.823,0.821C39.138,133.248,38.571,134.22,37.91,135.121z
			 M9.339,128.959C9.114,127.884,9,126.777,9,125.667l2-0.031v0.031c0,0.972,0.1,1.941,0.297,2.882L9.339,128.959z M39,125.729
			v-0.062c0-0.98-0.102-1.959-0.303-2.911l1.957-0.413c0.229,1.086,0.346,2.205,0.346,3.324L39,125.729z M12.217,119.95
			l-1.825-0.818c0.456-1.016,1.021-1.989,1.679-2.891l1.615,1.18C13.109,118.21,12.615,119.061,12.217,119.95z M36.331,117.443
			c-0.574-0.79-1.233-1.521-1.958-2.175l1.339-1.485c0.828,0.747,1.581,1.582,2.236,2.484L36.331,117.443z M18.016,113.531l-1-1.732
			c0.967-0.558,1.996-1.015,3.057-1.358l0.615,1.903C19.761,112.644,18.861,113.043,18.016,113.531z M29.338,112.353
			c-0.927-0.302-1.889-0.506-2.86-0.608l0.208-1.989c1.11,0.116,2.211,0.35,3.271,0.695L29.338,112.353z"/>
	</g>
	<g>
		<g>
			<rect x="30" y="9" width="70" height="2"/>
		</g>
		<g>
			<polygon points="97.475,14.243 96.061,12.829 98.889,10 96.061,7.171 97.475,5.757 101.718,10 			"/>
		</g>
	</g>
	<g>
		<g>
			<rect x="80.152" y="119" width="39.848" height="2"/>
		</g>
		<g>
			<polygon points="82.677,124.243 78.434,120 82.677,115.757 84.091,117.171 81.262,120 84.091,122.829 			"/>
		</g>
	</g>
</g>
</svg>
