<?xml version="1.0" encoding="iso-8859-1"?>
<!-- Generator: Adobe Illustrator 17.0.0, SVG Export Plug-In . SVG Version: 6.00 Build 0)  -->
<!DOCTYPE svg PUBLIC "-//W3C//DTD SVG 1.1//EN" "http://www.w3.org/Graphics/SVG/1.1/DTD/svg11.dtd">
<svg version="1.1" id="stopwatch" xmlns="http://www.w3.org/2000/svg" xmlns:xlink="http://www.w3.org/1999/xlink" x="0px" y="0px"
	 width="121.942px" height="142px" viewBox="0 0 121.942 142" style="enable-background:new 0 0 121.942 142;" xml:space="preserve"
	>
<g id="stopwatch_1_">
	<g>
		<g>
			<g>
				<rect x="5.971" y="113.502" style="fill:#C4C4C4;" width="5" height="22.5"/>
			</g>
			<g>
				<rect x="12.971" y="91.002" style="fill:#C4C4C4;" width="5" height="45"/>
			</g>
			<g>
				<rect x="19.971" y="68.502" style="fill:#C4C4C4;" width="5" height="67.5"/>
			</g>
			<g>
				<rect x="26.971" y="90.668" style="fill:#C4C4C4;" width="5" height="45.334"/>
			</g>
			<g>
				<rect x="33.971" y="113.335" style="fill:#C4C4C4;" width="5" height="22.667"/>
			</g>
			<g>
				<rect x="40.971" y="91.002" style="fill:#C4C4C4;" width="5" height="45"/>
			</g>
			<g>
				<rect x="47.971" y="46.002" style="fill:#C4C4C4;" width="5" height="90"/>
			</g>
			<g>
				<rect x="54.971" y="23.502" style="fill:#C4C4C4;" width="5" height="112.5"/>
			</g>
		</g>
		<g>
			<g>
				<rect x="110.971" y="102.252" style="fill:#C4C4C4;" width="5" height="33.75"/>
			</g>
			<g>
				<rect x="103.971" y="68.502" style="fill:#C4C4C4;" width="5" height="67.5"/>
			</g>
			<g>
				<rect x="96.971" y="1.002" style="fill:#C4C4C4;" width="5" height="135"/>
			</g>
			<g>
				<rect x="89.971" y="20.127" style="fill:#C4C4C4;" width="5" height="115.875"/>
			</g>
			<g>
				<rect x="82.971" y="113.335" style="fill:#C4C4C4;" width="5" height="22.667"/>
			</g>
			<g>
				<rect x="75.971" y="79.752" style="fill:#C4C4C4;" width="5" height="56.25"/>
			</g>
			<g>
				<rect x="68.971" y="46.002" style="fill:#C4C4C4;" width="5" height="90"/>
			</g>
			<g>
				<rect x="61.971" y="34.752" style="fill:#C4C4C4;" width="5" height="101.25"/>
			</g>
		</g>
	</g>
	<g>
		<path d="M60.971,142c-16.294,0-31.612-6.345-43.134-17.866c-23.783-23.784-23.783-62.483,0-86.268
			C29.359,26.345,44.677,20,60.971,20s31.612,6.345,43.134,17.866c23.783,23.784,23.783,62.483,0,86.268
			C92.583,135.655,77.265,142,60.971,142z M60.971,22c-15.76,0-30.576,6.137-41.72,17.28c-23.003,23.004-23.003,60.436,0,83.439
			C30.395,133.863,45.211,140,60.971,140s30.576-6.137,41.72-17.28c23.003-23.004,23.003-60.435,0-83.439
			C91.547,28.137,76.731,22,60.971,22z"/>
	</g>
	<g>
		<circle style="fill:#E4E5E7;" cx="60.971" cy="81" r="50"/>
	</g>
	<g>
		<rect x="59.971" y="16" width="2" height="5"/>
	</g>
	<g>
		<g>
			
				<rect x="100.364" y="26.607" transform="matrix(0.7071 0.7071 -0.7071 0.7071 54.6773 -68.7839)" style="fill:#E4E5E7;" width="20" height="10"/>
		</g>
		<g>
			
				<rect x="105.829" y="23.071" transform="matrix(0.7071 0.7071 -0.7071 0.7071 51.1386 -67.3178)" style="fill:#C4C4C4;" width="2" height="10"/>
		</g>
		<g>
			
				<rect x="109.365" y="26.606" transform="matrix(0.7071 0.7071 -0.7071 0.7071 54.6742 -68.7823)" style="fill:#C4C4C4;" width="2" height="10"/>
		</g>
		<g>
			
				<rect x="112.9" y="30.142" transform="matrix(0.7071 0.7071 -0.7071 0.7071 58.2099 -70.2469)" style="fill:#C4C4C4;" width="2" height="10"/>
		</g>
	</g>
	<g>
		<rect x="104.114" y="34.432" transform="matrix(0.7071 0.7071 -0.7071 0.7071 56.8501 -63.5314)" width="2" height="4.852"/>
	</g>
	<g>
		<path d="M60.971,17c-4.687,0-8.5-3.813-8.5-8.5s3.813-8.5,8.5-8.5s8.5,3.813,8.5,8.5S65.658,17,60.971,17z M60.971,2
			c-3.584,0-6.5,2.916-6.5,6.5s2.916,6.5,6.5,6.5s6.5-2.916,6.5-6.5S64.555,2,60.971,2z"/>
	</g>
	<g>
		<path d="M60.963,89.502c-3.994,0-7.489-2.841-8.311-6.756c-0.467-2.222-0.04-4.493,1.202-6.394
			c1.241-1.901,3.148-3.205,5.371-3.67c0.577-0.122,1.167-0.183,1.753-0.183c3.994,0,7.489,2.841,8.311,6.757
			c0.467,2.222,0.04,4.492-1.202,6.393c-1.241,1.901-3.148,3.205-5.371,3.67C62.139,89.441,61.549,89.502,60.963,89.502z
			 M60.979,74.499c-0.448,0-0.899,0.047-1.343,0.14c-1.699,0.356-3.158,1.354-4.107,2.807c-0.949,1.453-1.275,3.189-0.919,4.889
			c0.629,2.995,3.301,5.167,6.354,5.167c0.448,0,0.899-0.047,1.343-0.14c1.699-0.356,3.158-1.354,4.107-2.807
			c0.949-1.453,1.275-3.189,0.919-4.889C66.705,76.672,64.033,74.499,60.979,74.499z"/>
	</g>
	<g>
		<circle style="fill:#11BACC;" cx="60.971" cy="81" r="2.583"/>
	</g>
	<g>
		<g>
			<path style="fill:#1FCCE8;" d="M60.971,36v30c7.228,0.001,13.26,5.114,14.68,11.921l29.366-6.161
				C100.754,51.341,82.655,36,60.971,36z"/>
		</g>
	</g>
	<g>
		<g>
			<rect x="59.971" y="28.625" width="2" height="5"/>
		</g>
		<g>
			<rect x="59.971" y="128.5" width="2" height="5"/>
		</g>
	</g>
	<g>
		<g>
			<rect x="108.409" y="80.062" width="5" height="2"/>
		</g>
		<g>
			<rect x="8.534" y="80.062" width="5" height="2"/>
		</g>
	</g>
	<g>
		<g>
			<rect x="95.282" y="43.251" transform="matrix(0.7071 0.7071 -0.7071 0.7071 60.5516 -54.6815)" width="2" height="5.001"/>
		</g>
		<g>
			<rect x="24.66" y="113.873" transform="matrix(0.7071 0.7071 -0.7071 0.7071 89.8042 15.9405)" width="2" height="5.001"/>
		</g>
	</g>
	<g>
		<g>
			<rect x="93.782" y="115.374" transform="matrix(0.7071 0.7071 -0.7071 0.7071 110.4889 -33.9968)" width="5.001" height="2"/>
		</g>
		<g>
			<rect x="23.16" y="44.752" transform="matrix(0.7071 0.7071 -0.7071 0.7071 39.8669 -4.7442)" width="5.001" height="2"/>
		</g>
	</g>
	<g>
		<g>
			<rect x="79.25" y="32.497" transform="matrix(0.9225 0.3861 -0.3861 0.9225 19.733 -28.2688)" width="2.001" height="5"/>
		</g>
		<g>
			<rect x="40.692" y="124.628" transform="matrix(0.9226 0.3857 -0.3857 0.9226 52.2529 -6.2446)" width="2" height="5"/>
		</g>
	</g>
	<g>
		<g>
			<rect x="104.537" y="99.341" transform="matrix(0.9224 0.3861 -0.3861 0.9224 47.0456 -33.548)" width="5" height="2"/>
		</g>
		<g>
			<rect x="12.405" y="60.784" transform="matrix(0.9224 0.3861 -0.3861 0.9224 25.0123 -0.9637)" width="5" height="2"/>
		</g>
	</g>
	<g>
		<g>
			<rect x="106.177" y="59.621" transform="matrix(0.379 0.9254 -0.9254 0.379 124.0495 -60.6035)" width="2" height="5.001"/>
		</g>
		<g>
			<rect x="13.766" y="97.504" transform="matrix(0.3791 0.9253 -0.9253 0.3791 101.7053 48.4268)" width="1.999" height="5.001"/>
		</g>
	</g>
	<g>
		<g>
			<rect x="77.412" y="126.269" transform="matrix(0.3793 0.9253 -0.9253 0.3793 167.3658 5.0587)" width="5.001" height="1.999"/>
		</g>
		<g>
			<rect x="39.53" y="33.857" transform="matrix(0.3793 0.9253 -0.9253 0.3793 58.3421 -17.2529)" width="5.001" height="1.999"/>
		</g>
	</g>
	<g>
		<rect x="89.985" y="51.537" transform="matrix(0.2051 0.9787 -0.9787 0.2051 145.4369 -29.6692)" width="2" height="46.334"/>
	</g>
</g>
</svg>
