<?xml version="1.0" encoding="iso-8859-1"?>
<!-- Generator: Adobe Illustrator 17.0.0, SVG Export Plug-In . SVG Version: 6.00 Build 0)  -->
<!DOCTYPE svg PUBLIC "-//W3C//DTD SVG 1.1//EN" "http://www.w3.org/Graphics/SVG/1.1/DTD/svg11.dtd">
<svg version="1.1" id="target" xmlns="http://www.w3.org/2000/svg" xmlns:xlink="http://www.w3.org/1999/xlink" x="0px" y="0px"
	 width="122px" height="142.109px" viewBox="0 0 122 142.109" style="enable-background:new 0 0 122 142.109;" xml:space="preserve"
	>
<g id="target_1_">
	<g>
		<polygon style="fill:#E4E5E7;" points="41,96.402 26,96.402 26,81.402 16,81.402 16,96.402 1,96.402 1,106.402 16,106.402 
			16,121.402 26,121.402 26,106.402 41,106.402 		"/>
	</g>
	<g>
		<polygon style="fill:#C4C4C4;" points="38.344,20.809 33.938,16.402 38.344,11.995 35.407,9.057 31,13.464 26.592,9.057 
			23.655,11.995 28.061,16.402 23.655,20.809 26.592,23.747 31,19.34 35.407,23.747 		"/>
	</g>
	<g>
		<polygon style="fill:#E4E5E7;" points="121.149,48.815 118.237,45.903 121.149,42.99 119.208,41.047 116.294,43.96 
			113.381,41.047 111.44,42.99 114.352,45.903 111.44,48.815 113.381,50.756 116.294,47.844 119.208,50.756 		"/>
	</g>
	<g>
		<g>
			<path style="fill:#E4E5E7;" d="M21,72.402c-11.579,0-21-9.42-21-21s9.421-21,21-21s21,9.42,21,21S32.579,72.402,21,72.402z
				 M21,32.402c-10.477,0-19,8.523-19,19s8.523,19,19,19s19-8.523,19-19S31.477,32.402,21,32.402z"/>
		</g>
		<g>
			<path style="fill:#E4E5E7;" d="M21,67.402c-8.822,0-16-7.178-16-16s7.178-16,16-16s16,7.178,16,16S29.822,67.402,21,67.402z
				 M21,37.402c-7.72,0-14,6.28-14,14s6.28,14,14,14s14-6.28,14-14S28.72,37.402,21,37.402z"/>
		</g>
		<g>
			<path style="fill:#E4E5E7;" d="M21,62.403c-6.066,0-11.001-4.935-11.001-11.001S14.934,40.401,21,40.401
				s11.001,4.935,11.001,11.001S27.066,62.403,21,62.403z M21,42.401c-4.963,0-9.001,4.038-9.001,9.001s4.038,9.001,9.001,9.001
				s9.001-4.038,9.001-9.001S25.963,42.401,21,42.401z"/>
		</g>
		<g>
			<path style="fill:#E4E5E7;" d="M21,57.902c-3.584,0-6.5-2.916-6.5-6.5s2.916-6.5,6.5-6.5s6.5,2.916,6.5,6.5
				S24.584,57.902,21,57.902z M21,46.902c-2.481,0-4.5,2.019-4.5,4.5s2.019,4.5,4.5,4.5s4.5-2.019,4.5-4.5S23.481,46.902,21,46.902z
				"/>
		</g>
	</g>
	<g>
		<g>
			<path style="fill:#E4E5E7;" d="M106,122.402c-8.822,0-16-7.178-16-16s7.178-16,16-16s16,7.178,16,16S114.822,122.402,106,122.402
				z M106,92.402c-7.72,0-14,6.28-14,14s6.28,14,14,14s14-6.28,14-14S113.72,92.402,106,92.402z"/>
		</g>
		<g>
			<path style="fill:#E4E5E7;" d="M106,117.403c-6.066,0-11.001-4.935-11.001-11.001S99.934,95.401,106,95.401
				s11.001,4.935,11.001,11.001S112.066,117.403,106,117.403z M106,97.401c-4.963,0-9.001,4.038-9.001,9.001
				s4.038,9.001,9.001,9.001s9.001-4.038,9.001-9.001S110.963,97.401,106,97.401z"/>
		</g>
		<g>
			<path style="fill:#E4E5E7;" d="M106,112.902c-3.584,0-6.5-2.916-6.5-6.5s2.916-6.5,6.5-6.5s6.5,2.916,6.5,6.5
				S109.584,112.902,106,112.902z M106,101.902c-2.481,0-4.5,2.019-4.5,4.5s2.019,4.5,4.5,4.5s4.5-2.019,4.5-4.5
				S108.481,101.902,106,101.902z"/>
		</g>
	</g>
	<g>
		<circle style="fill:#11BACC;" cx="61" cy="71.402" r="10"/>
	</g>
	<g>
		<path d="M61,92.402c-11.579,0-21-9.42-21-21s9.421-21,21-21s21,9.42,21,21S72.579,92.402,61,92.402z M61,52.402
			c-10.477,0-19,8.523-19,19s8.523,19,19,19s19-8.523,19-19S71.477,52.402,61,52.402z"/>
	</g>
	<g>
		<path style="fill:#11BACC;" d="M61,102.402c-17.094,0-31-13.907-31-31s13.906-31,31-31s31,13.907,31,31S78.094,102.402,61,102.402
			z M61,42.402c-15.99,0-29,13.009-29,29s13.01,29,29,29s29-13.009,29-29S76.99,42.402,61,42.402z"/>
	</g>
	<g>
		<path style="fill:#11BACC;" d="M61,107.402c-19.851,0-36-16.149-36-36s16.149-36,36-36s36,16.149,36,36S80.851,107.402,61,107.402
			z M61,37.402c-18.748,0-34,15.252-34,34s15.252,34,34,34s34-15.252,34-34S79.748,37.402,61,37.402z"/>
	</g>
	<g>
		<path style="fill:#1FCCE8;" d="M61,122.402c-28.121,0-51-22.879-51-51c0-28.122,22.879-51,51-51s51,22.878,51,51
			C112,99.523,89.121,122.402,61,122.402z M61,22.402c-27.019,0-49,21.981-49,49s21.981,49,49,49s49-21.981,49-49
			S88.019,22.402,61,22.402z"/>
	</g>
	<g>
		<path d="M60.951,117.404c-0.574,0-1.146-0.011-1.717-0.032l0.074-1.998c0.986,0.035,1.978,0.041,2.972,0.01l0.061,2
			C61.877,117.397,61.413,117.404,60.951,117.404z M68.519,116.787l-0.326-1.973c0.979-0.162,1.96-0.357,2.914-0.582l0.457,1.947
			C70.566,116.414,69.542,116.618,68.519,116.787z M53.062,116.722c-1.02-0.178-2.043-0.393-3.041-0.639l0.479-1.941
			c0.953,0.234,1.932,0.439,2.906,0.609L53.062,116.722z M77.497,114.354l-0.717-1.867c0.916-0.352,1.836-0.741,2.735-1.158
			l0.842,1.814C79.417,113.579,78.455,113.987,77.497,114.354z M44.103,114.196c-0.954-0.378-1.913-0.795-2.85-1.24l0.859-1.807
			c0.896,0.427,1.813,0.826,2.727,1.188L44.103,114.196z M85.795,110.156l-1.08-1.684c0.829-0.531,1.65-1.099,2.443-1.687
			l1.191,1.607C87.521,109.007,86.661,109.6,85.795,110.156z M35.842,109.914c-0.863-0.563-1.718-1.165-2.542-1.787l1.205-1.596
			c0.788,0.595,1.605,1.17,2.431,1.709L35.842,109.914z M93.075,104.373l-1.396-1.432c0.714-0.696,1.406-1.418,2.059-2.145
			l1.488,1.336C94.544,102.891,93.821,103.645,93.075,104.373z M28.607,104.064c-0.73-0.725-1.448-1.484-2.132-2.258l1.5-1.324
			c0.653,0.74,1.34,1.468,2.04,2.16L28.607,104.064z M99.053,97.247l-1.654-1.125c0.56-0.823,1.094-1.669,1.588-2.513l1.727,1.011
			C100.195,95.502,99.638,96.386,99.053,97.247z M22.694,96.885c-0.576-0.863-1.125-1.752-1.634-2.64l1.736-0.993
			c0.485,0.849,1.011,1.697,1.562,2.523L22.694,96.885z M103.483,89.062l-1.846-0.771c0.38-0.91,0.733-1.846,1.05-2.78l1.895,0.642
			C104.25,87.131,103.881,88.11,103.483,89.062z M18.349,88.662c-0.384-0.949-0.742-1.93-1.066-2.916l1.9-0.624
			c0.31,0.944,0.653,1.883,1.02,2.791L18.349,88.662z M106.171,80.148l-1.963-0.38c0.186-0.962,0.342-1.949,0.464-2.933l1.984,0.246
			C106.529,78.109,106.366,79.142,106.171,80.148z M15.756,79.728c-0.186-1.016-0.339-2.048-0.456-3.07l1.986-0.228
			c0.112,0.978,0.26,1.966,0.437,2.938L15.756,79.728z M104.999,70.908c-0.013-0.985-0.058-1.984-0.136-2.97l-0.013-0.167
			l1.992-0.169l0.016,0.188c0.08,1.02,0.128,2.063,0.141,3.092L104.999,70.908z M17.006,70.495l-2-0.038
			c0.021-1.042,0.076-2.086,0.166-3.103l1.992,0.177C17.078,68.501,17.024,69.499,17.006,70.495z M103.967,61.897
			c-0.214-0.971-0.462-1.939-0.736-2.878l1.92-0.561c0.287,0.982,0.546,1.994,0.77,3.007L103.967,61.897z M18.078,61.664
			l-1.951-0.441c0.229-1.012,0.495-2.024,0.791-3.009l1.916,0.575C18.551,59.729,18.297,60.697,18.078,61.664z M101.182,53.447
			c-0.4-0.896-0.838-1.793-1.302-2.666l1.768-0.938c0.483,0.912,0.941,1.85,1.36,2.788L101.182,53.447z M20.92,53.226l-1.82-0.827
			c0.425-0.935,0.89-1.872,1.382-2.785l1.76,0.949C21.771,51.437,21.326,52.332,20.92,53.226z M96.75,45.742
			c-0.577-0.802-1.188-1.593-1.815-2.351l1.541-1.274c0.655,0.792,1.294,1.619,1.897,2.457L96.75,45.742z M25.404,45.536
			l-1.617-1.176c0.609-0.839,1.253-1.663,1.911-2.45l1.533,1.283C26.603,43.945,25.987,44.733,25.404,45.536z M90.852,39.08
			c-0.724-0.668-1.48-1.321-2.249-1.941l1.254-1.558c0.804,0.647,1.596,1.33,2.353,2.029L90.852,39.08z M31.337,38.902l-1.35-1.477
			c0.763-0.697,1.558-1.375,2.361-2.016l1.246,1.563C32.826,37.587,32.066,38.236,31.337,38.902z M83.738,33.731
			c-0.841-0.509-1.714-0.998-2.594-1.452l0.918-1.777c0.92,0.475,1.832,0.986,2.711,1.518L83.738,33.731z M38.474,33.594
			l-1.025-1.718c0.889-0.53,1.804-1.035,2.718-1.499l0.904,1.783C40.197,32.604,39.323,33.086,38.474,33.594z M75.693,29.918
			c-0.928-0.33-1.882-0.632-2.834-0.899l0.539-1.926c0.996,0.279,1.993,0.595,2.965,0.94L75.693,29.918z M46.535,29.836l-0.656-1.89
			c0.971-0.337,1.969-0.646,2.966-0.918l0.527,1.93C48.418,29.218,47.464,29.514,46.535,29.836z M67.044,27.811
			c-0.977-0.135-1.971-0.237-2.955-0.306l0.139-1.995c1.029,0.071,2.068,0.179,3.09,0.319L67.044,27.811z M55.192,27.786
			l-0.262-1.982c0.808-0.107,1.624-0.193,2.446-0.259l0.643-0.046l0.131,1.996l-0.615,0.044
			C56.748,27.601,55.967,27.684,55.192,27.786z"/>
	</g>
	<g>
		<polygon points="61,72.816 55.293,67.109 56.707,65.695 61,69.988 65.293,65.695 66.707,67.109 		"/>
	</g>
	<g>
		<polygon points="61,17.816 55.293,12.109 56.707,10.695 61,14.988 65.293,10.695 66.707,12.109 		"/>
	</g>
	<g>
		<polygon points="61,21.816 55.293,16.109 56.707,14.695 61,18.988 65.293,14.695 66.707,16.109 		"/>
	</g>
	<g>
		<polygon points="61,13.816 55.293,8.109 56.707,6.695 61,10.988 65.293,6.695 66.707,8.109 		"/>
	</g>
	<g>
		<polygon points="61,9.816 55.293,4.109 56.707,2.695 61,6.988 65.293,2.695 66.707,4.109 		"/>
	</g>
	<g>
		<rect x="60" y="20.402" width="2" height="51"/>
	</g>
	<g>
		
			<rect x="41.25" y="118.18" transform="matrix(0.9942 0.1074 -0.1074 0.9942 14.1915 -3.7876)" style="fill:#C4C4C4;" width="2" height="23.289"/>
	</g>
	<g>
		
			<rect x="68.106" y="128.825" transform="matrix(0.1073 0.9942 -0.9942 0.1073 200.2636 36.5992)" style="fill:#C4C4C4;" width="23.289" height="2"/>
	</g>
	<g>
		<rect x="60" y="121.402" style="fill:#C4C4C4;" width="2" height="10"/>
	</g>
	<g>
		<path style="fill:#C4C4C4;" d="M6,12.402c-3.309,0-6-2.691-6-6s2.691-6,6-6s6,2.691,6,6S9.309,12.402,6,12.402z M6,2.402
			c-2.206,0-4,1.794-4,4s1.794,4,4,4s4-1.794,4-4S8.206,2.402,6,2.402z"/>
	</g>
	<g>
		
			<rect x="115" y="129.331" transform="matrix(0.7071 0.7071 -0.7071 0.7071 130.4263 -42.0732)" style="fill:#C4C4C4;" width="2" height="14.142"/>
	</g>
	<g>
		
			<rect x="108.929" y="135.402" transform="matrix(0.7071 0.7071 -0.7071 0.7071 130.4263 -42.0732)" style="fill:#C4C4C4;" width="14.142" height="2"/>
	</g>
	<g>
		<g>
			<polygon points="120.209,7.609 116.497,2.806 111.693,6.517 110.471,4.934 116.856,0 121.791,6.386 			"/>
		</g>
		<g>
			<path d="M96.677,22.402v-2c10.477,0,19-8.523,19-19h2C117.677,12.981,108.256,22.402,96.677,22.402z"/>
		</g>
	</g>
	<g>
		<circle style="fill:#11BACC;" cx="111" cy="31.402" r="3"/>
	</g>
	<g>
		<circle style="fill:#C4C4C4;" cx="6" cy="131.402" r="5"/>
	</g>
</g>
</svg>
