<?xml version="1.0" encoding="iso-8859-1"?>
<!-- Generator: Adobe Illustrator 17.0.0, SVG Export Plug-In . SVG Version: 6.00 Build 0)  -->
<!DOCTYPE svg PUBLIC "-//W3C//DTD SVG 1.1//EN" "http://www.w3.org/Graphics/SVG/1.1/DTD/svg11.dtd">
<svg version="1.1" id="team" xmlns="http://www.w3.org/2000/svg" xmlns:xlink="http://www.w3.org/1999/xlink" x="0px" y="0px"
	 width="120px" height="140.414px" viewBox="0 0 120 140.414" style="enable-background:new 0 0 120 140.414;" xml:space="preserve"
	>
<g id="team_1_">
	<g>
		<rect x="70" y="3.5" style="fill:#E4E5E7;" width="10" height="35"/>
	</g>
	<g>
		<rect x="80" y="0" style="fill:#C4C4C4;" width="40" height="42"/>
	</g>
	<g>
		<g>
			<path d="M114.13,65h-2V20.5c0-0.827-0.673-1.5-1.5-1.5s-1.5,0.673-1.5,1.5v14.167h-4.5V14.5c0-0.827-0.673-1.5-1.5-1.5
				s-1.5,0.673-1.5,1.5v20.167h-4.5V12.5c0-0.827-0.673-1.5-1.5-1.5s-1.5,0.673-1.5,1.5v22.167h-4.5V17.5c0-0.827-0.673-1.5-1.5-1.5
				s-1.5,0.673-1.5,1.5v31.133l-6.079-9.758l-0.003,0.002l-0.562-0.826c-0.278-0.449-0.753-0.718-1.271-0.718
				c-0.827,0-1.5,0.673-1.5,1.5c0,0.44,0.198,0.767,0.364,0.964l0.085,0.117l8.967,14.394V65h-2V54.88l-8.629-13.852
				c-0.508-0.628-0.787-1.404-0.787-2.195c0-1.93,1.57-3.5,3.5-3.5c0.875,0,1.695,0.322,2.327,0.892l0.118-0.072l0.563,0.821
				l2.907,4.667V17.5c0-1.93,1.57-3.5,3.5-3.5s3.5,1.57,3.5,3.5v15.167h0.5V12.5c0-1.93,1.57-3.5,3.5-3.5s3.5,1.57,3.5,3.5v20.167
				h0.5V14.5c0-1.93,1.57-3.5,3.5-3.5s3.5,1.57,3.5,3.5v18.167h0.5V20.5c0-1.93,1.57-3.5,3.5-3.5s3.5,1.57,3.5,3.5V65z"/>
		</g>
		<g>
			<rect x="81.5" y="65" style="fill:#E4E5E7;" width="35" height="10"/>
		</g>
		<g>
			<rect x="78" y="75" style="fill:#EFD32E;" width="42" height="65"/>
		</g>
	</g>
	<g>
		<g>
			<path d="M94.5,134.545H50v-2h44.5c0.827,0,1.5-0.673,1.5-1.5s-0.673-1.5-1.5-1.5H80.333v-4.5H100.5c0.827,0,1.5-0.673,1.5-1.5
				s-0.673-1.5-1.5-1.5H80.333v-4.5H102.5c0.827,0,1.5-0.673,1.5-1.5s-0.673-1.5-1.5-1.5H80.333v-4.5H97.5
				c0.827,0,1.5-0.673,1.5-1.5s-0.673-1.5-1.5-1.5H66.366l9.764-6.082l-0.002-0.004l0.821-0.56c0.45-0.277,0.719-0.753,0.719-1.271
				c0-0.827-0.673-1.5-1.5-1.5c-0.441,0-0.768,0.198-0.964,0.364l-0.118,0.085l-14.394,8.967H50v-2h10.12l13.852-8.629
				c0.628-0.508,1.405-0.788,2.196-0.788c1.93,0,3.5,1.57,3.5,3.5c0,0.877-0.324,1.699-0.896,2.332l0.07,0.116l-0.816,0.562
				l-4.666,2.907H97.5c1.93,0,3.5,1.57,3.5,3.5s-1.57,3.5-3.5,3.5H82.333v0.5H102.5c1.93,0,3.5,1.57,3.5,3.5s-1.57,3.5-3.5,3.5
				H82.333v0.5H100.5c1.93,0,3.5,1.57,3.5,3.5s-1.57,3.5-3.5,3.5H82.333v0.5H94.5c1.93,0,3.5,1.57,3.5,3.5
				S96.429,134.545,94.5,134.545z"/>
		</g>
		<g>
			<rect x="40" y="101.914" style="fill:#E4E5E7;" width="10" height="35"/>
		</g>
		<g>
			<rect x="0" y="98.414" style="fill:#C4C4C4;" width="40" height="42"/>
		</g>
	</g>
	<g>
		<g>
			<path d="M24.369,131c-1.93,0-3.5-1.57-3.5-3.5v-20.167h-0.5V125.5c0,1.93-1.57,3.5-3.5,3.5s-3.5-1.57-3.5-3.5v-18.167h-0.5V119.5
				c0,1.93-1.57,3.5-3.5,3.5s-3.5-1.57-3.5-3.5V75h2v44.5c0,0.827,0.673,1.5,1.5,1.5s1.5-0.673,1.5-1.5v-14.167h4.5V125.5
				c0,0.827,0.673,1.5,1.5,1.5s1.5-0.673,1.5-1.5v-20.167h4.5V127.5c0,0.827,0.673,1.5,1.5,1.5s1.5-0.673,1.5-1.5v-22.167h4.5V122.5
				c0,0.827,0.673,1.5,1.5,1.5c0.827,0,1.5-0.673,1.5-1.5V91.367l6.079,9.758l0.003-0.002l0.562,0.826
				c0.278,0.449,0.753,0.718,1.271,0.718c0.827,0,1.5-0.673,1.5-1.5c0-0.44-0.198-0.767-0.364-0.964l-0.085-0.117l-8.967-14.394V75
				h2v10.12l8.629,13.852c0.508,0.628,0.787,1.404,0.787,2.195c0,1.93-1.57,3.5-3.5,3.5c-0.875,0-1.695-0.322-2.327-0.892
				l-0.118,0.072l-0.563-0.821l-2.907-4.667v24.14c0,1.93-1.57,3.5-3.5,3.5s-3.5-1.57-3.5-3.5v-15.167h-0.5V127.5
				C27.869,129.43,26.298,131,24.369,131z"/>
		</g>
		<g>
			<rect x="3.5" y="65" style="fill:#E4E5E7;" width="35" height="10"/>
		</g>
		<g>
			<rect x="0" y="0" style="fill:#E2C120;" width="42" height="65"/>
		</g>
	</g>
	<g>
		<g>
			<path d="M43.833,44.786c-1.93,0-3.5-1.57-3.5-3.5c0-0.883,0.328-1.71,0.906-2.344l-0.066-0.114l0.802-0.552l4.666-2.907H22.5
				c-1.93,0-3.5-1.57-3.5-3.5s1.57-3.5,3.5-3.5h15.168v-0.5H17.5c-1.93,0-3.5-1.57-3.5-3.5s1.57-3.5,3.5-3.5h20.168v-0.5H19.5
				c-1.93,0-3.5-1.57-3.5-3.5s1.57-3.5,3.5-3.5h18.168v-0.5H25.5c-1.93,0-3.5-1.57-3.5-3.5s1.57-3.5,3.5-3.5H70v2H25.5
				c-0.827,0-1.5,0.673-1.5,1.5s0.673,1.5,1.5,1.5h14.168v4.5H19.5c-0.827,0-1.5,0.673-1.5,1.5s0.673,1.5,1.5,1.5h20.168v4.5H17.5
				c-0.827,0-1.5,0.673-1.5,1.5s0.673,1.5,1.5,1.5h22.168v4.5H22.5c-0.827,0-1.5,0.673-1.5,1.5s0.673,1.5,1.5,1.5h31.133
				l-9.777,6.091l0.002,0.004l-0.807,0.55c-0.449,0.277-0.718,0.752-0.718,1.271c0,0.827,0.673,1.5,1.5,1.5
				c0.44,0,0.767-0.198,0.963-0.364l0.118-0.085l14.394-8.967H70v2h-10.12l-13.852,8.629C45.4,44.506,44.624,44.786,43.833,44.786z"
				/>
		</g>
	</g>
	<g>
		<circle style="fill:#E4E5E7;" cx="60" cy="70" r="15"/>
	</g>
	<g>
		<polygon points="60,75.664 54.292,69.957 55.707,68.543 60,72.836 69.292,63.543 70.707,64.957 		"/>
	</g>
</g>
</svg>
