<?xml version="1.0" encoding="iso-8859-1"?>
<!-- Generator: Adobe Illustrator 17.0.0, SVG Export Plug-In . SVG Version: 6.00 Build 0)  -->
<!DOCTYPE svg PUBLIC "-//W3C//DTD SVG 1.1//EN" "http://www.w3.org/Graphics/SVG/1.1/DTD/svg11.dtd">
<svg version="1.1" id="tools" xmlns="http://www.w3.org/2000/svg" xmlns:xlink="http://www.w3.org/1999/xlink" x="0px" y="0px"
	 width="122px" height="140px" viewBox="0 0 122 140" style="enable-background:new 0 0 122 140;" xml:space="preserve">
<g id="tools_1_">
	<g>
		<path style="fill:#C4C4C4;" d="M61.255,121.458c-0.82-0.001-1.635-0.02-2.445-0.058l0.093-1.998
			c0.78,0.036,1.564,0.055,2.353,0.056l0.574-0.004l0.03,2L61.255,121.458z M67.936,121.023l-0.26-1.982
			c0.965-0.127,1.938-0.283,2.892-0.468l0.378,1.965C69.953,120.729,68.94,120.893,67.936,121.023z M52.75,120.752
			c-1.003-0.169-2.009-0.369-2.99-0.595l0.449-1.949c0.941,0.217,1.908,0.409,2.873,0.571L52.75,120.752z M76.851,119.029
			l-0.61-1.904c0.926-0.297,1.856-0.627,2.765-0.98l0.726,1.863C78.785,118.377,77.816,118.72,76.851,119.029z M43.912,118.433
			c-0.953-0.346-1.905-0.723-2.829-1.121l0.791-1.836c0.888,0.382,1.803,0.744,2.719,1.076L43.912,118.433z M85.271,115.46
			l-0.944-1.764c0.858-0.459,1.713-0.95,2.543-1.46l1.047,1.703C87.054,114.471,86.164,114.981,85.271,115.46z M35.644,114.567
			c-0.876-0.511-1.746-1.053-2.585-1.61l1.107-1.666c0.807,0.537,1.643,1.058,2.485,1.548L35.644,114.567z M92.912,110.443
			l-1.243-1.566c0.765-0.607,1.519-1.242,2.241-1.889l1.334,1.49C94.492,109.151,93.708,109.812,92.912,110.443z M28.194,109.287
			c-0.77-0.656-1.53-1.345-2.259-2.046l1.386-1.441c0.701,0.674,1.432,1.335,2.171,1.966L28.194,109.287z M99.536,104.151
			l-1.501-1.322c0.642-0.729,1.271-1.487,1.869-2.255l1.577,1.23C100.858,102.604,100.204,103.393,99.536,104.151z M21.799,102.764
			c-0.64-0.78-1.266-1.593-1.862-2.415l1.619-1.174c0.573,0.79,1.175,1.571,1.79,2.321L21.799,102.764z M104.936,96.785
			l-1.712-1.033c0.501-0.83,0.984-1.688,1.437-2.55l1.771,0.93C105.96,95.029,105.457,95.922,104.936,96.785z M16.662,95.207
			c-0.491-0.884-0.963-1.797-1.402-2.712l1.804-0.864c0.421,0.879,0.875,1.755,1.347,2.604L16.662,95.207z M108.934,88.574
			l-1.87-0.71c0.344-0.907,0.667-1.838,0.957-2.768l1.909,0.597C109.627,86.661,109.292,87.63,108.934,88.574z M12.958,86.847
			c-0.325-0.959-0.625-1.94-0.891-2.917l1.93-0.526c0.256,0.938,0.543,1.88,0.856,2.8L12.958,86.847z M111.395,79.774l-1.967-0.362
			c0.176-0.954,0.325-1.928,0.444-2.896l1.985,0.245C111.733,77.769,111.578,78.782,111.395,79.774z M10.818,77.965
			c-0.147-0.998-0.266-2.017-0.354-3.028l1.992-0.173c0.084,0.972,0.199,1.951,0.34,2.909L10.818,77.965z M112.241,70.684l-2-0.015
			l0-0.198c0-0.971-0.029-1.956-0.086-2.929l1.996-0.117c0.06,1.011,0.09,2.036,0.09,3.046L112.241,70.684z M12.295,68.909
			l-1.999-0.062c0.031-1.009,0.094-2.033,0.185-3.042l1.992,0.181C12.386,66.955,12.326,67.939,12.295,68.909z M109.463,61.729
			c-0.171-0.952-0.375-1.917-0.605-2.865l1.943-0.472c0.24,0.988,0.452,1.991,0.63,2.982L109.463,61.729z M13.35,60.196
			l-1.956-0.419c0.213-0.994,0.457-1.99,0.726-2.96l1.928,0.534C13.789,58.284,13.554,59.241,13.35,60.196z M107.134,53.264
			c-0.343-0.912-0.717-1.825-1.113-2.714l1.827-0.814c0.412,0.925,0.802,1.876,1.158,2.826L107.134,53.264z M15.949,51.813
			l-1.849-0.763c0.386-0.936,0.805-1.871,1.244-2.778l1.8,0.871C16.723,50.016,16.32,50.915,15.949,51.813z M103.319,45.352
			c-0.5-0.836-1.032-1.667-1.58-2.469l1.651-1.128c0.57,0.835,1.124,1.7,1.645,2.571L103.319,45.352z M20.008,44.04l-1.683-1.081
			c0.548-0.853,1.127-1.698,1.722-2.513l1.615,1.179C21.091,42.408,20.534,43.22,20.008,44.04z M98.153,38.251
			c-0.641-0.733-1.312-1.456-1.993-2.148l1.425-1.403c0.709,0.72,1.407,1.472,2.074,2.235L98.153,38.251z M25.389,37.108
			l-1.464-1.362c0.689-0.741,1.41-1.471,2.142-2.169l1.381,1.447C26.744,35.695,26.052,36.396,25.389,37.108z M91.811,32.182
			c-0.761-0.608-1.549-1.2-2.341-1.759l1.153-1.634c0.824,0.582,1.644,1.197,2.436,1.83L91.811,32.182z M31.919,31.239l-1.198-1.602
			c0.813-0.608,1.652-1.199,2.495-1.754l1.102,1.669C33.507,30.087,32.701,30.654,31.919,31.239z M84.494,27.339
			c-0.857-0.462-1.736-0.904-2.614-1.312l0.843-1.813c0.914,0.425,1.83,0.884,2.722,1.366L84.494,27.339z M39.391,26.625
			l-0.894-1.789c0.909-0.454,1.841-0.885,2.771-1.282l0.785,1.84C41.16,25.774,40.265,26.188,39.391,26.625z M76.432,23.882
			c-0.922-0.3-1.868-0.577-2.812-0.822l0.504-1.936c0.981,0.255,1.966,0.543,2.926,0.855L76.432,23.882z M47.57,23.423l-0.558-1.921
			c0.97-0.282,1.963-0.538,2.952-0.762l0.441,1.951C49.456,22.907,48.501,23.153,47.57,23.423z M67.875,21.93
			c-0.96-0.13-1.94-0.233-2.913-0.306l0.149-1.994c1.012,0.076,2.032,0.183,3.031,0.317L67.875,21.93z M56.184,21.745l-0.204-1.989
			c1.005-0.104,2.028-0.178,3.039-0.222l0.087,1.998C58.134,21.574,57.151,21.646,56.184,21.745z"/>
	</g>
	<g>
		<g>
			<polygon style="fill:#C4C4C4;" points="44.03,96.255 26.92,113.364 26.92,121.921 18.366,130.474 9.811,130.474 18.366,121.921 
				14.088,117.643 9.811,113.364 1.256,121.921 1.256,113.364 9.811,104.812 18.366,104.812 35.475,87.701 78.482,44.692 
				95.592,27.583 95.592,19.027 104.147,10.473 112.702,10.473 104.147,19.027 108.424,23.305 112.702,27.583 121.256,19.027 
				121.256,27.583 112.702,36.136 104.147,36.136 87.037,53.245 			"/>
		</g>
		<g>
			<path d="M25.327,109.822c-0.914,0-1.772-0.355-2.418-1.002s-1.002-1.505-1.002-2.419c0-0.914,0.356-1.772,1.003-2.418
				l71.859-71.858c1.294-1.292,3.545-1.29,4.836,0c1.333,1.334,1.333,3.504,0,4.837l-71.86,71.858
				C27.099,109.467,26.24,109.822,25.327,109.822z M97.186,33.124c-0.379,0-0.736,0.147-1.004,0.416l-71.859,71.859
				c-0.269,0.269-0.417,0.624-0.417,1.003c0,0.38,0.148,0.736,0.417,1.005c0.537,0.536,1.471,0.538,2.007,0l71.86-71.858
				c0.553-0.554,0.553-1.455,0-2.009C97.922,33.271,97.565,33.124,97.186,33.124z"/>
		</g>
	</g>
	<g>
		<rect x="96" y="60.833" width="25" height="2"/>
	</g>
	<g>
		<rect x="96" y="65.833" width="25" height="2"/>
	</g>
	<g>
		<rect x="96" y="70.833" width="25" height="2"/>
	</g>
	<g>
		<rect x="96" y="75.833" width="25" height="2"/>
	</g>
	<g>
		<rect x="21" y="59" width="25" height="2"/>
	</g>
	<g>
		<rect x="21" y="64" width="25" height="2"/>
	</g>
	<g>
		<rect x="21" y="69" width="10" height="2"/>
	</g>
	<g>
		<rect x="1" y="57.58" style="fill:#C4C4C4;" width="5" height="5"/>
	</g>
	<g>
		<rect x="1" y="67.58" style="fill:#11BACC;" width="5" height="5"/>
	</g>
	<g>
		<rect x="1" y="77.419" style="fill:#1FCCE8;" width="5" height="5"/>
	</g>
	<g>
		<g>
			<polygon style="fill:#1FCCE8;" points="5.417,19.007 1,9.29 10.716,13.707 			"/>
		</g>
		<g>
			
				<rect x="54.388" y="4.058" transform="matrix(0.7071 -0.7071 0.7071 0.7071 -31.4954 64.314)" style="fill:#1FCCE8;" width="14.99" height="132.232"/>
		</g>
		<g>
			<path d="M113.934,114.453l4.238,4.238l-7.771,7.771l-4.238-4.238L113.934,114.453 M113.934,111.625l-10.599,10.6l7.066,7.066
				l10.599-10.6L113.934,111.625L113.934,111.625z"/>
		</g>
		<g>
			<path d="M5.028,13.318l11.949,5.432l-6.518,6.518L5.028,13.318 M1,9.29l8.833,19.432l10.599-10.599L1,9.29L1,9.29z"/>
		</g>
		<g>
			
				<rect x="21.199" y="22.994" transform="matrix(0.7071 0.7071 -0.7071 0.7071 28.0609 -6.7666)" style="fill:#11BACC;" width="2" height="14.99"/>
		</g>
		<g>
			
				<rect x="24.732" y="26.527" transform="matrix(0.7071 0.7071 -0.7071 0.7071 31.5937 -8.2301)" style="fill:#11BACC;" width="2" height="14.989"/>
		</g>
		<g>
			
				<rect x="28.265" y="30.06" transform="matrix(0.7071 0.7071 -0.7071 0.7071 35.1269 -9.6936)" style="fill:#11BACC;" width="2" height="14.989"/>
		</g>
		<g>
			
				<rect x="31.798" y="33.594" transform="matrix(0.7071 0.7071 -0.7071 0.7071 38.6601 -11.1569)" style="fill:#11BACC;" width="2" height="14.989"/>
		</g>
		<g>
			
				<rect x="35.167" y="36.963" transform="matrix(0.7071 0.7071 -0.7071 0.7071 42.0294 -12.5528)" style="fill:#11BACC;" width="2" height="14.989"/>
		</g>
		<g>
			
				<rect x="38.7" y="40.496" transform="matrix(0.7071 0.7071 -0.7071 0.7071 45.5624 -14.0159)" style="fill:#11BACC;" width="2" height="14.989"/>
		</g>
		<g>
			
				<rect x="42.233" y="44.029" transform="matrix(0.7071 0.7071 -0.7071 0.7071 49.0953 -15.4796)" style="fill:#11BACC;" width="2" height="14.99"/>
		</g>
		<g>
			
				<rect x="45.766" y="47.563" transform="matrix(0.7071 0.7071 -0.7071 0.7071 52.6287 -16.9428)" style="fill:#11BACC;" width="2" height="14.989"/>
		</g>
	</g>
	<g>
		<circle style="fill:#11BACC;" cx="61" cy="5" r="5"/>
	</g>
	<g>
		<circle style="fill:#E4E5E7;" cx="61" cy="135" r="5"/>
	</g>
	<g>
		<circle style="fill:#1FCCE8;" cx="61" cy="107.5" r="2.5"/>
	</g>
	<g>
		<circle style="fill:#11BACC;" cx="61" cy="32.124" r="2.5"/>
	</g>
	<g>
		<path d="M3.5,46C1.57,46,0,44.43,0,42.5S1.57,39,3.5,39S7,40.57,7,42.5S5.43,46,3.5,46z M3.5,41C2.673,41,2,41.673,2,42.5
			S2.673,44,3.5,44S5,43.327,5,42.5S4.327,41,3.5,41z"/>
	</g>
	<g>
		<path d="M118,97c-2.206,0-4-1.794-4-4c0-2.206,1.794-4,4-4s4,1.794,4,4C122,95.206,120.206,97,118,97z M118,91
			c-1.103,0-2,0.897-2,2c0,1.103,0.897,2,2,2s2-0.897,2-2C120,91.897,119.103,91,118,91z"/>
	</g>
</g>
</svg>
