<?xml version="1.0" encoding="iso-8859-1"?>
<!-- Generator: Adobe Illustrator 17.0.0, SVG Export Plug-In . SVG Version: 6.00 Build 0)  -->
<!DOCTYPE svg PUBLIC "-//W3C//DTD SVG 1.1//EN" "http://www.w3.org/Graphics/SVG/1.1/DTD/svg11.dtd">
<svg version="1.1" id="web_coding" xmlns="http://www.w3.org/2000/svg" xmlns:xlink="http://www.w3.org/1999/xlink" x="0px" y="0px"
	 width="122px" height="142px" viewBox="0 0 122 142" style="enable-background:new 0 0 122 142;" xml:space="preserve">
<g id="web_coding_1_">
	<g>
		<rect x="11" y="6.172" style="fill:#27BA90;" width="40" height="4.655"/>
	</g>
	<g>
		<g>
			<path style="fill:#C4C4C4;" d="M47.617,131.707l-1.414-1.414c8.383-8.383,8.383-22.023,0-30.406s-22.023-8.383-30.406,0
				s-8.383,22.023,0,30.406l-1.414,1.414c-9.163-9.163-9.163-24.071,0-33.234c9.162-9.163,24.072-9.163,33.234,0
				C56.78,107.636,56.78,122.544,47.617,131.707z"/>
		</g>
		<g>
			<rect x="30" y="88" style="fill:#C4C4C4;" width="2" height="4.59"/>
		</g>
		<g>
			<rect x="3.705" y="114.375" style="fill:#C4C4C4;" width="4.59" height="2"/>
		</g>
		<g>
			<rect x="53.705" y="114.375" style="fill:#C4C4C4;" width="4.59" height="2"/>
		</g>
		<g>
			
				<rect x="11.027" y="96.557" transform="matrix(0.707 0.7072 -0.7072 0.707 72.8966 19.1627)" style="fill:#C4C4C4;" width="4.59" height="2"/>
		</g>
		<g>
			
				<rect x="47.678" y="95.402" transform="matrix(0.7071 0.7071 -0.7071 0.7071 83.3394 -5.8056)" style="fill:#C4C4C4;" width="2" height="4.59"/>
		</g>
	</g>
	<g>
		<path style="fill:#C4C4C4;" d="M122,142H0V0h122V142z M2,140h118V2H2V140z"/>
	</g>
	<g>
		<rect x="1" y="15" style="fill:#C4C4C4;" width="120" height="2"/>
	</g>
	<g>
		<path d="M112,11.828H10V5.172h102V11.828z M12,9.828h98V7.172H12V9.828z"/>
	</g>
	<g>
		<rect x="1" y="130" style="fill:#C4C4C4;" width="120" height="2"/>
	</g>
	<g>
		<rect x="11" y="25" width="10" height="2"/>
	</g>
	<g>
		<rect x="16" y="30" width="10" height="2"/>
	</g>
	<g>
		<rect x="31" y="30" width="5" height="2"/>
	</g>
	<g>
		<rect x="41" y="30" width="10" height="2"/>
	</g>
	<g>
		<rect x="56" y="30" width="5" height="2"/>
	</g>
	<g>
		<rect x="66" y="30" width="10" height="2"/>
	</g>
	<g>
		<rect x="16" y="35" width="15" height="2"/>
	</g>
	<g>
		<rect x="36" y="35" width="10" height="2"/>
	</g>
	<g>
		<rect x="51" y="35" width="10" height="2"/>
	</g>
	<g>
		<rect x="66" y="35" width="5" height="2"/>
	</g>
	<g>
		<rect x="76" y="35" width="10" height="2"/>
	</g>
	<g>
		<rect x="36" y="75" width="10" height="2"/>
	</g>
	<g>
		<rect x="51" y="75" width="10" height="2"/>
	</g>
	<g>
		<rect x="66" y="75" width="5" height="2"/>
	</g>
	<g>
		<rect x="76" y="75" width="10" height="2"/>
	</g>
	<g>
		<rect x="11" y="45" width="15" height="2"/>
	</g>
	<g>
		<rect x="21" y="50" width="20" height="2"/>
	</g>
	<g>
		<rect x="46" y="50" width="5" height="2"/>
	</g>
	<g>
		<rect x="56" y="50" width="10" height="2"/>
	</g>
	<g>
		<rect x="71" y="50" width="5" height="2"/>
	</g>
	<g>
		<rect x="91" y="55" width="5" height="2"/>
	</g>
	<g>
		<rect x="101" y="55" width="10" height="2"/>
	</g>
	<g>
		<rect x="21" y="55" width="5" height="2"/>
	</g>
	<g>
		<rect x="31" y="55" width="10" height="2"/>
	</g>
	<g>
		<rect x="46" y="55" width="10" height="2"/>
	</g>
	<g>
		<rect x="61" y="55" width="10" height="2"/>
	</g>
	<g>
		<rect x="76" y="55" width="10" height="2"/>
	</g>
	<g>
		<rect x="16" y="65" width="15" height="2"/>
	</g>
	<g>
		<rect x="21" y="70" width="5" height="2"/>
	</g>
	<g>
		<rect x="31" y="70" width="10" height="2"/>
	</g>
	<g>
		<rect x="46.668" y="70" width="9.332" height="2"/>
	</g>
	<g>
		<rect x="61" y="70" width="5" height="2"/>
	</g>
	<g>
		<circle style="fill:#34C9A2;" cx="82.875" cy="109.125" r="26.875"/>
	</g>
	<g>
		<circle style="fill:#27BA90;" cx="30.58" cy="114.879" r="6.122"/>
	</g>
	<g>
		<g>
			<polygon points="76.803,115.645 63.764,109.125 76.803,102.605 77.697,104.395 68.236,109.125 77.697,113.855 			"/>
		</g>
		<g>
			<polygon points="88.947,115.645 88.053,113.855 97.514,109.125 88.053,104.395 88.947,102.605 101.986,109.125 			"/>
		</g>
		<g>
			<rect x="81.876" y="100.231" transform="matrix(0.9771 0.213 -0.213 0.9771 25.145 -15.1481)" width="1.999" height="17.787"/>
		</g>
	</g>
</g>
</svg>
