<?xml version="1.0" encoding="iso-8859-1"?>
<!-- Generator: Adobe Illustrator 17.0.0, SVG Export Plug-In . SVG Version: 6.00 Build 0)  -->
<!DOCTYPE svg PUBLIC "-//W3C//DTD SVG 1.1//EN" "http://www.w3.org/Graphics/SVG/1.1/DTD/svg11.dtd">
<svg version="1.1" id="webpage" xmlns="http://www.w3.org/2000/svg" xmlns:xlink="http://www.w3.org/1999/xlink" x="0px" y="0px"
	 width="122.536px" height="132.485px" viewBox="0 0 122.536 132.485" style="enable-background:new 0 0 122.536 132.485;"
	 xml:space="preserve">
<g id="webpage_1_">
	<g>
		<rect x="100.994" y="83.064" style="fill:#C4C4C4;" width="17.012" height="2"/>
	</g>
	<g>
		<rect x="100.994" y="88.064" style="fill:#C4C4C4;" width="17.012" height="2"/>
	</g>
	<g>
		<rect x="100.994" y="93.064" style="fill:#C4C4C4;" width="7.506" height="2"/>
	</g>
	<g>
		<path style="fill:#E4E5E7;" d="M91,132.485H11c-10.874,0-11-10.89-11-11v-121h82v121c0,8.859,8.635,8.998,9.002,9L91,132.485z
			 M2,2.485v119c0.001,0.365,0.141,9,9,9h73.454c-2.361-1.53-4.454-4.231-4.454-9v-119H2z"/>
	</g>
	<g>
		<rect x="11" y="10.485" style="fill:#11BACC;" width="10" height="2"/>
	</g>
	<g>
		<rect x="66" y="10.485" width="5" height="2"/>
	</g>
	<g>
		<rect x="56" y="10.485" width="5" height="2"/>
	</g>
	<g>
		<rect x="46" y="10.485" width="5" height="2"/>
	</g>
	<g>
		<rect x="36" y="10.485" width="5" height="2"/>
	</g>
	<g>
		<rect x="11" y="65.227" width="20" height="2"/>
	</g>
	<g>
		<rect x="11" y="70.485" width="20" height="2"/>
	</g>
	<g>
		<rect x="11" y="75.485" width="20" height="2"/>
	</g>
	<g>
		<rect x="51" y="87.238" width="20" height="2"/>
	</g>
	<g>
		<rect x="51" y="92.497" width="20" height="2"/>
	</g>
	<g>
		<rect x="11" y="16.485" style="fill:#11BACC;" width="60" height="20"/>
	</g>
	<g>
		<path style="fill:#C4C4C4;" d="M21,47.485c-1.93,0-3.5-1.57-3.5-3.5s1.57-3.5,3.5-3.5s3.5,1.57,3.5,3.5S22.93,47.485,21,47.485z
			 M21,42.485c-0.827,0-1.5,0.673-1.5,1.5s0.673,1.5,1.5,1.5s1.5-0.673,1.5-1.5S21.827,42.485,21,42.485z"/>
	</g>
	<g>
		<path style="fill:#C4C4C4;" d="M61,47.485c-1.93,0-3.5-1.57-3.5-3.5s1.57-3.5,3.5-3.5s3.5,1.57,3.5,3.5S62.93,47.485,61,47.485z
			 M61,42.485c-0.827,0-1.5,0.673-1.5,1.5s0.673,1.5,1.5,1.5s1.5-0.673,1.5-1.5S61.827,42.485,61,42.485z"/>
	</g>
	<g>
		<path style="fill:#C4C4C4;" d="M47.5,47.485c-1.93,0-3.5-1.57-3.5-3.5s1.57-3.5,3.5-3.5s3.5,1.57,3.5,3.5
			S49.43,47.485,47.5,47.485z M47.5,42.485c-0.827,0-1.5,0.673-1.5,1.5s0.673,1.5,1.5,1.5s1.5-0.673,1.5-1.5
			S48.327,42.485,47.5,42.485z"/>
	</g>
	<g>
		<path style="fill:#C4C4C4;" d="M34.5,47.485c-1.93,0-3.5-1.57-3.5-3.5s1.57-3.5,3.5-3.5s3.5,1.57,3.5,3.5
			S36.43,47.485,34.5,47.485z M34.5,42.485c-0.827,0-1.5,0.673-1.5,1.5s0.673,1.5,1.5,1.5s1.5-0.673,1.5-1.5
			S35.327,42.485,34.5,42.485z"/>
	</g>
	<g>
		<rect x="11" y="51.485" style="fill:#C4C4C4;" width="10" height="6"/>
	</g>
	<g>
		<rect x="61" y="51.485" style="fill:#C4C4C4;" width="10" height="6"/>
	</g>
	<g>
		<rect x="27.5" y="51.485" style="fill:#C4C4C4;" width="10" height="6"/>
	</g>
	<g>
		<rect x="45" y="51.485" style="fill:#C4C4C4;" width="10" height="6"/>
	</g>
	<g>
		<rect x="41" y="65.485" style="fill:#E4E5E7;" width="30" height="11.667"/>
	</g>
	<g>
		<rect x="11" y="85.651" style="fill:#E4E5E7;" width="30" height="12.846"/>
	</g>
	<g>
		<path style="fill:#C4C4C4;" d="M11,131.485c0,0,10,0,10-10s0-10,0-10s0-10,10-10s80,0,80,0s-10,0-10,10s0,10,0,10s0,10-10,10
			S11,131.485,11,131.485z"/>
	</g>
	<g>
		<path style="fill:#E4E5E7;" d="M31,101.485c0,0,10,0,10,10h80c0,0,0-10-10-10S31,101.485,31,101.485z"/>
	</g>
	<g>
		<polygon points="122,77.485 100,77.485 100,71.485 102,71.485 102,75.485 120,75.485 120,71.485 122,71.485 		"/>
	</g>
	<g>
		<g>
			<polygon points="111,73.833 106.758,69.591 108.172,68.177 111,71.005 113.828,68.177 115.242,69.591 			"/>
		</g>
		<g>
			<rect x="110" y="59.485" width="2" height="12.934"/>
		</g>
	</g>
	<g>
		<g>
			<path d="M114.051,12.728l-4.242-4.242L118.293,0l4.243,4.243L114.051,12.728z M112.637,8.485l1.414,1.414l5.657-5.656
				l-1.415-1.415L112.637,8.485z"/>
		</g>
		<g>
			<polygon points="108.226,14.311 110.274,8.169 112.171,8.802 111.389,11.146 113.734,10.365 114.367,12.262 			"/>
		</g>
	</g>
	<g>
		<polygon points="117,22.485 100,22.485 100,5.485 106,5.485 106,7.485 102,7.485 102,20.485 115,20.485 115,16.485 117,16.485 		
			"/>
	</g>
	<g>
		<rect x="101" y="31.485" style="fill:#1FCCE8;" width="20" height="20"/>
	</g>
	<g>
		<g>
			<rect x="110" y="37.485" width="8.5" height="2"/>
		</g>
		<g>
			<rect x="113.25" y="38.485" width="2" height="10"/>
		</g>
	</g>
	<g>
		<rect x="76" y="35.485" width="29" height="2"/>
	</g>
	<g>
		<rect x="76" y="40.485" width="29" height="2"/>
	</g>
	<g>
		<rect x="76" y="45.485" width="15" height="2"/>
	</g>
	<g>
		<path style="fill:#C4C4C4;" d="M94.334,64.819H88v-6.334h6.334V64.819z M90,62.819h2.334v-2.334H90V62.819z"/>
	</g>
	<g>
		<path style="fill:#11BACC;" d="M94.334,76.819H88v-6.334h6.334V76.819z M90,74.819h2.334v-2.334H90V74.819z"/>
	</g>
	<g>
		<path d="M94.334,88.967H88v-6.334h6.334V88.967z M90,86.967h2.334v-2.334H90V86.967z"/>
	</g>
	<g>
		<path style="fill:#11BACC;" d="M94.334,17.819H88v-6.334h6.334V17.819z M90,15.819h2.334v-2.334H90V15.819z"/>
	</g>
	<g>
		<path d="M94.334,29.967H88v-6.334h6.334V29.967z M90,27.967h2.334v-2.334H90V27.967z"/>
	</g>
</g>
</svg>
