<?xml version="1.0" encoding="iso-8859-1"?>
<!-- Generator: Adobe Illustrator 17.0.0, SVG Export Plug-In . SVG Version: 6.00 Build 0)  -->
<!DOCTYPE svg PUBLIC "-//W3C//DTD SVG 1.1//EN" "http://www.w3.org/Graphics/SVG/1.1/DTD/svg11.dtd">
<svg version="1.1" id="website_blueprint" xmlns="http://www.w3.org/2000/svg" xmlns:xlink="http://www.w3.org/1999/xlink" x="0px"
	 y="0px" width="120px" height="140px" viewBox="0 0 120 140" style="enable-background:new 0 0 120 140;" xml:space="preserve">
<g id="website_blueprint_1_">
	<g>
		<g>
			<rect x="100" style="fill:#E4E5E7;" width="20" height="140"/>
		</g>
		<g>
			<rect x="100" y="9" width="10.125" height="2"/>
		</g>
		<g>
			<rect x="100" y="34" width="10.125" height="2"/>
		</g>
		<g>
			<rect x="100" y="14" width="5.062" height="2"/>
		</g>
		<g>
			<rect x="100" y="24" width="5.062" height="2"/>
		</g>
		<g>
			<rect x="100" y="19" width="5.062" height="2"/>
		</g>
		<g>
			<rect x="100" y="29" width="5.062" height="2"/>
		</g>
		<g>
			<rect x="100" y="39" width="5.062" height="2"/>
		</g>
		<g>
			<rect x="100" y="49" width="5.062" height="2"/>
		</g>
		<g>
			<rect x="100" y="44" width="5.062" height="2"/>
		</g>
		<g>
			<rect x="100" y="54" width="5.062" height="2"/>
		</g>
		<g>
			<rect x="100" y="59" width="10.125" height="2"/>
		</g>
		<g>
			<rect x="100" y="84" width="10.125" height="2"/>
		</g>
		<g>
			<rect x="100" y="64" width="5.062" height="2"/>
		</g>
		<g>
			<rect x="100" y="74" width="5.062" height="2"/>
		</g>
		<g>
			<rect x="100" y="69" width="5.062" height="2"/>
		</g>
		<g>
			<rect x="100" y="79" width="5.062" height="2"/>
		</g>
		<g>
			<rect x="100" y="109" width="10.125" height="2"/>
		</g>
		<g>
			<rect x="100" y="114" width="5.062" height="2"/>
		</g>
		<g>
			<rect x="100" y="119" width="5.062" height="2"/>
		</g>
		<g>
			<rect x="100" y="89" width="5.062" height="2"/>
		</g>
		<g>
			<rect x="100" y="99" width="5.062" height="2"/>
		</g>
		<g>
			<rect x="100" y="94" width="5.062" height="2"/>
		</g>
		<g>
			<rect x="100" y="104" width="5.062" height="2"/>
		</g>
		<g>
			<circle style="fill:#FFFFFF;" cx="110" cy="130" r="2.5"/>
		</g>
	</g>
	<g>
		<g>
			<path style="fill:#C4C4C4;" d="M105,130h-5v8.657C102.988,136.929,105,133.704,105,130z"/>
		</g>
	</g>
	<g>
		<path style="fill:#27BA90;" d="M20,130h72V0H0v130c0,5.527,4.473,10,10,10C15.527,140,20,135.527,20,130z"/>
	</g>
	<g>
		<path style="fill:#34C9A2;" d="M92,130H20c0,5.527-4.473,10-10,10h82c5.527,0,10-4.473,10-10H92z"/>
	</g>
	<g>
		<path style="fill:#FFFFFF;" d="M83,51H9V19h74V51z M11,49h70V21H11V49z"/>
	</g>
	<g>
		<rect x="9" y="116.333" style="fill:#FFFFFF;" width="74" height="2"/>
	</g>
	<g>
		<path style="fill:#FFFFFF;" d="M57,111H9V94h48V111z M11,109h44V96H11V109z"/>
	</g>
	<g>
		<rect x="8.375" y="14" style="fill:#FFFFFF;" width="11.625" height="2"/>
	</g>
	<g>
		<rect x="9" y="122.167" style="fill:#FFFFFF;" width="11" height="2"/>
	</g>
	<g>
		<rect x="72" y="122.167" style="fill:#FFFFFF;" width="11" height="2"/>
	</g>
	<g>
		<rect x="75.75" y="14" style="fill:#FFFFFF;" width="6.25" height="2"/>
	</g>
	<g>
		<rect x="66.5" y="14" style="fill:#FFFFFF;" width="6.25" height="2"/>
	</g>
	<g>
		<rect x="57" y="14" style="fill:#FFFFFF;" width="6.25" height="2"/>
	</g>
	<g>
		<rect x="47.75" y="14" style="fill:#FFFFFF;" width="6.25" height="2"/>
	</g>
	<g>
		<rect x="38.25" y="14" style="fill:#FFFFFF;" width="6.25" height="2"/>
	</g>
	<g>
		<path style="fill:#FFFFFF;" d="M31,71H9V59h22V71z M11,69h18v-8H11V69z"/>
	</g>
	<g>
		<path style="fill:#FFFFFF;" d="M83,71H61V59h22V71z M63,69h18v-8H63V69z"/>
	</g>
	<g>
		<path style="fill:#FFFFFF;" d="M57,71H35V59h22V71z M37,69h18v-8H37V69z"/>
	</g>
	<g>
		<rect x="9" y="74" style="fill:#FFFFFF;" width="22" height="2"/>
	</g>
	<g>
		<rect x="61" y="74" style="fill:#FFFFFF;" width="22" height="2"/>
	</g>
	<g>
		<rect x="35" y="74" style="fill:#FFFFFF;" width="22" height="2"/>
	</g>
	<g>
		<rect x="9" y="78" style="fill:#FFFFFF;" width="22" height="2"/>
	</g>
	<g>
		<rect x="61" y="78" style="fill:#FFFFFF;" width="22" height="2"/>
	</g>
	<g>
		<rect x="35" y="78" style="fill:#FFFFFF;" width="22" height="2"/>
	</g>
	<g>
		<rect x="9" y="82" style="fill:#FFFFFF;" width="22" height="2"/>
	</g>
	<g>
		<rect x="61" y="82" style="fill:#FFFFFF;" width="22" height="2"/>
	</g>
	<g>
		<rect x="61" y="94" style="fill:#FFFFFF;" width="22" height="2"/>
	</g>
	<g>
		<rect x="61" y="98" style="fill:#FFFFFF;" width="22" height="2"/>
	</g>
	<g>
		<rect x="61" y="102" style="fill:#FFFFFF;" width="22" height="2"/>
	</g>
	<g>
		<rect x="61" y="106" style="fill:#FFFFFF;" width="14" height="2"/>
	</g>
	<g>
		<rect x="35" y="82" style="fill:#FFFFFF;" width="22" height="2"/>
	</g>
	<g>
		<rect x="9" y="86" style="fill:#FFFFFF;" width="11" height="2"/>
	</g>
	<g>
		<rect x="61" y="86" style="fill:#FFFFFF;" width="11" height="2"/>
	</g>
	<g>
		<rect x="35" y="86" style="fill:#FFFFFF;" width="11" height="2"/>
	</g>
</g>
</svg>
