<?xml version="1.0" encoding="iso-8859-1"?>
<!-- Generator: Adobe Illustrator 17.0.0, SVG Export Plug-In . SVG Version: 6.00 Build 0)  -->
<!DOCTYPE svg PUBLIC "-//W3C//DTD SVG 1.1//EN" "http://www.w3.org/Graphics/SVG/1.1/DTD/svg11.dtd">
<svg version="1.1" id="workflow" xmlns="http://www.w3.org/2000/svg" xmlns:xlink="http://www.w3.org/1999/xlink" x="0px" y="0px"
	 width="119.917px" height="142px" viewBox="0 0 119.917 142" style="enable-background:new 0 0 119.917 142;" xml:space="preserve"
	>
<g id="workflow_1_">
	<g>
		<rect x="89" y="98.875" width="2" height="6.375"/>
	</g>
	<g>
		<rect x="88.999" y="84.839" width="2" height="8.286"/>
	</g>
	<g>
		<rect x="29" y="98.875" width="2" height="6.375"/>
	</g>
	<g>
		<rect x="28.999" y="84.839" width="2" height="8.286"/>
	</g>
	<g>
		<rect x="59" y="56" width="2" height="15"/>
	</g>
	<g>
		<rect x="59" y="86" width="2" height="15"/>
	</g>
	<g>
		<rect x="35" y="35" width="50" height="2"/>
	</g>
	<g>
		<rect x="35" y="76.465" width="50" height="2"/>
	</g>
	<g>
		<path style="fill:#C4C4C4;" d="M111,142H9V0h102V142z M11,140h98V2H11V140z"/>
	</g>
	<g>
		<path d="M91,22H29V10h62V22z M31,20h58v-8H31V20z"/>
	</g>
	<g>
		<rect x="25" y="31" style="fill:#E2C120;" width="10" height="10"/>
	</g>
	<g>
		<rect x="45" y="31" style="fill:#E2C120;" width="10" height="10"/>
	</g>
	<g>
		
			<rect x="50.429" y="67.893" transform="matrix(0.7071 0.7071 -0.7071 0.7071 72.3491 -19.7376)" style="fill:#EFD32E;" width="19.142" height="19.142"/>
	</g>
	<g>
		
			<rect x="22.929" y="70.394" transform="matrix(0.7071 0.7071 -0.7071 0.7071 63.5625 1.4765)" style="fill:#EFD32E;" width="14.141" height="14.141"/>
	</g>
	<g>
		
			<rect x="82.929" y="70.394" transform="matrix(0.7071 0.7071 -0.7071 0.7071 81.1363 -40.9502)" style="fill:#EFD32E;" width="14.141" height="14.141"/>
	</g>
	<g>
		<rect x="65" y="31" style="fill:#E2C120;" width="10" height="10"/>
	</g>
	<g>
		<rect x="85" y="31" style="fill:#E2C120;" width="10" height="10"/>
	</g>
	<g>
		<rect x="59" y="21" width="2" height="15"/>
	</g>
	<g>
		<rect x="49" y="41" width="2" height="5"/>
	</g>
	<g>
		<rect x="69" y="41" width="2" height="5"/>
	</g>
	<g>
		<rect x="40" y="46" style="fill:#C4C4C4;" width="40" height="10"/>
	</g>
	<g>
		<rect x="40" y="101" style="fill:#C4C4C4;" width="40" height="15"/>
	</g>
	<g>
		<rect x="44.333" y="102.751" width="31.334" height="2"/>
	</g>
	<g>
		<rect x="44.333" y="107.25" width="31.334" height="2"/>
	</g>
	<g>
		<rect x="44.333" y="111.749" width="31.334" height="2"/>
	</g>
	<g>
		<path style="fill:#EFD32E;" d="M30,99.875c-2.137,0-3.875-1.738-3.875-3.875s1.738-3.875,3.875-3.875s3.875,1.738,3.875,3.875
			S32.137,99.875,30,99.875z M30,94.125c-1.034,0-1.875,0.841-1.875,1.875s0.841,1.875,1.875,1.875s1.875-0.841,1.875-1.875
			S31.034,94.125,30,94.125z"/>
	</g>
	<g>
		<path style="fill:#EFD32E;" d="M30,112c-2.137,0-3.875-1.738-3.875-3.875s1.738-3.875,3.875-3.875s3.875,1.738,3.875,3.875
			S32.137,112,30,112z M30,106.25c-1.034,0-1.875,0.841-1.875,1.875S28.966,110,30,110s1.875-0.841,1.875-1.875
			S31.034,106.25,30,106.25z"/>
	</g>
	<g>
		<path style="fill:#EFD32E;" d="M90,99.875c-2.137,0-3.875-1.738-3.875-3.875s1.738-3.875,3.875-3.875s3.875,1.738,3.875,3.875
			S92.137,99.875,90,99.875z M90,94.125c-1.034,0-1.875,0.841-1.875,1.875s0.841,1.875,1.875,1.875s1.875-0.841,1.875-1.875
			S91.034,94.125,90,94.125z"/>
	</g>
	<g>
		<path style="fill:#EFD32E;" d="M90,112c-2.137,0-3.875-1.738-3.875-3.875s1.738-3.875,3.875-3.875s3.875,1.738,3.875,3.875
			S92.137,112,90,112z M90,106.25c-1.034,0-1.875,0.841-1.875,1.875S88.966,110,90,110s1.875-0.841,1.875-1.875
			S91.034,106.25,90,106.25z"/>
	</g>
	<g>
		<rect x="30" y="125" width="20" height="2"/>
	</g>
	<g>
		<rect x="30" y="130" width="20" height="2"/>
	</g>
	<g>
		<rect x="80" y="125" style="fill:#C4C4C4;" width="10" height="2"/>
	</g>
	<g>
		<rect x="80" y="130" style="fill:#C4C4C4;" width="10" height="2"/>
	</g>
	<g>
		<g>
			<rect y="45" width="14.917" height="2"/>
		</g>
		<g>
			<rect y="50" width="14.917" height="2"/>
		</g>
		<g>
			<rect y="55" width="14.917" height="2"/>
		</g>
	</g>
	<g>
		<g>
			<rect x="105" y="95" width="14.917" height="2"/>
		</g>
		<g>
			<rect x="105" y="100" width="14.917" height="2"/>
		</g>
		<g>
			<rect x="105" y="105" width="14.917" height="2"/>
		</g>
	</g>
</g>
</svg>
