<?xml version="1.0" encoding="UTF-8"?><!DOCTYPE svg PUBLIC "-//W3C//DTD SVG 1.1//EN" "http://www.w3.org/Graphics/SVG/1.1/DTD/svg11.dtd"><svg xmlns="http://www.w3.org/2000/svg"><symbol id="Aa-illustration" viewBox="0 0 62 37"><g fill="none" fill-rule="evenodd"><path d="M28.143 36.417l-2.452-7.74H14.283l-2.497 7.74H4.968L16.241 3.949h7.987l11.273 32.468h-7.358zm-8.325-25.718l-4.072 12.735h8.505L20.223 10.7h-.405zm29.52 21.173c3.038 0 5.333-1.935 5.333-4.455v-1.823l-5.018.315c-2.812.203-4.185 1.215-4.185 2.993 0 1.845 1.598 2.97 3.87 2.97zm-2.16 4.927c-4.77 0-8.122-2.925-8.122-7.47 0-4.5 3.442-7.11 9.607-7.47l6.008-.36v-2.025c0-2.07-1.485-3.24-4.185-3.24-2.363 0-3.938.81-4.478 2.295h-6.03c.428-4.59 4.635-7.47 10.868-7.47 6.57 0 10.282 3.105 10.282 8.415v16.943h-6.345v-3.24h-.405c-1.282 2.272-3.982 3.622-7.2 3.622z" fill-opacity=".698" fill="#BFA9F2"/><path d="M24.517 34l-2.453-7.74H10.657L8.159 34H1.342L12.614 1.533h7.988L31.874 34h-7.357zM16.192 8.283l-4.073 12.735h8.505L16.597 8.283h-.405zm29.52 21.172c3.037 0 5.332-1.935 5.332-4.455v-1.822l-5.017.315c-2.813.202-4.185 1.215-4.185 2.992 0 1.845 1.597 2.97 3.87 2.97zm-2.16 4.928c-4.77 0-8.123-2.925-8.123-7.47 0-4.5 3.443-7.11 9.608-7.47l6.007-.36v-2.025c0-2.07-1.485-3.24-4.185-3.24-2.362 0-3.937.81-4.477 2.295h-6.03c.427-4.59 4.635-7.47 10.867-7.47 6.57 0 10.283 3.105 10.283 8.415V34h-6.345v-3.24h-.405c-1.283 2.272-3.983 3.622-7.2 3.622z" stroke="#6032C3" stroke-width="1.2" fill="none"/></g></symbol><symbol id="artboard-illustration" viewBox="0 0 44 56"><g transform="translate(-14 -3)" fill="none" fill-rule="evenodd"><rect fill-opacity=".7" fill="#BFA9F2" x="18.327" y="7.75" width="39.273" height="50.375" rx="1.571"/><rect stroke="#6032C3" stroke-width="1.3" x="15.05" y="4.525" width="37.973" height="50.367" rx="1.571"/></g></symbol><symbol id="btn-illustration" viewBox="0 0 77 38"><g fill="none" fill-rule="evenodd"><rect fill-opacity=".7" fill="#BFA9F2" x="4.2" y="4.222" width="72.8" height="33.778" rx="1.692"/><rect stroke="#6032C3" stroke-width="1.4" x=".7" y=".7" width="73.062" height="32.64" rx="1.692"/><path d="M21.57 22.507v-7.962h2.79c.965 0 1.698.185 2.198.555.5.37.749.912.749 1.627 0 .39-.1.733-.3 1.03-.201.298-.48.516-.838.654.409.102.73.308.966.618.235.31.352.69.352 1.138 0 .765-.244 1.345-.732 1.739-.489.393-1.185.594-2.09.601H21.57zm1.64-3.467v2.15h1.406c.387 0 .688-.093.905-.277.217-.184.326-.438.326-.763 0-.729-.378-1.1-1.132-1.11H23.21zm0-1.16h1.215c.828-.014 1.241-.344 1.241-.99 0-.36-.104-.62-.314-.779-.21-.158-.54-.237-.993-.237h-1.148v2.007zm8.948 4.026c-.39.474-.93.71-1.619.71-.634 0-1.118-.182-1.452-.546-.334-.365-.504-.899-.511-1.603V16.59h1.58v3.823c0 .616.28.924.842.924.536 0 .905-.186 1.105-.558V16.59h1.586v5.917h-1.487l-.044-.601zm4.615-6.77v1.454h1.012v1.16h-1.012v2.952c0 .22.042.376.126.47.084.096.244.143.481.143.175 0 .33-.013.465-.038v1.197c-.31.095-.629.143-.957.143-1.108 0-1.673-.56-1.695-1.68V17.75h-.864V16.59h.864v-1.455h1.58zm3.785 0v1.454h1.011v1.16h-1.011v2.952c0 .22.042.376.126.47.083.096.244.143.48.143.176 0 .33-.013.466-.038v1.197c-.31.095-.63.143-.957.143-1.109 0-1.674-.56-1.696-1.68V17.75h-.864V16.59h.864v-1.455h1.58zm1.646 4.358c0-.587.113-1.11.339-1.57.226-.459.551-.814.976-1.066.425-.252.918-.377 1.48-.377.798 0 1.45.244 1.954.732.505.489.787 1.153.845 1.991l.011.405c0 .908-.253 1.636-.76 2.185-.507.548-1.187.823-2.04.823s-1.534-.274-2.042-.82c-.509-.548-.763-1.291-.763-2.232v-.071zm1.58.115c0 .561.106.99.318 1.288.211.297.514.445.907.445.383 0 .682-.146.897-.44.215-.293.323-.763.323-1.408 0-.55-.108-.977-.323-1.28-.215-.302-.518-.454-.908-.454-.386 0-.685.15-.896.451-.212.301-.318.767-.318 1.398zm6.453-3.019l.05.684c.423-.53.99-.793 1.7-.793.628 0 1.094.184 1.4.552.307.368.463.919.47 1.652v3.822h-1.58v-3.784c0-.336-.073-.579-.218-.73-.146-.152-.389-.227-.728-.227-.445 0-.778.19-1 .569v4.172H48.75V16.59h1.487z" fill="#6032C3"/></g></symbol><symbol id="check" viewBox="0 0 20 21"><title>ui-24px-outline-1_check-circle-07</title><g stroke="#444" stroke-width=".909" fill="none" fill-rule="evenodd"><path d="M18.364 8.148c.181.723.272 1.538.272 2.352 0 4.976-4.09 9.048-9.09 9.048S.454 15.476.454 10.5s4.09-9.048 9.09-9.048c1.728 0 3.364.453 4.819 1.358"/><path stroke-linecap="square" d="M5.91 8.69l3.635 3.62 10-9.953"/></g></symbol><symbol id="fragments-logo" viewBox="0 0 379 106"><title>logo-inline-2</title><g fill-rule="nonzero" fill="none"><g fill="#6032C3"><path d="M36.6.153v20.994L18.369 31.643V10.65z"/><path fill-opacity=".5" d="M36.474.153v20.994l18.232 10.496V10.65z"/><path d="M91.426 10.86L73.245 21.355l-18.207-10.54L73.22.317z"/><path fill-opacity=".5" d="M91.363 10.75L73.18 21.246l.026 21.038 18.181-10.497z"/><path d="M109.615 63.554L91.434 53.057l.025-21.038 18.181 10.497z"/><path fill-opacity=".5" d="M109.678 63.444l-18.18-10.497L73.29 63.488l18.18 10.497z"/><path d="M72.978 105.542V84.548L91.211 74.05v20.994z"/><path fill-opacity=".5" d="M73.105 105.542V84.548L54.873 74.05v20.994z"/><g><path d="M18.343 95.19l18.181-10.497 18.207 10.54L36.55 105.73z"/><path fill-opacity=".5" d="M18.407 95.3l18.18-10.498-.025-21.038-18.18 10.497z"/></g><g><path d="M.154 42.495l18.181 10.497-.025 21.038L.129 63.533z"/><path fill-opacity=".5" d="M.09 42.605l18.182 10.497L36.479 42.56 18.297 32.064z"/></g><g><path fill-opacity=".67" d="M55.002 32.063v20.994L36.77 63.554V42.56z"/><path fill-opacity=".5" d="M55 32.063L73.232 42.56v20.994L55 53.057z"/><path d="M55 53.057l18.233 10.497L55 74.051 36.768 63.554z"/></g></g><path d="M135 45.911v-7.316h5.22v-.433c0-3.053.83-5.51 2.492-7.371 1.66-1.86 4.057-2.791 7.187-2.791 1.311 0 2.614.163 3.908.488l-.63 6.99c-.874-.144-1.538-.216-1.993-.216-2.081 0-3.121 1.039-3.121 3.116v.217h5.22v7.316h-5.22V68.62h-7.843V45.911H135zm20.512 22.708V38.595h7.843v6.151c.752-2.258 1.845-3.96 3.279-5.108 1.433-1.147 3.095-1.72 4.983-1.72.525 0 1.137.063 1.836.19v8.643c-1.224-.216-2.3-.325-3.226-.325-1.661 0-3.038.398-4.131 1.193-1.093.794-1.867 1.878-2.322 3.251-.28.976-.42 2.394-.42 4.255v13.494h-7.842zm17.627-7.723c0-2.601.813-4.588 2.439-5.961 1.626-1.373 4.1-2.394 7.423-3.062l5.482-1.111c1.294-.235 1.941-.921 1.941-2.06 0-1.03-.393-1.878-1.18-2.547-.787-.668-1.845-1.002-3.174-1.002-1.242 0-2.23.32-2.964.962-.734.641-1.198 1.486-1.39 2.533l-7.843-.406c.245-2.999 1.486-5.47 3.725-7.411 2.238-1.942 5.185-2.913 8.84-2.913 2.64 0 4.843.487 6.61 1.463 1.765.975 3.077 2.321 3.934 4.037.454.886.782 1.793.983 2.724.201.93.302 2.19.302 3.78v10.595c0 1.138.498 1.707 1.495 1.707.193 0 .533-.072 1.023-.217v6.775c-.227.126-.616.244-1.167.352-.551.108-1.001.163-1.351.163-3.62 0-6.112-1.635-7.476-4.905-2.098 3.27-4.957 4.905-8.577 4.905-2.57 0-4.726-.764-6.466-2.29-1.74-1.527-2.61-3.563-2.61-6.11zm7.764-.596c0 .85.314 1.54.944 2.073.63.533 1.486.8 2.57.8 1.697 0 3.122-.597 4.276-1.789s1.731-2.908 1.731-5.148v-1.6c-.402.416-1.294.823-2.675 1.22l-2.86.786c-1.503.416-2.544.921-3.12 1.518a2.97 2.97 0 0 0-.866 2.14zm20.774-8.264c0-2.078.34-4.002 1.023-5.772.682-1.77 1.604-3.261 2.767-4.471a12.754 12.754 0 0 1 4.066-2.846 11.994 11.994 0 0 1 4.918-1.03c1.889 0 3.454.394 4.695 1.18 1.242.785 2.36 1.892 3.358 3.319v-3.82h7.842v25.091c0 4.517-1.28 8.134-3.842 10.853-2.562 2.719-6.02 4.078-10.374 4.078-1.714 0-3.305-.194-4.774-.582-1.469-.389-2.72-.904-3.751-1.545a12.745 12.745 0 0 1-2.728-2.263c-.787-.867-1.395-1.77-1.823-2.71-.428-.939-.73-1.905-.905-2.899l7.738-.948c.367 1.102 1.071 2.005 2.111 2.71 1.041.704 2.453 1.056 4.237 1.056 2.098 0 3.667-.673 4.708-2.018 1.04-1.346 1.56-3.22 1.56-5.623v-1.843c-1.958 2.89-4.625 4.336-8 4.336-2.343 0-4.49-.596-6.439-1.789-1.95-1.192-3.502-2.881-4.656-5.067-1.154-2.186-1.731-4.652-1.731-7.397zm8.105.108c0 1.879.603 3.495 1.81 4.85 1.207 1.355 2.79 2.033 4.748 2.033 1.976 0 3.554-.592 4.734-1.775 1.18-1.183 1.77-2.886 1.77-5.108 0-2.06-.598-3.74-1.796-5.04-1.198-1.3-2.767-1.951-4.708-1.951-2.046 0-3.65.623-4.814 1.87-1.163 1.246-1.744 2.953-1.744 5.12zm25.758 16.475V38.595h7.843v4.878a13.214 13.214 0 0 1 3.436-3.943c1.399-1.075 2.903-1.612 4.512-1.612 3.707 0 6.286 1.987 7.737 5.961.7-1.644 1.802-3.048 3.305-4.214 1.504-1.165 3.218-1.747 5.142-1.747 2.15 0 3.934.582 5.35 1.747 1.417 1.166 2.37 2.697 2.86 4.594.28 1.138.42 2.872.42 5.202V68.62H268.3V51.466c0-1.246-.052-2.203-.157-2.872-.42-2.15-1.652-3.224-3.698-3.224-1.05 0-1.972.343-2.768 1.03a4.926 4.926 0 0 0-1.587 2.573c-.21.831-.314 1.96-.314 3.388v16.258h-7.843V51.466c0-1.246-.053-2.203-.158-2.872-.42-2.15-1.66-3.224-3.724-3.224-1.05 0-1.972.343-2.767 1.03a4.926 4.926 0 0 0-1.587 2.573c-.21.831-.315 1.96-.315 3.388v16.258h-7.843zm44.04-14.985c0-2.276.385-4.408 1.155-6.395.769-1.987 1.8-3.653 3.095-5a14.28 14.28 0 0 1 4.524-3.17 13.099 13.099 0 0 1 5.39-1.151c4.285 0 7.712 1.472 10.283 4.417 2.57 2.944 3.856 6.675 3.856 11.19 0 .958-.053 1.807-.158 2.548h-20.302c.21 1.644.966 3.026 2.27 4.146 1.302 1.12 2.836 1.68 4.602 1.68 2.291 0 4.031-.885 5.22-2.656l7.607.84c-.752 2.855-2.26 5.104-4.525 6.748-2.264 1.644-5.031 2.466-8.302 2.466-4.424 0-7.982-1.423-10.675-4.268-2.693-2.845-4.04-6.644-4.04-11.395zm7.948-2.71h12.354c-.716-3.739-2.797-5.609-6.242-5.609-1.452 0-2.763.493-3.935 1.477-1.171.985-1.897 2.362-2.177 4.133zM311.45 68.62V38.595h7.843v4.823c.84-1.643 1.958-2.971 3.357-3.983 1.4-1.011 3.06-1.517 4.984-1.517 2.238 0 4.1.61 5.587 1.829 1.486 1.22 2.483 2.813 2.99 4.782.297 1.247.446 3.063.446 5.447V68.62h-7.843V52.09c0-1.499-.06-2.555-.183-3.17-.193-1.138-.643-2.014-1.351-2.628-.708-.614-1.648-.921-2.82-.921-1.206 0-2.225.325-3.056.975-.83.65-1.412 1.545-1.744 2.683-.245.795-.367 1.942-.367 3.441v16.15h-7.843zm27.096-22.708v-7.316h5.22v-6.097l7.842-1.11v7.207h5.22v7.316h-5.22V68.62h-7.843V45.911h-5.22zm18.466 17.207l5.43-4.606c1.748 2.366 3.864 3.55 6.347 3.55.734 0 1.285-.163 1.652-.488.368-.325.551-.75.551-1.274 0-.506-.17-.953-.511-1.341-.341-.388-.923-.79-1.744-1.206l-4.512-2.222c-3.952-1.933-5.928-4.841-5.928-8.725 0-2.547.905-4.666 2.715-6.355 1.81-1.689 4.044-2.533 6.702-2.533 3.812 0 6.89 1.635 9.233 4.904l-5.037 5.04c-1.451-1.806-2.937-2.71-4.459-2.71-.612 0-1.088.15-1.43.448a1.46 1.46 0 0 0-.51 1.151c0 .741.55 1.391 1.652 1.952l4.459 2.222c2.36 1.174 4.061 2.474 5.102 3.902 1.04 1.427 1.56 3.287 1.56 5.582 0 2.601-.9 4.733-2.701 6.395-1.802 1.662-4.101 2.493-6.899 2.493-5.071 0-8.962-2.06-11.672-6.179z" fill="#000"/></g></symbol><symbol id="fragments-logo__old" viewBox="0 0 512 106"><title>logo-fragments</title><path d="M24 44.524V36.14h5.99v-.497c0-3.498.953-6.313 2.86-8.445C34.755 25.066 37.504 24 41.096 24c1.505 0 3 .186 4.485.559l-.723 8.01c-1.003-.165-1.765-.248-2.287-.248-2.388 0-3.582 1.19-3.582 3.57v.25h5.99v8.383h-5.99v26.019h-9v-26.02H24zm23.538 26.019V36.14h9v7.048c.863-2.587 2.117-4.538 3.763-5.852 1.645-1.315 3.552-1.972 5.719-1.972.602 0 1.304.072 2.107.217v9.905c-1.405-.248-2.639-.373-3.703-.373-1.906 0-3.486.456-4.74 1.367-1.254.91-2.142 2.152-2.664 3.726-.321 1.117-.482 2.742-.482 4.874v15.463h-9zm20.228-8.85c0-2.98.933-5.257 2.799-6.83 1.866-1.573 4.706-2.743 8.518-3.509l6.291-1.273c1.485-.269 2.228-1.055 2.228-2.36 0-1.18-.452-2.152-1.355-2.918s-2.117-1.149-3.642-1.149c-1.425 0-2.559.368-3.401 1.102-.843.735-1.375 1.703-1.596 2.904l-9-.466c.281-3.436 1.706-6.267 4.275-8.492 2.568-2.225 5.95-3.338 10.143-3.338 3.03 0 5.559.559 7.586 1.677 2.026 1.117 3.531 2.66 4.515 4.626a12.657 12.657 0 0 1 1.128 3.12c.231 1.067.347 2.51.347 4.332v12.14c0 1.304.571 1.956 1.715 1.956.221 0 .612-.083 1.174-.248v7.762c-.26.145-.707.28-1.34.404-.631.124-1.148.186-1.55.186-4.153 0-7.013-1.873-8.578-5.62-2.408 3.747-5.689 5.62-9.843 5.62-2.95 0-5.423-.874-7.42-2.624-1.996-1.749-2.994-4.083-2.994-7.001zm8.91-.682c0 .973.36 1.764 1.083 2.375.722.61 1.705.916 2.95.916 1.946 0 3.582-.683 4.906-2.05 1.324-1.365 1.987-3.332 1.987-5.899v-1.832c-.462.477-1.485.942-3.07 1.398l-3.282.9c-1.725.476-2.92 1.056-3.581 1.739a3.4 3.4 0 0 0-.994 2.453zm23.839-9.47c0-2.38.39-4.585 1.173-6.614.783-2.028 1.842-3.736 3.176-5.123a14.636 14.636 0 0 1 4.666-3.26 13.781 13.781 0 0 1 5.643-1.18c2.168 0 3.963.45 5.388 1.35 1.425.901 2.71 2.169 3.853 3.804V36.14h9v28.752c0 5.175-1.47 9.32-4.41 12.435C126.064 80.442 122.096 82 117.1 82c-1.967 0-3.793-.223-5.479-.668-1.685-.445-3.12-1.035-4.304-1.77a14.62 14.62 0 0 1-3.13-2.592c-.903-.994-1.6-2.029-2.092-3.105a13.688 13.688 0 0 1-1.039-3.322l8.88-1.087c.421 1.263 1.229 2.298 2.423 3.105 1.194.807 2.814 1.21 4.861 1.21 2.408 0 4.21-.77 5.403-2.312 1.194-1.542 1.791-3.69 1.791-6.443v-2.111c-2.247 3.312-5.308 4.968-9.18 4.968-2.69 0-5.153-.683-7.39-2.05-2.238-1.366-4.018-3.301-5.343-5.806-1.324-2.505-1.986-5.33-1.986-8.476zm9.3.124c0 2.153.693 4.005 2.077 5.558 1.385 1.552 3.201 2.328 5.449 2.328 2.267 0 4.078-.678 5.433-2.033 1.354-1.356 2.031-3.307 2.031-5.853 0-2.36-.687-4.285-2.062-5.775-1.374-1.49-3.175-2.236-5.402-2.236-2.348 0-4.19.714-5.524 2.143-1.334 1.428-2.002 3.384-2.002 5.868zm29.559 18.878V36.14h9v5.59a15.148 15.148 0 0 1 3.943-4.519c1.605-1.231 3.33-1.847 5.177-1.847 4.254 0 7.214 2.277 8.88 6.83.802-1.883 2.066-3.492 3.792-4.827s3.693-2.003 5.9-2.003c2.468 0 4.515.668 6.14 2.003 1.626 1.335 2.72 3.09 3.281 5.263.321 1.304.482 3.29.482 5.961v21.952h-9V50.889c0-1.429-.06-2.526-.18-3.292-.482-2.463-1.897-3.694-4.245-3.694a4.719 4.719 0 0 0-3.175 1.18 5.643 5.643 0 0 0-1.821 2.95c-.241.951-.362 2.245-.362 3.88v18.63h-9V50.889c0-1.429-.06-2.526-.18-3.292-.482-2.463-1.907-3.694-4.274-3.694a4.719 4.719 0 0 0-3.176 1.18 5.643 5.643 0 0 0-1.821 2.95c-.24.951-.361 2.245-.361 3.88v18.63h-9zm50.538-17.17c0-2.609.441-5.051 1.324-7.328s2.067-4.186 3.552-5.729a16.388 16.388 0 0 1 5.192-3.632 15.05 15.05 0 0 1 6.186-1.32c4.916 0 8.85 1.687 11.8 5.061 2.95 3.374 4.424 7.648 4.424 12.823 0 1.097-.06 2.07-.18 2.919h-23.298c.24 1.884 1.109 3.467 2.604 4.75 1.494 1.284 3.255 1.926 5.282 1.926 2.629 0 4.625-1.015 5.99-3.043l8.73.962c-.864 3.27-2.595 5.848-5.193 7.732-2.599 1.883-5.774 2.825-9.527 2.825-5.077 0-9.16-1.63-12.25-4.89-3.091-3.26-4.636-7.612-4.636-13.056zm9.12-3.105h14.177c-.822-4.285-3.21-6.428-7.163-6.428-1.666 0-3.171.565-4.515 1.693-1.345 1.128-2.178 2.706-2.499 4.735zm27.452 20.275V36.14h9v5.527c.963-1.884 2.247-3.405 3.852-4.564 1.606-1.16 3.512-1.739 5.72-1.739 2.568 0 4.705.699 6.41 2.096 1.706 1.397 2.85 3.224 3.432 5.48.341 1.428.512 3.509.512 6.24v21.363h-9v-18.94c0-1.718-.07-2.93-.21-3.633-.222-1.304-.738-2.308-1.551-3.012-.813-.704-1.891-1.055-3.236-1.055-1.384 0-2.553.372-3.506 1.117-.954.746-1.62 1.77-2.002 3.074-.281.911-.421 2.225-.421 3.943v18.506h-9zm31.093-26.02V36.14h5.99v-6.986l9-1.273v8.26h5.99v8.383h-5.99v26.019h-9v-26.02h-5.99zm21.19 19.717l6.231-5.279c2.007 2.712 4.435 4.068 7.284 4.068.843 0 1.475-.186 1.897-.559.421-.373.632-.859.632-1.46a2.26 2.26 0 0 0-.587-1.536c-.391-.445-1.059-.906-2.002-1.382l-5.177-2.546c-4.535-2.215-6.803-5.547-6.803-9.998 0-2.918 1.039-5.345 3.116-7.28 2.077-1.936 4.64-2.904 7.69-2.904 4.375 0 7.907 1.873 10.596 5.62l-5.78 5.775c-1.665-2.07-3.37-3.105-5.117-3.105-.702 0-1.249.17-1.64.512-.391.342-.587.782-.587 1.32 0 .849.632 1.594 1.896 2.236l5.117 2.546c2.71 1.345 4.66 2.835 5.855 4.47 1.194 1.636 1.79 3.768 1.79 6.397 0 2.98-1.033 5.423-3.1 7.328-2.066 1.904-4.705 2.856-7.916 2.856-5.82 0-10.284-2.36-13.395-7.08zm27.842 4.014c0 .932.268 1.674.802 2.225.534.551 1.253.827 2.157.827.904 0 1.624-.276 2.158-.827.534-.55.801-1.293.801-2.225 0-.933-.267-1.675-.801-2.226-.534-.551-1.254-.827-2.158-.827-.904 0-1.623.276-2.157.827-.534.551-.802 1.293-.802 2.226zm37.342 2.289V64.31c-2.877 4.663-6.966 6.995-12.267 6.995-4.562 0-8.364-1.696-11.405-5.087-3.041-3.392-4.562-7.673-4.562-12.845 0-5.3 1.552-9.623 4.655-12.972 3.102-3.35 6.873-5.024 11.312-5.024 5.137 0 9.226 2.374 12.267 7.122V24.76h4.192v45.784h-4.192zm-23.795-17.17c0 4.113 1.079 7.451 3.236 10.016 2.158 2.565 5.024 3.847 8.6 3.847 3.534 0 6.431-1.272 8.692-3.815 2.26-2.544 3.39-5.893 3.39-10.047 0-4.367-1.11-7.78-3.329-10.238-2.219-2.459-5.116-3.688-8.692-3.688-3.493 0-6.349 1.335-8.568 4.006-2.22 2.67-3.33 5.977-3.33 9.92zm37.465-2.924h23.117c-.37-3.392-1.562-6.073-3.576-8.044-2.014-1.972-4.562-2.957-7.644-2.957-3.205 0-5.866 1.06-7.983 3.18-2.116 2.119-3.421 4.726-3.914 7.82zm27.185 3.815h-27.37c.164 3.943 1.366 7.09 3.606 9.443 2.24 2.353 5.209 3.53 8.908 3.53 2.548 0 4.654-.668 6.318-2.004 1.665-1.335 2.846-3.063 3.545-5.182l4.192.826c-.904 3.137-2.62 5.66-5.148 7.567-2.527 1.908-5.537 2.862-9.03 2.862-4.891 0-8.908-1.643-12.052-4.928-3.144-3.286-4.716-7.62-4.716-13.004 0-5.257 1.603-9.57 4.808-12.94 3.206-3.37 7.09-5.056 11.651-5.056 4.562 0 8.281 1.611 11.158 4.833 2.877 3.222 4.315 7.1 4.315 11.637 0 .72-.062 1.526-.185 2.416zm15.088 12.972c-4.069 0-7.13-2.098-9.185-6.295l-3.39 2.226c1.027 2.416 2.599 4.377 4.715 5.881 2.117 1.505 4.736 2.258 7.86 2.258 3.246 0 5.866-.848 7.86-2.544 1.993-1.695 2.99-3.921 2.99-6.676 0-4.155-1.994-7.165-5.98-9.03l-7.952-3.752c-2.548-1.187-3.822-2.819-3.822-4.896 0-1.4.534-2.576 1.602-3.53 1.069-.953 2.487-1.43 4.254-1.43 2.712 0 5.157 1.462 7.336 4.388l2.897-2.798c-2.754-3.773-6.165-5.66-10.233-5.66-2.96 0-5.374.901-7.243 2.703-1.87 1.801-2.805 3.91-2.805 6.327 0 2.12.554 3.9 1.664 5.341 1.11 1.442 2.877 2.756 5.302 3.943l6.842 3.243c2.63 1.272 3.945 2.988 3.945 5.15 0 1.569-.575 2.82-1.726 3.752-1.15.933-2.794 1.4-4.931 1.4zm19.218-31.095h-4.192v34.402h4.192V36.14zm-4.809-9.22c0 .848.247 1.526.74 2.035.493.508 1.15.763 1.973.763.822 0 1.48-.255 1.972-.763.494-.509.74-1.187.74-2.035 0-.848-.246-1.526-.74-2.035-.493-.509-1.15-.763-1.972-.763-.822 0-1.48.254-1.973.763-.493.509-.74 1.187-.74 2.035zm11.204 45.084l4.254-.636c.904 2.205 2.147 3.848 3.73 4.929 1.582 1.08 3.811 1.621 6.688 1.621 3.699 0 6.514-1.028 8.445-3.084 1.932-2.056 2.898-5.013 2.898-8.87V63.42c-2.754 4.409-6.7 6.613-11.836 6.613-4.439 0-8.117-1.632-11.035-4.896-2.918-3.264-4.377-7.398-4.377-12.4 0-5.13 1.5-9.305 4.5-12.527 3-3.222 6.638-4.833 10.912-4.833 5.055 0 9 2.268 11.836 6.804v-6.04h4.191v30.077c0 4.917-1.346 8.775-4.037 11.573-2.692 2.798-6.504 4.197-11.436 4.197-4.15 0-7.438-.912-9.863-2.734-2.424-1.823-4.048-4.24-4.87-7.25zm3.268-19.267c0 3.942 1.037 7.143 3.113 9.602 2.075 2.459 4.818 3.688 8.23 3.688 3.37 0 6.133-1.219 8.29-3.656 2.158-2.438 3.237-5.65 3.237-9.634 0-4.155-1.058-7.408-3.175-9.76-2.116-2.354-4.88-3.53-8.291-3.53-3.329 0-6.062 1.272-8.199 3.815-2.137 2.544-3.205 5.702-3.205 9.475zM488 50.83c0-3.306-.164-5.702-.493-7.185-.576-2.501-1.788-4.504-3.637-6.01-1.85-1.504-4.172-2.257-6.966-2.257-2.22 0-4.223.54-6.01 1.622-1.788 1.08-3.216 2.49-4.285 4.228v-5.087h-4.192v34.402h4.192V52.038c0-2.585.226-4.62.678-6.104.576-1.993 1.613-3.572 3.113-4.737 1.5-1.166 3.36-1.75 5.58-1.75 4.232 0 6.74 2.078 7.52 6.233.205 1.017.308 2.925.308 5.723v19.14H488V50.83z" fill="#00101A" fill-rule="evenodd"/></symbol><symbol id="heart-illustration" viewBox="0 0 56 52"><title>heart-illustration</title><g fill="none" fill-rule="evenodd"><path d="M7.977 30.022l-.02.02 21.485 21.485 21.62-21.62c5.97-5.97 6-15.619.067-21.551-5.933-5.933-15.583-5.903-21.553.067l-.02.02a15.33 15.33 0 0 0-.651-.692C22.972 1.818 13.323 1.85 7.352 7.82c-5.97 5.97-6 15.619-.067 21.552.226.225.457.442.692.65z" fill-opacity=".7" fill="#BFA9F2" fill-rule="nonzero"/><path d="M27.028 48.293L6.391 27.656l.048-.048-.478-.422c-.228-.2-.45-.41-.665-.625-5.698-5.698-5.67-14.968.067-20.704C11.099.12 20.369.092 26.067 5.79c.216.216.424.437.625.665l.423.478.472-.472C33.323.725 42.592.696 48.29 6.394c5.698 5.698 5.669 14.967-.068 20.704L27.028 48.293z" stroke="#4300B3" stroke-width="1.2"/></g></symbol><symbol id="linkedin" viewBox="0 0 24 24"><path d="M21 0H3C1.3 0 0 1.3 0 3v18c0 1.7 1.3 3 3 3h18c1.7 0 3-1.3 3-3V3c0-1.7-1.3-3-3-3zM8.7 18H6.2v-8h2.5v8zM7.4 8.9C6.6 8.9 6 8.2 6 7.5 6 6.7 6.6 6 7.4 6c.8 0 1.4.6 1.4 1.4.1.8-.6 1.5-1.4 1.5zM18 18h-2.5v-3.9c0-.9 0-2.1-1.3-2.1s-1.5 1-1.5 2.1v4h-2.5v-8h2.4v1.1c.3-.6 1.1-1.3 2.4-1.3 2.5 0 3 1.7 3 3.8V18z"/></symbol><symbol id="twitter" viewBox="0 0 24 24"><path d="M21 0H3C1.3 0 0 1.3 0 3v18c0 1.7 1.3 3 3 3h18c1.7 0 3-1.3 3-3V3c0-1.7-1.3-3-3-3zm-4.2 9.6v.3c0 3.3-2.5 7-7 7-1.4 0-2.7-.4-3.8-1.1h.6c1.2 0 2.2-.4 3.1-1.1-1.1 0-2-.7-2.3-1.7h.5c.2 0 .4 0 .6-.1-1.1-.2-2-1.2-2-2.4.3.2.7.3 1.1.3-.7-.4-1.1-1.2-1.1-2 0-.5.1-.9.3-1.2 1.2 1.5 3 2.5 5.1 2.6 0-.2-.1-.4-.1-.6 0-1.4 1.1-2.5 2.5-2.5.7 0 1.3.3 1.8.8.6-.1 1.1-.3 1.6-.6-.2.6-.6 1.1-1.1 1.4.5-.1 1-.2 1.4-.4-.3.5-.7.9-1.2 1.3z"/></symbol></svg>